<svg width="389" height="1024" viewBox="0 0 389 1024" fill="none" xmlns="http://www.w3.org/2000/svg">
<path d="M74.5064 732.612L73.2724 730.438L74.6446 735.108L74.5064 732.612ZM177.569 724.433L179.945 725.209L181.167 721.472L177.264 721.951L177.569 724.433ZM172.252 746.926L169.782 746.543L172.252 746.926ZM170.412 768.398V770.898H172.912V768.398H170.412ZM24.202 768.398L21.7048 768.517L21.8182 770.898H24.202L24.202 768.398ZM23.9975 764.104H21.4975V764.163L21.5004 764.222L23.9975 764.104ZM35.6534 729.34L33.7065 727.772L33.6999 727.78L33.6933 727.789L35.6534 729.34ZM68.5762 702.143L69.8501 704.294L69.8563 704.291L69.8624 704.287L68.5762 702.143ZM87.7982 692.737L86.8034 690.443L86.7961 690.446L87.7982 692.737ZM113.973 679.854L115.259 681.998L115.276 681.987L115.294 681.977L113.973 679.854ZM117.449 657.565L118.902 655.53L117.449 657.565ZM79.4141 660.223L77.6729 658.429L77.6595 658.442L77.6464 658.455L79.4141 660.223ZM73.2794 684.148L72.9645 686.628L76.3312 687.056L75.7414 683.714L73.2794 684.148ZM23.1796 679.649H20.6796V682.027L23.0537 682.146L23.1796 679.649ZM32.1771 648.363L30.0831 646.997L30.0782 647.005L32.1771 648.363ZM59.5787 626.073L58.5633 623.789L58.5538 623.793L59.5787 626.073ZM145.055 624.642L144.092 626.949L144.109 626.956L144.127 626.963L145.055 624.642ZM168.98 641.41L166.971 642.897L166.988 642.92L167.005 642.942L168.98 641.41ZM171.23 683.126L169.113 681.796L169.101 681.814L169.09 681.832L171.23 683.126ZM155.689 698.871L157.085 700.945L157.094 700.939L155.689 698.871ZM128.696 713.595L127.633 711.332L127.605 711.345L127.578 711.359L128.696 713.595ZM120.721 716.458L121.348 718.878L121.39 718.867L121.431 718.855L120.721 716.458ZM113.768 718.298L113.082 715.894L113.07 715.897L113.059 715.901L113.768 718.298ZM90.661 725.455L89.8705 723.083L90.661 725.455ZM74.6446 735.108C118.97 732.653 153.389 729.923 177.874 726.914L177.264 721.951C152.944 724.94 118.655 727.663 74.3681 730.116L74.6446 735.108ZM175.193 723.656C172.83 730.882 171.028 738.512 169.782 746.543L174.723 747.31C175.93 739.527 177.673 732.161 179.945 725.209L175.193 723.656ZM169.782 746.543C168.54 754.547 167.912 761.835 167.912 768.398H172.912C172.912 762.146 173.511 755.12 174.723 747.31L169.782 746.543ZM170.412 765.898H24.202L24.202 770.898H170.412V765.898ZM26.6992 768.279L26.4947 763.985L21.5004 764.222L21.7048 768.517L26.6992 768.279ZM26.4975 764.104C26.4975 751.266 30.2169 740.235 37.6135 730.892L33.6933 727.789C25.5487 738.077 21.4975 750.221 21.4975 764.104H26.4975ZM37.6003 730.909C45.2734 721.384 55.9938 712.501 69.8501 704.294L67.3023 699.992C53.0754 708.418 41.8473 717.666 33.7065 727.772L37.6003 730.909ZM69.8624 704.287C73.8098 701.919 80.097 698.835 88.8002 695.027L86.7961 690.446C78.0496 694.273 71.5221 697.46 67.2899 700L69.8624 704.287ZM88.793 695.03C100.148 690.105 108.987 685.761 115.259 681.998L112.687 677.71C106.689 681.309 98.0787 685.553 86.8034 690.443L88.793 695.03ZM115.294 681.977C121.494 678.119 125.675 673.72 125.675 668.607H120.675C120.675 670.856 118.721 673.955 112.652 677.731L115.294 681.977ZM125.675 668.607C125.675 663.153 123.367 658.719 118.902 655.53L115.996 659.599C119.166 661.863 120.675 664.791 120.675 668.607H125.675ZM118.902 655.53C114.453 652.352 107.89 650.975 99.6586 650.975V655.975C107.514 655.975 112.811 657.324 115.996 659.599L118.902 655.53ZM99.6586 650.975C90.3933 650.975 82.9255 653.331 77.6729 658.429L81.1553 662.017C85.1729 658.117 91.2014 655.975 99.6586 655.975V650.975ZM77.6464 658.455C72.6329 663.469 70.166 669.852 70.166 677.4H75.166C75.166 671.043 77.1978 665.975 81.1819 661.991L77.6464 658.455ZM70.166 677.4C70.166 679.738 70.3852 682.133 70.8175 684.583L75.7414 683.714C75.3558 681.529 75.166 679.425 75.166 677.4H70.166ZM73.5944 681.668C56.3586 679.479 39.5955 677.974 23.3055 677.153L23.0537 682.146C39.2093 682.961 55.8461 684.455 72.9645 686.628L73.5944 681.668ZM25.6796 679.649C25.6796 668.519 28.5528 658.566 34.276 649.721L30.0782 647.005C23.8047 656.7 20.6796 667.605 20.6796 679.649H25.6796ZM34.2711 649.728C40.0993 640.792 48.8253 633.647 60.6035 628.354L58.5538 623.793C46.0659 629.406 36.5242 637.121 30.0831 646.997L34.2711 649.728ZM60.594 628.358C72.4589 623.085 87.0871 620.394 104.566 620.394V615.394C86.6007 615.394 71.2371 618.156 58.5633 623.789L60.594 628.358ZM104.566 620.394C120.578 620.394 133.721 622.617 144.092 626.949L146.019 622.335C134.85 617.669 121 615.394 104.566 615.394V620.394ZM144.127 626.963C154.761 631.217 162.29 636.571 166.971 642.897L170.99 639.923C165.583 632.616 157.161 626.792 145.984 622.321L144.127 626.963ZM167.005 642.942C171.913 649.271 174.251 655.63 174.251 662.063H179.251C179.251 654.319 176.409 646.909 170.956 639.878L167.005 642.942ZM174.251 662.063C174.251 669.859 172.501 676.4 169.113 681.796L173.347 684.455C177.32 678.127 179.251 670.627 179.251 662.063H174.251ZM169.09 681.832C165.766 687.331 160.861 692.331 154.283 696.804L157.094 700.939C164.149 696.142 169.605 690.645 173.369 684.419L169.09 681.832ZM154.292 696.798C147.759 701.197 138.888 706.044 127.633 711.332L129.759 715.857C141.134 710.512 150.258 705.543 157.085 700.945L154.292 696.798ZM127.578 711.359C126.15 712.073 123.669 712.977 120.011 714.061L121.431 718.855C125.135 717.757 127.97 716.753 129.814 715.831L127.578 711.359ZM120.094 714.038C116.423 714.989 114.072 715.611 113.082 715.894L114.455 720.702C115.373 720.439 117.657 719.834 121.348 718.878L120.094 714.038ZM113.059 715.901C103.368 718.767 95.6351 721.162 89.8705 723.083L91.4516 727.827C97.1384 725.931 104.81 723.555 114.477 720.695L113.059 715.901ZM89.8705 723.083C83.9971 725.041 78.4631 727.492 73.2724 730.438L75.7404 734.786C80.6378 732.007 85.8735 729.686 91.4516 727.827L89.8705 723.083ZM214.778 750.198L213.037 751.992L214.778 750.198ZM214.778 638.138L216.51 639.941L216.51 639.941L214.778 638.138ZM344.22 638.138L342.478 639.932L342.488 639.941L344.22 638.138ZM344.22 750.198L345.961 751.992L344.22 750.198ZM307.207 723.206L309.207 724.706L309.214 724.697L309.22 724.689L307.207 723.206ZM307.207 665.131L305.194 666.614L305.201 666.622L305.207 666.631L307.207 665.131ZM251.586 665.131L249.59 663.625L249.586 663.631L251.586 665.131ZM251.586 723.001L249.573 724.484L249.582 724.496L249.59 724.507L251.586 723.001ZM279.601 767.943C250.614 767.943 229.767 761.262 216.519 748.404L213.037 751.992C227.6 766.127 249.968 772.943 279.601 772.943V767.943ZM216.519 748.404C203.21 735.486 196.42 717.453 196.42 693.964H191.42C191.42 718.462 198.536 737.918 213.037 751.992L216.519 748.404ZM196.42 693.964C196.42 670.615 203.207 652.722 216.51 639.941L213.046 636.335C198.538 650.274 191.42 669.598 191.42 693.964H196.42ZM216.51 639.941C229.9 627.071 250.757 620.394 279.601 620.394V615.394C250.098 615.394 227.74 622.212 213.046 636.336L216.51 639.941ZM279.601 620.394C308.448 620.394 329.229 627.072 342.479 639.932L345.961 636.344C331.4 622.211 309.102 615.394 279.601 615.394V620.394ZM342.488 639.941C355.791 652.722 362.578 670.615 362.578 693.964H367.578C367.578 669.598 360.459 650.274 345.952 636.335L342.488 639.941ZM362.578 693.964C362.578 717.453 355.788 735.486 342.479 748.404L345.961 751.992C360.462 737.918 367.578 718.462 367.578 693.964H362.578ZM342.479 748.404C329.229 761.264 308.448 767.943 279.601 767.943V772.943C309.102 772.943 331.4 766.125 345.961 751.992L342.479 748.404ZM279.806 737.157C292.865 737.157 302.868 733.158 309.207 724.706L305.207 721.706C300.095 728.522 291.83 732.157 279.806 732.157V737.157ZM309.22 724.689C315.325 716.403 318.296 706.104 318.296 693.964H313.296C313.296 705.271 310.541 714.467 305.194 721.723L309.22 724.689ZM318.296 693.964C318.296 681.954 315.322 671.784 309.207 663.631L305.207 666.631C310.544 673.746 313.296 682.798 313.296 693.964H318.296ZM309.22 663.648C302.887 655.053 292.881 650.975 279.806 650.975V655.975C291.814 655.975 300.076 659.667 305.194 666.614L309.22 663.648ZM279.806 650.975C266.351 650.975 256.072 655.034 249.59 663.625L253.582 666.636C258.825 659.687 267.358 655.975 279.806 655.975V650.975ZM249.586 663.631C243.471 671.784 240.498 681.954 240.498 693.964H245.498C245.498 682.798 248.25 673.746 253.586 666.631L249.586 663.631ZM240.498 693.964C240.498 705.975 243.472 716.203 249.573 724.484L253.599 721.518C248.249 714.258 245.498 705.128 245.498 693.964H240.498ZM249.59 724.507C256.072 733.098 266.351 737.157 279.806 737.157V732.157C267.358 732.157 258.825 728.445 253.582 721.496L249.59 724.507Z" fill="#5935A4" fill-opacity="0.1"/>
<path d="M64.5575 321.078L63.2187 318.719L64.7075 323.786L64.5575 321.078ZM176.368 312.204L178.946 313.047L180.272 308.991L176.038 309.512L176.368 312.204ZM170.6 336.607L167.92 336.191L170.6 336.607ZM168.604 359.901V362.613H171.316V359.901H168.604ZM9.98312 359.901L7.27398 360.03L7.39699 362.613H9.98312L9.98312 359.901ZM9.76127 355.242H7.04906V355.307L7.05213 355.371L9.76127 355.242ZM22.4066 317.528L20.2944 315.827L20.2872 315.836L20.2801 315.845L22.4066 317.528ZM58.1239 288.022L59.506 290.356L59.5127 290.352L59.5194 290.348L58.1239 288.022ZM78.9775 277.817L77.8983 275.329L77.8904 275.333L78.9775 277.817ZM107.374 263.841L108.769 266.167L108.788 266.156L108.807 266.144L107.374 263.841ZM111.145 239.66L112.722 237.453L112.722 237.453L111.145 239.66ZM69.8818 242.544L67.9928 240.598L67.9783 240.612L67.964 240.626L69.8818 242.544ZM63.2264 268.5L62.8848 271.19L66.5372 271.654L65.8974 268.029L63.2264 268.5ZM8.87388 263.619H6.16167L6.16167 266.198L8.73731 266.328L8.87388 263.619ZM18.6352 229.677L16.3634 228.195L16.3581 228.203L18.6352 229.677ZM48.3627 205.495L47.2611 203.017L47.2508 203.021L48.3627 205.495ZM141.095 203.942L140.049 206.445L140.068 206.453L140.087 206.461L141.095 203.942ZM167.051 222.134L164.871 223.747L164.889 223.772L164.908 223.796L167.051 222.134ZM169.491 267.391L167.194 265.948L167.182 265.968L167.17 265.987L169.491 267.391ZM152.631 284.473L154.146 286.723L154.156 286.716L152.631 284.473ZM123.347 300.446L122.194 297.991L122.164 298.005L122.134 298.02L123.347 300.446ZM114.695 303.552L115.376 306.177L115.421 306.165L115.465 306.152L114.695 303.552ZM107.152 305.548L106.407 302.94L106.395 302.944L106.383 302.948L107.152 305.548ZM82.0834 313.313L81.2257 310.74L82.0834 313.313ZM64.7075 323.786C112.795 321.122 150.136 318.16 176.699 314.896L176.038 309.512C149.653 312.755 112.454 315.709 64.4075 318.37L64.7075 323.786ZM173.79 311.361C171.227 319.201 169.272 327.479 167.92 336.191L173.281 337.023C174.591 328.579 176.481 320.588 178.946 313.047L173.79 311.361ZM167.92 336.191C166.573 344.874 165.892 352.781 165.892 359.901H171.316C171.316 353.118 171.966 345.496 173.281 337.023L167.92 336.191ZM168.604 357.189H9.98312L9.98312 362.613H168.604V357.189ZM12.6923 359.772L12.4704 355.113L7.05213 355.371L7.27398 360.03L12.6923 359.772ZM12.4735 355.242C12.4735 341.315 16.5086 329.348 24.533 319.212L20.2801 315.845C11.4441 327.006 7.04906 340.181 7.04906 355.242H12.4735ZM24.5187 319.23C32.8431 308.896 44.4735 299.259 59.506 290.356L56.7419 285.689C41.3073 294.83 29.1262 304.863 20.2944 315.827L24.5187 319.23ZM59.5194 290.348C63.8018 287.779 70.6227 284.433 80.0647 280.302L77.8904 275.333C68.4014 279.484 61.3199 282.942 56.7285 285.697L59.5194 290.348ZM80.0568 280.306C92.3754 274.963 101.965 270.249 108.769 266.167L105.979 261.515C99.4719 265.419 90.1308 270.024 77.8983 275.329L80.0568 280.306ZM108.807 266.144C115.533 261.959 120.069 257.186 120.069 251.64H114.645C114.645 254.079 112.526 257.441 105.941 261.538L108.807 266.144ZM120.069 251.64C120.069 245.723 117.565 240.913 112.722 237.453L109.569 241.867C113.008 244.323 114.645 247.499 114.645 251.64H120.069ZM112.722 237.453C107.895 234.005 100.775 232.511 91.8447 232.511L91.8447 237.935C100.367 237.935 106.113 239.399 109.569 241.867L112.722 237.453ZM91.8447 232.511C81.793 232.511 73.6912 235.067 67.9928 240.598L71.7708 244.49C76.1295 240.26 82.6697 237.935 91.8447 237.935L91.8447 232.511ZM67.964 240.626C62.525 246.065 59.8487 252.99 59.8487 261.179H65.2731C65.2731 254.282 67.4773 248.784 71.7996 244.462L67.964 240.626ZM59.8487 261.179C59.8487 263.715 60.0865 266.313 60.5555 268.971L65.8974 268.029C65.479 265.658 65.2731 263.375 65.2731 261.179H59.8487ZM63.5681 265.809C44.8692 263.435 26.6832 261.802 9.01046 260.91L8.73731 266.328C26.2643 267.212 44.3133 268.832 62.8848 271.19L63.5681 265.809ZM11.5861 263.619C11.5861 251.544 14.7032 240.746 20.9122 231.15L16.3581 228.203C9.55211 238.722 6.16167 250.552 6.16167 263.619H11.5861ZM20.9069 231.158C27.2298 221.463 36.6965 213.712 49.4745 207.969L47.2508 203.021C33.7029 209.11 23.3513 217.48 16.3634 228.195L20.9069 231.158ZM49.4642 207.974C62.3362 202.253 78.2062 199.334 97.169 199.334V193.909C77.6784 193.909 61.0107 196.906 47.2611 203.017L49.4642 207.974ZM97.169 199.334C114.54 199.334 128.799 201.745 140.049 206.445L142.14 201.44C130.023 196.378 114.997 193.909 97.169 193.909V199.334ZM140.087 206.461C151.625 211.076 159.792 216.884 164.871 223.747L169.231 220.521C163.365 212.594 154.228 206.275 142.102 201.424L140.087 206.461ZM164.908 223.796C170.232 230.662 172.769 237.561 172.769 244.54H178.193C178.193 236.138 175.11 228.1 169.194 220.472L164.908 223.796ZM172.769 244.54C172.769 252.998 170.87 260.094 167.194 265.948L171.788 268.833C176.099 261.968 178.193 253.831 178.193 244.54H172.769ZM167.17 265.987C163.563 271.952 158.242 277.377 151.106 282.23L154.156 286.716C161.809 281.512 167.728 275.548 171.812 268.794L167.17 265.987ZM151.116 282.223C144.028 286.996 134.404 292.254 122.194 297.991L124.5 302.901C136.841 297.102 146.739 291.711 154.146 286.722L151.116 282.223ZM122.134 298.02C120.585 298.795 117.893 299.775 113.924 300.951L115.465 306.152C119.483 304.962 122.56 303.872 124.56 302.872L122.134 298.02ZM114.014 300.926C110.032 301.959 107.481 302.634 106.407 302.94L107.897 308.156C108.893 307.872 111.371 307.215 115.376 306.177L114.014 300.926ZM106.383 302.948C95.8693 306.057 87.4797 308.655 81.2257 310.74L82.9411 315.886C89.1106 313.83 97.4335 311.251 107.921 308.149L106.383 302.948ZM81.2257 310.74C74.8538 312.864 68.8501 315.523 63.2187 318.719L65.8963 323.436C71.2094 320.421 76.8895 317.903 82.9411 315.886L81.2257 310.74ZM216.736 340.156L214.847 342.103L216.736 340.156ZM216.736 218.584L218.615 220.54L218.615 220.54L216.736 218.584ZM357.165 218.584L355.276 220.531L355.286 220.54L357.165 218.584ZM357.165 340.156L359.054 342.103L357.165 340.156ZM317.011 310.873L319.181 312.5L319.187 312.491L319.194 312.482L317.011 310.873ZM317.011 247.868L314.827 249.477L314.834 249.486L314.841 249.495L317.011 247.868ZM256.668 247.868L254.503 246.235L254.499 246.241L256.668 247.868ZM256.668 310.651L254.485 312.26L254.494 312.272L254.503 312.284L256.668 310.651ZM287.061 359.407C255.614 359.407 232.997 352.16 218.625 338.21L214.847 342.103C230.646 357.437 254.912 364.832 287.061 364.832V359.407ZM218.625 338.21C204.185 324.196 196.82 304.631 196.82 279.149H191.395C191.395 305.726 199.115 326.834 214.847 342.103L218.625 338.21ZM196.82 279.149C196.82 253.818 204.183 234.406 218.615 220.54L214.857 216.629C199.118 231.75 191.395 252.715 191.395 279.149H196.82ZM218.615 220.54C233.141 206.578 255.769 199.334 287.061 199.334V193.909C255.053 193.909 230.798 201.307 214.856 216.629L218.615 220.54ZM287.061 199.334C318.357 199.334 340.902 206.579 355.276 220.531L359.054 216.638C343.257 201.306 319.067 193.909 287.061 193.909V199.334ZM355.286 220.54C369.718 234.406 377.081 253.818 377.081 279.149H382.506C382.506 252.715 374.783 231.75 359.044 216.629L355.286 220.54ZM377.081 279.149C377.081 304.631 369.715 324.196 355.276 338.21L359.054 342.103C374.786 326.834 382.506 305.726 382.506 279.149H377.081ZM355.276 338.21C340.902 352.162 318.357 359.407 287.061 359.407V364.832C319.067 364.832 343.257 357.435 359.054 342.103L355.276 338.21ZM287.283 326.008C301.451 326.008 312.303 321.67 319.181 312.5L314.841 309.245C309.295 316.64 300.329 320.584 287.283 320.584V326.008ZM319.194 312.482C325.818 303.492 329.041 292.32 329.041 279.149H323.616C323.616 291.416 320.627 301.393 314.827 309.264L319.194 312.482ZM329.041 279.149C329.041 266.119 325.815 255.086 319.181 246.241L314.841 249.495C320.63 257.215 323.616 267.035 323.616 279.149H329.041ZM319.194 246.259C312.324 236.935 301.468 232.511 287.283 232.511V237.935C300.311 237.935 309.274 241.941 314.827 249.477L319.194 246.259ZM287.283 232.511C272.687 232.511 261.535 236.914 254.503 246.235L258.834 249.502C264.521 241.962 273.779 237.935 287.283 237.935V232.511ZM254.499 246.241C247.865 255.086 244.639 266.119 244.639 279.149H250.063C250.063 267.035 253.049 257.215 258.838 249.495L254.499 246.241ZM244.639 279.149C244.639 292.18 247.865 303.276 254.485 312.26L258.852 309.042C253.048 301.165 250.063 291.26 250.063 279.149H244.639ZM254.503 312.284C261.535 321.605 272.687 326.008 287.283 326.008V320.584C273.779 320.584 264.521 316.557 258.834 309.017L254.503 312.284Z" fill="#5935A4" fill-opacity="0.3"/>
<path d="M64.5575 533.787L63.2187 531.428L64.7075 536.495L64.5575 533.787ZM176.368 524.913L178.946 525.756L180.272 521.701L176.038 522.221L176.368 524.913ZM170.6 549.316L167.92 548.9L170.6 549.316ZM168.604 572.61V575.322H171.316V572.61H168.604ZM9.98312 572.61L7.27398 572.739L7.39699 575.322H9.98312L9.98312 572.61ZM9.76127 567.951H7.04906V568.016L7.05213 568.08L9.76127 567.951ZM22.4066 530.237L20.2944 528.536L20.2872 528.545L20.2801 528.554L22.4066 530.237ZM58.1239 500.732L59.506 503.065L59.5127 503.062L59.5194 503.058L58.1239 500.732ZM78.9775 490.527L77.8983 488.039L77.8904 488.042L78.9775 490.527ZM107.374 476.55L108.769 478.876L108.788 478.865L108.807 478.853L107.374 476.55ZM111.145 452.369L112.722 450.162L112.722 450.162L111.145 452.369ZM69.8818 455.253L67.9928 453.307L67.9783 453.321L67.964 453.335L69.8818 455.253ZM63.2264 481.209L62.8848 483.9L66.5372 484.364L65.8974 480.738L63.2264 481.209ZM8.87388 476.329H6.16167L6.16167 478.908L8.73731 479.037L8.87388 476.329ZM18.6352 442.386L16.3634 440.904L16.3581 440.913L18.6352 442.386ZM48.3627 418.205L47.2611 415.726L47.2508 415.731L48.3627 418.205ZM141.095 416.652L140.049 419.154L140.068 419.162L140.087 419.17L141.095 416.652ZM167.051 434.843L164.871 436.457L164.889 436.481L164.908 436.505L167.051 434.843ZM169.491 480.1L167.194 478.658L167.182 478.677L167.17 478.697L169.491 480.1ZM152.631 497.182L154.146 499.432L154.156 499.425L152.631 497.182ZM123.347 513.155L122.194 510.701L122.164 510.715L122.134 510.729L123.347 513.155ZM114.695 516.261L115.376 518.887L115.421 518.875L115.465 518.862L114.695 516.261ZM107.152 518.258L106.407 515.65L106.395 515.653L106.383 515.657L107.152 518.258ZM82.0834 526.022L81.2257 523.449L82.0834 526.022ZM64.7075 536.495C112.795 533.832 150.136 530.87 176.699 527.605L176.038 522.221C149.653 525.464 112.454 528.418 64.4075 531.079L64.7075 536.495ZM173.79 524.07C171.227 531.91 169.272 540.188 167.92 548.9L173.281 549.732C174.591 541.289 176.481 533.298 178.946 525.756L173.79 524.07ZM167.92 548.9C166.573 557.584 165.892 565.491 165.892 572.61H171.316C171.316 565.828 171.966 558.205 173.281 549.732L167.92 548.9ZM168.604 569.898H9.98312L9.98312 575.322H168.604V569.898ZM12.6923 572.481L12.4704 567.822L7.05213 568.08L7.27398 572.739L12.6923 572.481ZM12.4735 567.951C12.4735 554.025 16.5086 542.057 24.533 531.921L20.2801 528.554C11.4441 539.715 7.04906 552.89 7.04906 567.951H12.4735ZM24.5187 531.939C32.8431 521.605 44.4735 511.968 59.506 503.065L56.7419 498.398C41.3073 507.539 29.1262 517.572 20.2944 528.536L24.5187 531.939ZM59.5194 503.058C63.8018 500.488 70.6227 497.143 80.0647 493.012L77.8904 488.042C68.4014 492.193 61.3199 495.651 56.7285 498.406L59.5194 503.058ZM80.0568 493.015C92.3754 487.672 101.965 482.959 108.769 478.876L105.979 474.225C99.4719 478.129 90.1308 482.733 77.8983 488.039L80.0568 493.015ZM108.807 478.853C115.533 474.668 120.069 469.896 120.069 464.349H114.645C114.645 466.789 112.526 470.151 105.941 474.248L108.807 478.853ZM120.069 464.349C120.069 458.432 117.565 453.622 112.722 450.162L109.569 454.576C113.008 457.032 114.645 460.209 114.645 464.349H120.069ZM112.722 450.162C107.895 446.714 100.775 445.22 91.8447 445.22L91.8447 450.644C100.367 450.644 106.113 452.108 109.569 454.576L112.722 450.162ZM91.8447 445.22C81.793 445.22 73.6912 447.776 67.9928 453.307L71.7708 457.199C76.1295 452.969 82.6697 450.644 91.8447 450.644L91.8447 445.22ZM67.964 453.335C62.525 458.774 59.8487 465.7 59.8487 473.888H65.2731C65.2731 466.991 67.4773 461.493 71.7996 457.171L67.964 453.335ZM59.8487 473.888C59.8487 476.425 60.0865 479.023 60.5555 481.681L65.8974 480.738C65.479 478.367 65.2731 476.085 65.2731 473.888H59.8487ZM63.5681 478.519C44.8692 476.144 26.6832 474.511 9.01046 473.62L8.73731 479.037C26.2643 479.921 44.3133 481.542 62.8848 483.9L63.5681 478.519ZM11.5861 476.329C11.5861 464.253 14.7032 453.455 20.9122 443.859L16.3581 440.913C9.55211 451.431 6.16167 463.262 6.16167 476.329H11.5861ZM20.9069 443.868C27.2298 434.173 36.6965 426.421 49.4745 420.679L47.2508 415.731C33.7029 421.82 23.3513 430.19 16.3634 440.904L20.9069 443.868ZM49.4642 420.683C62.3362 414.962 78.2062 412.043 97.169 412.043V406.619C77.6784 406.619 61.0107 409.615 47.2611 415.726L49.4642 420.683ZM97.169 412.043C114.54 412.043 128.799 414.455 140.049 419.154L142.14 414.149C130.023 409.087 114.997 406.619 97.169 406.619V412.043ZM140.087 419.17C151.625 423.785 159.792 429.594 164.871 436.457L169.231 433.23C163.365 425.303 154.228 418.984 142.102 414.134L140.087 419.17ZM164.908 436.505C170.232 443.371 172.769 450.271 172.769 457.25H178.193C178.193 448.848 175.11 440.809 169.194 433.181L164.908 436.505ZM172.769 457.25C172.769 465.707 170.87 472.803 167.194 478.658L171.788 481.542C176.099 474.677 178.193 466.54 178.193 457.25H172.769ZM167.17 478.697C163.563 484.662 158.242 490.086 151.106 494.939L154.156 499.425C161.809 494.221 167.728 488.258 171.812 481.503L167.17 478.697ZM151.116 494.933C144.028 499.706 134.404 504.963 122.194 510.701L124.5 515.61C136.841 509.811 146.739 504.42 154.146 499.432L151.116 494.933ZM122.134 510.729C120.585 511.504 117.893 512.485 113.924 513.661L115.465 518.862C119.483 517.671 122.56 516.581 124.56 515.581L122.134 510.729ZM114.014 513.636C110.032 514.668 107.481 515.343 106.407 515.65L107.897 520.866C108.893 520.581 111.371 519.925 115.376 518.887L114.014 513.636ZM106.383 515.657C95.8693 518.767 87.4797 521.365 81.2257 523.449L82.9411 528.595C89.1106 526.539 97.4335 523.961 107.921 520.859L106.383 515.657ZM81.2257 523.449C74.8538 525.573 68.8501 528.232 63.2187 531.428L65.8963 536.146C71.2094 533.13 76.8895 530.613 82.9411 528.595L81.2257 523.449ZM249.791 533.787L248.452 531.428L249.941 536.495L249.791 533.787ZM361.602 524.913L364.18 525.756L365.506 521.701L361.271 522.221L361.602 524.913ZM355.834 549.316L353.154 548.9L355.834 549.316ZM353.837 572.61V575.322H356.55V572.61H353.837ZM195.217 572.61L192.508 572.739L192.631 575.322H195.217V572.61ZM194.995 567.951H192.283V568.016L192.286 568.08L194.995 567.951ZM207.64 530.237L205.528 528.536L205.521 528.545L205.514 528.554L207.64 530.237ZM243.358 500.732L244.74 503.065L244.746 503.062L244.753 503.058L243.358 500.732ZM264.211 490.527L263.132 488.039L263.124 488.042L264.211 490.527ZM292.608 476.55L294.003 478.876L294.022 478.865L294.04 478.853L292.608 476.55ZM296.379 452.369L297.955 450.162V450.162L296.379 452.369ZM255.115 455.253L253.226 453.307L253.212 453.321L253.198 453.335L255.115 455.253ZM248.46 481.209L248.118 483.9L251.771 484.364L251.131 480.738L248.46 481.209ZM194.107 476.329H191.395V478.908L193.971 479.037L194.107 476.329ZM203.869 442.386L201.597 440.904L201.592 440.913L203.869 442.386ZM233.596 418.205L232.495 415.726L232.484 415.731L233.596 418.205ZM326.328 416.652L325.283 419.154L325.302 419.162L325.321 419.17L326.328 416.652ZM352.284 434.843L350.104 436.457L350.122 436.481L350.141 436.505L352.284 434.843ZM354.725 480.1L352.428 478.658L352.416 478.677L352.404 478.697L354.725 480.1ZM337.864 497.182L339.379 499.432L339.389 499.425L337.864 497.182ZM308.581 513.155L307.427 510.701L307.397 510.715L307.368 510.729L308.581 513.155ZM299.929 516.261L300.609 518.887L300.654 518.875L300.699 518.862L299.929 516.261ZM292.386 518.258L291.641 515.65L291.629 515.653L291.616 515.657L292.386 518.258ZM267.317 526.022L266.459 523.449L267.317 526.022ZM249.941 536.495C298.029 533.832 335.369 530.87 361.933 527.605L361.271 522.221C334.887 525.464 297.687 528.418 249.641 531.079L249.941 536.495ZM359.024 524.07C356.461 531.91 354.506 540.188 353.154 548.9L358.514 549.732C359.824 541.289 361.714 533.298 364.18 525.756L359.024 524.07ZM353.154 548.9C351.806 557.584 351.125 565.491 351.125 572.61H356.55C356.55 565.828 357.199 558.205 358.514 549.732L353.154 548.9ZM353.837 569.898H195.217V575.322H353.837V569.898ZM197.926 572.481L197.704 567.822L192.286 568.08L192.508 572.739L197.926 572.481ZM197.707 567.951C197.707 554.025 201.742 542.057 209.767 531.921L205.514 528.554C196.678 539.715 192.283 552.89 192.283 567.951H197.707ZM209.752 531.939C218.077 521.605 229.707 511.968 244.74 503.065L241.975 498.398C226.541 507.539 214.36 517.572 205.528 528.536L209.752 531.939ZM244.753 503.058C249.035 500.488 255.856 497.143 265.298 493.012L263.124 488.042C253.635 492.193 246.554 495.651 241.962 498.406L244.753 503.058ZM265.29 493.015C277.609 487.672 287.199 482.959 294.003 478.876L291.212 474.225C284.706 478.129 275.364 482.733 263.132 488.039L265.29 493.015ZM294.04 478.853C300.767 474.668 305.303 469.896 305.303 464.349H299.879C299.879 466.789 297.759 470.151 291.175 474.248L294.04 478.853ZM305.303 464.349C305.303 458.432 302.799 453.622 297.955 450.162L294.803 454.576C298.241 457.032 299.879 460.209 299.879 464.349H305.303ZM297.955 450.162C293.129 446.714 286.008 445.22 277.078 445.22V450.644C285.6 450.644 291.347 452.108 294.803 454.576L297.955 450.162ZM277.078 445.22C267.027 445.22 258.925 447.776 253.226 453.307L257.004 457.199C261.363 452.969 267.903 450.644 277.078 450.644V445.22ZM253.198 453.335C247.759 458.774 245.082 465.7 245.082 473.888H250.507C250.507 466.991 252.711 461.493 257.033 457.171L253.198 453.335ZM245.082 473.888C245.082 476.425 245.32 479.023 245.789 481.681L251.131 480.738C250.713 478.367 250.507 476.085 250.507 473.888H245.082ZM248.802 478.519C230.103 476.144 211.917 474.511 194.244 473.62L193.971 479.037C211.498 479.921 229.547 481.542 248.118 483.9L248.802 478.519ZM196.82 476.329C196.82 464.253 199.937 453.455 206.146 443.859L201.592 440.913C194.786 451.431 191.395 463.262 191.395 476.329H196.82ZM206.141 443.868C212.463 434.173 221.93 426.421 234.708 420.679L232.484 415.731C218.937 421.82 208.585 430.19 201.597 440.904L206.141 443.868ZM234.698 420.683C247.57 414.962 263.44 412.043 282.403 412.043V406.619C262.912 406.619 246.244 409.615 232.495 415.726L234.698 420.683ZM282.403 412.043C299.774 412.043 314.032 414.455 325.283 419.154L327.374 414.149C315.256 409.087 300.231 406.619 282.403 406.619V412.043ZM325.321 419.17C336.858 423.785 345.026 429.594 350.104 436.457L354.465 433.23C348.599 425.303 339.462 418.984 327.336 414.134L325.321 419.17ZM350.141 436.505C355.466 443.371 358.002 450.271 358.002 457.25H363.427C363.427 448.848 360.343 440.809 354.428 433.181L350.141 436.505ZM358.002 457.25C358.002 465.707 356.104 472.803 352.428 478.658L357.022 481.542C361.332 474.677 363.427 466.54 363.427 457.25H358.002ZM352.404 478.697C348.797 484.662 343.476 490.086 336.339 494.939L339.389 499.425C347.042 494.221 352.962 488.258 357.046 481.503L352.404 478.697ZM336.349 494.933C329.262 499.706 319.638 504.963 307.427 510.701L309.734 515.61C322.075 509.811 331.973 504.42 339.379 499.432L336.349 494.933ZM307.368 510.729C305.818 511.504 303.127 512.485 299.158 513.661L300.699 518.862C304.717 517.671 307.793 516.581 309.794 515.581L307.368 510.729ZM299.248 513.636C295.266 514.668 292.715 515.343 291.641 515.65L293.131 520.866C294.127 520.581 296.605 519.925 300.609 518.887L299.248 513.636ZM291.616 515.657C281.103 518.767 272.713 521.365 266.459 523.449L268.175 528.595C274.344 526.539 282.667 523.961 293.155 520.859L291.616 515.657ZM266.459 523.449C260.087 525.573 254.084 528.232 248.452 531.428L251.13 536.146C256.443 533.13 262.123 530.613 268.175 528.595L266.459 523.449Z" fill="#5935A4" fill-opacity="0.3"/>
<path d="M74.5064 131.259L73.2724 129.085L74.6446 133.755L74.5064 131.259ZM177.569 123.079L179.945 123.856L181.167 120.118L177.264 120.598L177.569 123.079ZM172.252 145.573L169.782 145.19L172.252 145.573ZM170.412 167.044V169.544H172.912V167.044H170.412ZM24.202 167.044L21.7048 167.163L21.8182 169.544H24.202L24.202 167.044ZM23.9975 162.75H21.4975V162.81L21.5004 162.869L23.9975 162.75ZM35.6534 127.987L33.7065 126.419L33.6999 126.427L33.6933 126.435L35.6534 127.987ZM68.5762 100.79L69.8501 102.941L69.8563 102.937L69.8624 102.934L68.5762 100.79ZM87.7982 91.3833L86.8034 89.0898L86.7961 89.093L87.7982 91.3833ZM113.973 78.5005L115.259 80.6443L115.276 80.6339L115.294 80.6232L113.973 78.5005ZM117.449 56.2112L118.902 54.1769L117.449 56.2112ZM79.4141 58.8696L77.6729 57.0756L77.6595 57.0886L77.6464 57.1018L79.4141 58.8696ZM73.2794 82.7948L72.9645 85.2749L76.3312 85.7024L75.7414 82.3603L73.2794 82.7948ZM23.1796 78.296H20.6796V80.6732L23.0537 80.7929L23.1796 78.296ZM32.1771 47.0092L30.0831 45.6435L30.0782 45.6511L32.1771 47.0092ZM59.5787 24.7198L58.5633 22.4353L58.5538 22.4396L59.5787 24.7198ZM145.055 23.2884L144.092 25.5953L144.109 25.6026L144.127 25.6096L145.055 23.2884ZM168.98 40.0565L166.971 41.5436L166.988 41.5663L167.005 41.5886L168.98 40.0565ZM171.23 81.7724L169.113 80.4429L169.101 80.4608L169.09 80.4788L171.23 81.7724ZM155.689 97.518L157.085 99.5916L157.094 99.5853L155.689 97.518ZM128.696 112.241L127.633 109.979L127.605 109.992L127.578 110.005L128.696 112.241ZM120.721 115.104L121.348 117.524L121.39 117.513L121.431 117.501L120.721 115.104ZM113.768 116.945L113.082 114.541L113.07 114.544L113.059 114.547L113.768 116.945ZM90.661 124.102L89.8705 121.73L90.661 124.102ZM74.6446 133.755C118.97 131.3 153.389 128.57 177.874 125.561L177.264 120.598C152.944 123.587 118.655 126.31 74.3681 128.763L74.6446 133.755ZM175.193 122.302C172.83 129.529 171.028 137.159 169.782 145.19L174.723 145.956C175.93 138.173 177.673 130.808 179.945 123.856L175.193 122.302ZM169.782 145.19C168.54 153.194 167.912 160.482 167.912 167.044H172.912C172.912 160.792 173.511 153.766 174.723 145.956L169.782 145.19ZM170.412 164.544L24.202 164.544L24.202 169.544L170.412 169.544V164.544ZM26.6992 166.925L26.4947 162.631L21.5004 162.869L21.7048 167.163L26.6992 166.925ZM26.4975 162.75C26.4975 149.913 30.2169 138.882 37.6135 129.539L33.6933 126.435C25.5487 136.723 21.4975 148.867 21.4975 162.75H26.4975ZM37.6003 129.555C45.2734 120.03 55.9938 111.147 69.8501 102.941L67.3023 98.6388C53.0754 107.064 41.8473 116.313 33.7065 126.419L37.6003 129.555ZM69.8624 102.934C73.8098 100.565 80.097 97.4814 88.8002 93.6738L86.7961 89.093C78.0496 92.9196 71.5221 96.1068 67.2899 98.6461L69.8624 102.934ZM88.793 93.6769C100.148 88.7519 108.987 84.4073 115.259 80.6443L112.687 76.3568C106.689 79.9553 98.0787 84.1993 86.8034 89.0898L88.793 93.6769ZM115.294 80.6232C121.494 76.7654 125.675 72.3665 125.675 67.2536H120.675C120.675 69.5023 118.721 72.6014 112.652 76.3779L115.294 80.6232ZM125.675 67.2536C125.675 61.7996 123.367 57.3659 118.902 54.1769L115.996 58.2455C119.166 60.5095 120.675 63.4374 120.675 67.2536H125.675ZM118.902 54.1769C114.453 50.9989 107.89 49.6214 99.6586 49.6214V54.6214C107.514 54.6214 112.811 55.9704 115.996 58.2455L118.902 54.1769ZM99.6586 49.6214C90.3933 49.6214 82.9255 51.9776 77.6729 57.0756L81.1553 60.6635C85.1729 56.764 91.2014 54.6214 99.6586 54.6214V49.6214ZM77.6464 57.1018C72.6329 62.1152 70.166 68.4987 70.166 76.0467H75.166C75.166 69.6893 77.1978 64.6214 81.1819 60.6373L77.6464 57.1018ZM70.166 76.0467C70.166 78.3844 70.3852 80.7794 70.8175 83.2293L75.7414 82.3603C75.3558 80.1751 75.166 78.0713 75.166 76.0467H70.166ZM73.5944 80.3147C56.3586 78.126 39.5955 76.6205 23.3055 75.7992L23.0537 80.7929C39.2093 81.6074 55.8461 83.1011 72.9645 85.2749L73.5944 80.3147ZM25.6796 78.296C25.6796 67.1651 28.5528 57.2123 34.276 48.3673L30.0782 45.6511C23.8047 55.3464 20.6796 66.2515 20.6796 78.296H25.6796ZM34.2711 48.3749C40.0993 39.4383 48.8253 32.2937 60.6035 27.0001L58.5538 22.4396C46.0659 28.0521 36.5242 35.7671 30.0831 45.6435L34.2711 48.3749ZM60.594 27.0044C72.4589 21.7311 87.0871 19.0403 104.566 19.0403V14.0403C86.6007 14.0403 71.2371 16.8025 58.5633 22.4353L60.594 27.0044ZM104.566 19.0403C120.578 19.0403 133.721 21.2633 144.092 25.5953L146.019 20.9816C134.85 16.316 121 14.0403 104.566 14.0403V19.0403ZM144.127 25.6096C154.761 29.8634 162.29 35.2176 166.971 41.5436L170.99 38.5694C165.583 31.2629 157.161 25.4383 145.984 20.9672L144.127 25.6096ZM167.005 41.5886C171.913 47.9175 174.251 54.2769 174.251 60.71H179.251C179.251 52.9651 176.409 45.5555 170.956 38.5245L167.005 41.5886ZM174.251 60.71C174.251 68.5058 172.501 75.0467 169.113 80.4429L173.347 83.1018C177.32 76.7739 179.251 69.2732 179.251 60.71H174.251ZM169.09 80.4788C165.766 85.9771 160.861 90.9774 154.283 95.4507L157.094 99.5853C164.149 94.7885 169.605 89.2917 173.369 83.0659L169.09 80.4788ZM154.292 95.4444C147.759 99.844 138.888 104.69 127.633 109.979L129.759 114.504C141.134 109.159 150.258 104.19 157.085 99.5916L154.292 95.4444ZM127.578 110.005C126.15 110.719 123.669 111.623 120.011 112.707L121.431 117.501C125.135 116.404 127.97 115.399 129.814 114.477L127.578 110.005ZM120.094 112.684C116.423 113.636 114.072 114.258 113.082 114.541L114.455 119.348C115.373 119.086 117.657 118.481 121.348 117.524L120.094 112.684ZM113.059 114.547C103.368 117.414 95.6351 119.808 89.8705 121.73L91.4516 126.473C97.1384 124.578 104.81 122.201 114.477 119.342L113.059 114.547ZM89.8705 121.73C83.9971 123.688 78.4631 126.138 73.2724 129.085L75.7404 133.433C80.6378 130.653 85.8735 128.333 91.4516 126.473L89.8705 121.73ZM245.247 131.259L244.013 129.085L245.385 133.755L245.247 131.259ZM348.309 123.079L350.686 123.856L351.908 120.118L348.005 120.598L348.309 123.079ZM342.993 145.573L340.522 145.19L342.993 145.573ZM341.152 167.044V169.544H343.652V167.044H341.152ZM194.943 167.044L192.445 167.163L192.559 169.544H194.943V167.044ZM194.738 162.75H192.238V162.81L192.241 162.869L194.738 162.75ZM206.394 127.987L204.447 126.419L204.44 126.427L204.434 126.435L206.394 127.987ZM239.317 100.79L240.591 102.941L240.597 102.937L240.603 102.934L239.317 100.79ZM258.539 91.3833L257.544 89.0898L257.537 89.093L258.539 91.3833ZM284.713 78.5005L286 80.6443L286.017 80.6339L286.034 80.6232L284.713 78.5005ZM288.19 56.2112L289.643 54.1769L288.19 56.2112ZM250.155 58.8696L248.413 57.0756L248.4 57.0886L248.387 57.1018L250.155 58.8696ZM244.02 82.7948L243.705 85.2749L247.072 85.7024L246.482 82.3603L244.02 82.7948ZM193.92 78.296H191.42V80.6732L193.794 80.7929L193.92 78.296ZM202.918 47.0092L200.824 45.6435L200.819 45.6511L202.918 47.0092ZM230.319 24.7198L229.304 22.4353L229.294 22.4396L230.319 24.7198ZM315.796 23.2884L314.832 25.5953L314.85 25.6026L314.867 25.6096L315.796 23.2884ZM339.721 40.0565L337.711 41.5436L337.728 41.5663L337.745 41.5886L339.721 40.0565ZM341.97 81.7724L339.853 80.4429L339.842 80.4608L339.831 80.4788L341.97 81.7724ZM326.429 97.518L327.826 99.5916L327.835 99.5853L326.429 97.518ZM299.437 112.241L298.373 109.979L298.346 109.992L298.319 110.005L299.437 112.241ZM291.461 115.104L292.089 117.524L292.13 117.513L292.172 117.501L291.461 115.104ZM284.509 116.945L283.822 114.541L283.811 114.544L283.8 114.547L284.509 116.945ZM261.402 124.102L260.611 121.73L261.402 124.102ZM245.385 133.755C289.71 131.3 324.129 128.57 348.614 125.561L348.005 120.598C323.685 123.587 289.396 126.31 245.109 128.763L245.385 133.755ZM345.933 122.302C343.571 129.529 341.768 137.159 340.522 145.19L345.463 145.956C346.671 138.173 348.413 130.808 350.686 123.856L345.933 122.302ZM340.522 145.19C339.28 153.194 338.652 160.482 338.652 167.044H343.652C343.652 160.792 344.251 153.766 345.463 145.956L340.522 145.19ZM341.152 164.544L194.943 164.544V169.544L341.152 169.544V164.544ZM197.44 166.925L197.235 162.631L192.241 162.869L192.445 167.163L197.44 166.925ZM197.238 162.75C197.238 149.913 200.957 138.882 208.354 129.539L204.434 126.435C196.289 136.723 192.238 148.867 192.238 162.75H197.238ZM208.341 129.555C216.014 120.03 226.734 111.147 240.591 102.941L238.043 98.6388C223.816 107.064 212.588 116.313 204.447 126.419L208.341 129.555ZM240.603 102.934C244.55 100.565 250.838 97.4814 259.541 93.6738L257.537 89.093C248.79 92.9196 242.263 96.1068 238.03 98.6461L240.603 102.934ZM259.533 93.6769C270.888 88.7519 279.728 84.4073 286 80.6443L283.427 76.3568C277.43 79.9553 268.819 84.1993 257.544 89.0898L259.533 93.6769ZM286.034 80.6232C292.234 76.7654 296.415 72.3665 296.415 67.2536H291.415C291.415 69.5023 289.462 72.6014 283.393 76.3779L286.034 80.6232ZM296.415 67.2536C296.415 61.7996 294.107 57.3659 289.643 54.1769L286.737 58.2455C289.906 60.5095 291.415 63.4374 291.415 67.2536H296.415ZM289.643 54.1769C285.194 50.9989 278.63 49.6214 270.399 49.6214V54.6214C278.254 54.6214 283.551 55.9704 286.737 58.2455L289.643 54.1769ZM270.399 49.6214C261.134 49.6214 253.666 51.9776 248.413 57.0756L251.896 60.6635C255.913 56.764 261.942 54.6214 270.399 54.6214V49.6214ZM248.387 57.1018C243.373 62.1152 240.906 68.4987 240.906 76.0467H245.906C245.906 69.6893 247.938 64.6214 251.922 60.6373L248.387 57.1018ZM240.906 76.0467C240.906 78.3844 241.126 80.7794 241.558 83.2293L246.482 82.3603C246.096 80.1751 245.906 78.0713 245.906 76.0467H240.906ZM244.335 80.3147C227.099 78.126 210.336 76.6205 194.046 75.7992L193.794 80.7929C209.95 81.6074 226.587 83.1011 243.705 85.2749L244.335 80.3147ZM196.42 78.296C196.42 67.1651 199.293 57.2123 205.017 48.3673L200.819 45.6511C194.545 55.3464 191.42 66.2515 191.42 78.296H196.42ZM205.012 48.3749C210.84 39.4383 219.566 32.2937 231.344 27.0001L229.294 22.4396C216.806 28.0521 207.265 35.7671 200.824 45.6435L205.012 48.3749ZM231.335 27.0044C243.199 21.7311 257.828 19.0403 275.307 19.0403V14.0403C257.341 14.0403 241.978 16.8025 229.304 22.4353L231.335 27.0044ZM275.307 19.0403C291.319 19.0403 304.462 21.2633 314.832 25.5953L316.759 20.9816C305.59 16.316 291.74 14.0403 275.307 14.0403V19.0403ZM314.867 25.6096C325.502 29.8634 333.03 35.2176 337.711 41.5436L341.731 38.5694C336.324 31.2629 327.902 25.4383 316.724 20.9672L314.867 25.6096ZM337.745 41.5886C342.654 47.9175 344.992 54.2769 344.992 60.71H349.992C349.992 52.9651 347.149 45.5555 341.696 38.5245L337.745 41.5886ZM344.992 60.71C344.992 68.5058 343.241 75.0467 339.853 80.4429L344.088 83.1018C348.061 76.7739 349.992 69.2732 349.992 60.71H344.992ZM339.831 80.4788C336.506 85.9771 331.602 90.9774 325.023 95.4507L327.835 99.5853C334.889 94.7885 340.345 89.2917 344.11 83.0659L339.831 80.4788ZM325.033 95.4444C318.5 99.844 309.628 104.69 298.373 109.979L300.5 114.504C311.875 109.159 320.998 104.19 327.826 99.5916L325.033 95.4444ZM298.319 110.005C296.89 110.719 294.41 111.623 290.751 112.707L292.172 117.501C295.875 116.404 298.711 115.399 300.555 114.477L298.319 110.005ZM290.834 112.684C287.163 113.636 284.812 114.258 283.822 114.541L285.196 119.348C286.114 119.086 288.398 118.481 292.089 117.524L290.834 112.684ZM283.8 114.547C274.109 117.414 266.376 119.808 260.611 121.73L262.192 126.473C267.879 124.578 275.551 122.201 285.218 119.342L283.8 114.547ZM260.611 121.73C254.738 123.688 249.204 126.138 244.013 129.085L246.481 133.433C251.378 130.653 256.614 128.333 262.192 126.473L260.611 121.73Z" fill="#5935A4" fill-opacity="0.1"/>
<path d="M74.5064 928.679L73.2724 926.505L74.6446 931.175L74.5064 928.679ZM177.569 920.499L179.945 921.276L181.167 917.538L177.264 918.018L177.569 920.499ZM172.252 942.993L169.782 942.61L172.252 942.993ZM170.412 964.464V966.964H172.912V964.464H170.412ZM24.202 964.464L21.7048 964.583L21.8182 966.964H24.202L24.202 964.464ZM23.9975 960.17H21.4975V960.23L21.5004 960.289L23.9975 960.17ZM35.6534 925.407L33.7065 923.839L33.6999 923.847L33.6933 923.855L35.6534 925.407ZM68.5762 898.21L69.8501 900.361L69.8563 900.357L69.8624 900.354L68.5762 898.21ZM87.7982 888.803L86.8034 886.51L86.7961 886.513L87.7982 888.803ZM113.973 875.921L115.259 878.064L115.276 878.054L115.294 878.043L113.973 875.921ZM117.449 853.631L118.902 851.597L117.449 853.631ZM79.4141 856.29L77.6729 854.496L77.6595 854.509L77.6464 854.522L79.4141 856.29ZM73.2794 880.215L72.9645 882.695L76.3312 883.122L75.7414 879.78L73.2794 880.215ZM23.1796 875.716H20.6796V878.093L23.0537 878.213L23.1796 875.716ZM32.1771 844.429L30.0831 843.063L30.0782 843.071L32.1771 844.429ZM59.5787 822.14L58.5633 819.855L58.5538 819.86L59.5787 822.14ZM145.055 820.708L144.092 823.015L144.109 823.023L144.127 823.03L145.055 820.708ZM168.98 837.477L166.971 838.964L166.988 838.986L167.005 839.009L168.98 837.477ZM171.23 879.192L169.113 877.863L169.101 877.881L169.09 877.899L171.23 879.192ZM155.689 894.938L157.085 897.012L157.094 897.005L155.689 894.938ZM128.696 909.661L127.633 907.399L127.605 907.412L127.578 907.425L128.696 909.661ZM120.721 912.524L121.348 914.944L121.39 914.933L121.431 914.921L120.721 912.524ZM113.768 914.364L113.082 911.961L113.07 911.964L113.059 911.967L113.768 914.364ZM90.661 921.522L89.8705 919.15L90.661 921.522ZM74.6446 931.175C118.97 928.72 153.389 925.99 177.874 922.98L177.264 918.018C152.944 921.007 118.655 923.73 74.3681 926.183L74.6446 931.175ZM175.193 919.722C172.83 926.949 171.028 934.579 169.782 942.61L174.723 943.376C175.93 935.593 177.673 928.228 179.945 921.276L175.193 919.722ZM169.782 942.61C168.54 950.614 167.912 957.902 167.912 964.464H172.912C172.912 958.212 173.511 951.186 174.723 943.376L169.782 942.61ZM170.412 961.964H24.202L24.202 966.964H170.412V961.964ZM26.6992 964.345L26.4947 960.051L21.5004 960.289L21.7048 964.583L26.6992 964.345ZM26.4975 960.17C26.4975 947.333 30.2169 936.302 37.6135 926.959L33.6933 923.855C25.5487 934.143 21.4975 946.287 21.4975 960.17H26.4975ZM37.6003 926.975C45.2734 917.45 55.9938 908.567 69.8501 900.361L67.3023 896.059C53.0754 904.484 41.8473 913.733 33.7065 923.839L37.6003 926.975ZM69.8624 900.354C73.8098 897.985 80.097 894.901 88.8002 891.094L86.7961 886.513C78.0496 890.34 71.5221 893.527 67.2899 896.066L69.8624 900.354ZM88.793 891.097C100.148 886.172 108.987 881.827 115.259 878.064L112.687 873.777C106.689 877.375 98.0787 881.619 86.8034 886.51L88.793 891.097ZM115.294 878.043C121.494 874.185 125.675 869.786 125.675 864.674H120.675C120.675 866.922 118.721 870.021 112.652 873.798L115.294 878.043ZM125.675 864.674C125.675 859.22 123.367 854.786 118.902 851.597L115.996 855.666C119.166 857.929 120.675 860.857 120.675 864.674H125.675ZM118.902 851.597C114.453 848.419 107.89 847.041 99.6586 847.041V852.041C107.514 852.041 112.811 853.39 115.996 855.666L118.902 851.597ZM99.6586 847.041C90.3933 847.041 82.9255 849.398 77.6729 854.496L81.1553 858.083C85.1729 854.184 91.2014 852.041 99.6586 852.041V847.041ZM77.6464 854.522C72.6329 859.535 70.166 865.919 70.166 873.467H75.166C75.166 867.109 77.1978 862.041 81.1819 858.057L77.6464 854.522ZM70.166 873.467C70.166 875.804 70.3852 878.199 70.8175 880.649L75.7414 879.78C75.3558 877.595 75.166 875.491 75.166 873.467H70.166ZM73.5944 877.735C56.3586 875.546 39.5955 874.041 23.3055 873.219L23.0537 878.213C39.2093 879.027 55.8461 880.521 72.9645 882.695L73.5944 877.735ZM25.6796 875.716C25.6796 864.585 28.5528 854.632 34.276 845.787L30.0782 843.071C23.8047 852.766 20.6796 863.671 20.6796 875.716H25.6796ZM34.2711 845.795C40.0993 836.858 48.8253 829.714 60.6035 824.42L58.5538 819.86C46.0659 825.472 36.5242 833.187 30.0831 843.063L34.2711 845.795ZM60.594 824.424C72.4589 819.151 87.0871 816.46 104.566 816.46V811.46C86.6007 811.46 71.2371 814.222 58.5633 819.855L60.594 824.424ZM104.566 816.46C120.578 816.46 133.721 818.683 144.092 823.015L146.019 818.402C134.85 813.736 121 811.46 104.566 811.46V816.46ZM144.127 823.03C154.761 827.283 162.29 832.638 166.971 838.964L170.99 835.989C165.583 828.683 157.161 822.858 145.984 818.387L144.127 823.03ZM167.005 839.009C171.913 845.338 174.251 851.697 174.251 858.13H179.251C179.251 850.385 176.409 842.976 170.956 835.944L167.005 839.009ZM174.251 858.13C174.251 865.926 172.501 872.467 169.113 877.863L173.347 880.522C177.32 874.194 179.251 866.693 179.251 858.13H174.251ZM169.09 877.899C165.766 883.397 160.861 888.397 154.283 892.871L157.094 897.005C164.149 892.208 169.605 886.712 173.369 880.486L169.09 877.899ZM154.292 892.864C147.759 897.264 138.888 902.11 127.633 907.399L129.759 911.924C141.134 906.579 150.258 901.61 157.085 897.012L154.292 892.864ZM127.578 907.425C126.15 908.139 123.669 909.043 120.011 910.127L121.431 914.921C125.135 913.824 127.97 912.819 129.814 911.897L127.578 907.425ZM120.094 910.104C116.423 911.056 114.072 911.678 113.082 911.961L114.455 916.768C115.373 916.506 117.657 915.901 121.348 914.944L120.094 910.104ZM113.059 911.967C103.368 914.834 95.6351 917.228 89.8705 919.15L91.4516 923.893C97.1384 921.998 104.81 919.621 114.477 916.762L113.059 911.967ZM89.8705 919.15C83.9971 921.108 78.4631 923.558 73.2724 926.505L75.7404 930.853C80.6378 928.073 85.8735 925.753 91.4516 923.893L89.8705 919.15ZM245.247 928.679L244.013 926.505L245.385 931.175L245.247 928.679ZM348.309 920.499L350.686 921.276L351.908 917.538L348.005 918.018L348.309 920.499ZM342.993 942.993L340.522 942.61L342.993 942.993ZM341.152 964.464V966.964H343.652V964.464H341.152ZM194.943 964.464L192.445 964.583L192.559 966.964H194.943V964.464ZM194.738 960.17H192.238V960.23L192.241 960.289L194.738 960.17ZM206.394 925.407L204.447 923.839L204.44 923.847L204.434 923.855L206.394 925.407ZM239.317 898.21L240.591 900.361L240.597 900.357L240.603 900.354L239.317 898.21ZM258.539 888.803L257.544 886.51L257.537 886.513L258.539 888.803ZM284.713 875.921L286 878.064L286.017 878.054L286.034 878.043L284.713 875.921ZM288.19 853.631L289.643 851.597L288.19 853.631ZM250.155 856.29L248.413 854.496L248.4 854.509L248.387 854.522L250.155 856.29ZM244.02 880.215L243.705 882.695L247.072 883.122L246.482 879.78L244.02 880.215ZM193.92 875.716H191.42V878.093L193.794 878.213L193.92 875.716ZM202.918 844.429L200.824 843.063L200.819 843.071L202.918 844.429ZM230.319 822.14L229.304 819.855L229.294 819.86L230.319 822.14ZM315.796 820.708L314.832 823.015L314.85 823.023L314.867 823.03L315.796 820.708ZM339.721 837.477L337.711 838.964L337.728 838.986L337.745 839.009L339.721 837.477ZM341.97 879.192L339.853 877.863L339.842 877.881L339.831 877.899L341.97 879.192ZM326.429 894.938L327.826 897.012L327.835 897.005L326.429 894.938ZM299.437 909.661L298.373 907.399L298.346 907.412L298.319 907.425L299.437 909.661ZM291.461 912.524L292.089 914.944L292.13 914.933L292.172 914.921L291.461 912.524ZM284.509 914.364L283.822 911.961L283.811 911.964L283.8 911.967L284.509 914.364ZM261.402 921.522L260.611 919.15L261.402 921.522ZM245.385 931.175C289.71 928.72 324.129 925.99 348.614 922.98L348.005 918.018C323.685 921.007 289.396 923.73 245.109 926.183L245.385 931.175ZM345.933 919.722C343.571 926.949 341.768 934.579 340.522 942.61L345.463 943.376C346.671 935.593 348.413 928.228 350.686 921.276L345.933 919.722ZM340.522 942.61C339.28 950.614 338.652 957.902 338.652 964.464H343.652C343.652 958.212 344.251 951.186 345.463 943.376L340.522 942.61ZM341.152 961.964H194.943V966.964H341.152V961.964ZM197.44 964.345L197.235 960.051L192.241 960.289L192.445 964.583L197.44 964.345ZM197.238 960.17C197.238 947.333 200.957 936.302 208.354 926.959L204.434 923.855C196.289 934.143 192.238 946.287 192.238 960.17H197.238ZM208.341 926.975C216.014 917.45 226.734 908.567 240.591 900.361L238.043 896.059C223.816 904.484 212.588 913.733 204.447 923.839L208.341 926.975ZM240.603 900.354C244.55 897.985 250.838 894.901 259.541 891.094L257.537 886.513C248.79 890.34 242.263 893.527 238.03 896.066L240.603 900.354ZM259.533 891.097C270.888 886.172 279.728 881.827 286 878.064L283.427 873.777C277.43 877.375 268.819 881.619 257.544 886.51L259.533 891.097ZM286.034 878.043C292.234 874.185 296.415 869.786 296.415 864.674H291.415C291.415 866.922 289.462 870.021 283.393 873.798L286.034 878.043ZM296.415 864.674C296.415 859.22 294.107 854.786 289.643 851.597L286.737 855.666C289.906 857.929 291.415 860.857 291.415 864.674H296.415ZM289.643 851.597C285.194 848.419 278.63 847.041 270.399 847.041V852.041C278.254 852.041 283.551 853.39 286.737 855.666L289.643 851.597ZM270.399 847.041C261.134 847.041 253.666 849.398 248.413 854.496L251.896 858.083C255.913 854.184 261.942 852.041 270.399 852.041V847.041ZM248.387 854.522C243.373 859.535 240.906 865.919 240.906 873.467H245.906C245.906 867.109 247.938 862.041 251.922 858.057L248.387 854.522ZM240.906 873.467C240.906 875.804 241.126 878.199 241.558 880.649L246.482 879.78C246.096 877.595 245.906 875.491 245.906 873.467H240.906ZM244.335 877.735C227.099 875.546 210.336 874.041 194.046 873.219L193.794 878.213C209.95 879.027 226.587 880.521 243.705 882.695L244.335 877.735ZM196.42 875.716C196.42 864.585 199.293 854.632 205.017 845.787L200.819 843.071C194.545 852.766 191.42 863.671 191.42 875.716H196.42ZM205.012 845.795C210.84 836.858 219.566 829.714 231.344 824.42L229.294 819.86C216.806 825.472 207.265 833.187 200.824 843.063L205.012 845.795ZM231.335 824.424C243.199 819.151 257.828 816.46 275.307 816.46V811.46C257.341 811.46 241.978 814.222 229.304 819.855L231.335 824.424ZM275.307 816.46C291.319 816.46 304.462 818.683 314.832 823.015L316.759 818.402C305.59 813.736 291.74 811.46 275.307 811.46V816.46ZM314.867 823.03C325.502 827.283 333.03 832.638 337.711 838.964L341.731 835.989C336.324 828.683 327.902 822.858 316.724 818.387L314.867 823.03ZM337.745 839.009C342.654 845.338 344.992 851.697 344.992 858.13H349.992C349.992 850.385 347.149 842.976 341.696 835.944L337.745 839.009ZM344.992 858.13C344.992 865.926 343.241 872.467 339.853 877.863L344.088 880.522C348.061 874.194 349.992 866.693 349.992 858.13H344.992ZM339.831 877.899C336.506 883.397 331.602 888.397 325.023 892.871L327.835 897.005C334.889 892.208 340.345 886.712 344.11 880.486L339.831 877.899ZM325.033 892.864C318.5 897.264 309.628 902.11 298.373 907.399L300.5 911.924C311.875 906.579 320.998 901.61 327.826 897.012L325.033 892.864ZM298.319 907.425C296.89 908.139 294.41 909.043 290.751 910.127L292.172 914.921C295.875 913.824 298.711 912.819 300.555 911.897L298.319 907.425ZM290.834 910.104C287.163 911.056 284.812 911.678 283.822 911.961L285.196 916.768C286.114 916.506 288.398 915.901 292.089 914.944L290.834 910.104ZM283.8 911.967C274.109 914.834 266.376 917.228 260.611 919.15L262.192 923.893C267.879 921.998 275.551 919.621 285.218 916.762L283.8 911.967ZM260.611 919.15C254.738 921.108 249.204 923.558 244.013 926.505L246.481 930.853C251.378 928.073 256.614 925.753 262.192 923.893L260.611 919.15Z" fill="#5935A4" fill-opacity="0.1"/>
</svg>
