<svg width="1192" height="741" viewBox="0 0 1192 741" fill="none" xmlns="http://www.w3.org/2000/svg">
<path d="M41.3396 287.324V264.881H46.3407V287.324H41.3396ZM54.8486 287.324L48.3228 277.749H53.8118L60.6426 287.324H54.8486ZM44.9989 280.189V276.255H50.4879C51.2198 276.255 51.85 276.113 52.3786 275.828C52.9275 275.523 53.3442 275.106 53.6288 274.578C53.9338 274.029 54.0863 273.399 54.0863 272.687C54.0863 271.976 53.9338 271.356 53.6288 270.827C53.3442 270.278 52.9275 269.861 52.3786 269.577C51.85 269.272 51.2198 269.119 50.4879 269.119H44.9989V264.881H50.0915C51.9415 264.881 53.5475 265.165 54.9096 265.734C56.2717 266.283 57.3187 267.107 58.0505 268.204C58.7824 269.302 59.1483 270.685 59.1483 272.352V272.84C59.1483 274.486 58.7722 275.859 58.02 276.956C57.2882 278.034 56.2412 278.847 54.8791 279.396C53.5374 279.924 51.9415 280.189 50.0915 280.189H44.9989ZM70.6967 287.904C69.2736 287.904 68.0132 287.66 66.9154 287.172C65.8379 286.684 64.9332 286.034 64.2013 285.22C63.4898 284.387 62.9409 283.462 62.5547 282.445C62.1887 281.409 62.0058 280.351 62.0058 279.274V278.664C62.0058 277.546 62.1887 276.479 62.5547 275.462C62.9409 274.425 63.4898 273.5 64.2013 272.687C64.9129 271.874 65.7972 271.234 66.8544 270.766C67.9318 270.278 69.1516 270.034 70.5137 270.034C72.3027 270.034 73.8071 270.441 75.0269 271.254C76.267 272.047 77.2123 273.094 77.8628 274.395C78.5134 275.676 78.8387 277.078 78.8387 278.603V280.25H64.0489V277.475H75.8807L74.295 278.756C74.295 277.759 74.1527 276.906 73.8681 276.194C73.5835 275.482 73.1565 274.944 72.5873 274.578C72.0384 274.192 71.3472 273.998 70.5137 273.998C69.6598 273.998 68.9381 274.192 68.3486 274.578C67.759 274.964 67.3118 275.533 67.0068 276.285C66.7019 277.017 66.5494 277.922 66.5494 278.999C66.5494 279.996 66.6917 280.87 66.9763 281.622C67.261 282.354 67.7082 282.923 68.3181 283.33C68.928 283.736 69.7208 283.94 70.6967 283.94C71.5912 283.94 72.323 283.767 72.8923 283.421C73.4615 283.076 73.8477 282.649 74.051 282.14H78.5337C78.2898 283.259 77.812 284.255 77.1005 285.129C76.389 286.003 75.4944 286.684 74.417 287.172C73.3395 287.66 72.0994 287.904 70.6967 287.904ZM85.1553 287.324L80.1542 270.614H85.1858L89.8819 287.324H85.1553ZM86.68 287.324V283.269H91.5896V287.324H86.68ZM88.4792 287.324L92.5349 270.614H97.2311L92.9009 287.324H88.4792ZM100.911 287.324V270.614H105.79V287.324H100.911ZM98.6851 274.212V270.614H105.79V274.212H98.6851ZM102.802 268.967C101.887 268.967 101.206 268.733 100.759 268.265C100.332 267.778 100.118 267.168 100.118 266.436C100.118 265.684 100.332 265.074 100.759 264.606C101.206 264.118 101.887 263.874 102.802 263.874C103.717 263.874 104.388 264.118 104.814 264.606C105.262 265.074 105.485 265.684 105.485 266.436C105.485 267.168 105.262 267.778 104.814 268.265C104.388 268.733 103.717 268.967 102.802 268.967ZM117.957 287.904C116.534 287.904 115.274 287.66 114.176 287.172C113.098 286.684 112.194 286.034 111.462 285.22C110.75 284.387 110.201 283.462 109.815 282.445C109.449 281.409 109.266 280.351 109.266 279.274V278.664C109.266 277.546 109.449 276.479 109.815 275.462C110.201 274.425 110.75 273.5 111.462 272.687C112.173 271.874 113.058 271.234 114.115 270.766C115.192 270.278 116.412 270.034 117.774 270.034C119.563 270.034 121.067 270.441 122.287 271.254C123.527 272.047 124.473 273.094 125.123 274.395C125.774 275.676 126.099 277.078 126.099 278.603V280.25H111.309V277.475H123.141L121.555 278.756C121.555 277.759 121.413 276.906 121.128 276.194C120.844 275.482 120.417 274.944 119.848 274.578C119.299 274.192 118.608 273.998 117.774 273.998C116.92 273.998 116.199 274.192 115.609 274.578C115.019 274.964 114.572 275.533 114.267 276.285C113.962 277.017 113.81 277.922 113.81 278.999C113.81 279.996 113.952 280.87 114.237 281.622C114.521 282.354 114.969 282.923 115.578 283.33C116.188 283.736 116.981 283.94 117.957 283.94C118.852 283.94 119.583 283.767 120.153 283.421C120.722 283.076 121.108 282.649 121.311 282.14H125.794C125.55 283.259 125.072 284.255 124.361 285.129C123.649 286.003 122.755 286.684 121.677 287.172C120.6 287.66 119.36 287.904 117.957 287.904ZM135.313 287.324L138.362 271.162H143.699L147.236 287.324H143.455L139.826 271.284H141.991L138.728 287.324H135.313ZM134.154 287.324L134.123 283.269H137.478L137.508 287.324H134.154ZM131.958 287.324L127.476 270.614H132.263L136.441 287.324H131.958ZM144.705 287.324L144.735 283.269H148.09V287.324H144.705ZM146.077 287.324L149.797 270.614H154.28L150.255 287.324H146.077ZM163.302 287.324V282.75C163.302 281.795 163.454 280.961 163.759 280.25C164.084 279.538 164.592 278.908 165.284 278.359C165.975 277.79 166.89 277.261 168.028 276.773L171.627 275.218C172.541 274.832 173.212 274.354 173.639 273.785C174.086 273.216 174.31 272.494 174.31 271.62C174.31 270.725 174.036 269.993 173.487 269.424C172.938 268.855 172.135 268.57 171.078 268.57C170.02 268.57 169.217 268.865 168.669 269.455C168.12 270.044 167.845 270.837 167.845 271.833H162.997C162.997 270.431 163.302 269.17 163.911 268.052C164.521 266.914 165.426 266.019 166.625 265.368C167.825 264.718 169.309 264.393 171.078 264.393C172.846 264.393 174.32 264.708 175.499 265.338C176.699 265.968 177.603 266.812 178.213 267.869C178.844 268.926 179.159 270.115 179.159 271.437V271.803C179.159 273.51 178.691 274.923 177.756 276.042C176.821 277.139 175.377 278.115 173.426 278.969L169.858 280.524C169.248 280.788 168.811 281.063 168.547 281.348C168.303 281.632 168.181 282.018 168.181 282.506V284.031L166.991 283.025H179.189V287.324H163.302Z" fill="#5B5752"/>
<path d="M51.6772 330.581C50.1231 330.581 48.804 330.328 47.7197 329.822C46.6355 329.298 45.75 328.593 45.0633 327.708C44.3766 326.804 43.8706 325.774 43.5454 324.618C43.2382 323.443 43.0846 322.214 43.0846 320.931V319.413C43.0846 317.588 43.3918 315.944 44.0062 314.48C44.6206 313.016 45.5603 311.86 46.8252 311.011C48.0902 310.143 49.7075 309.709 51.6772 309.709C53.6288 309.709 55.2371 310.143 56.5021 311.011C57.7671 311.86 58.6977 313.016 59.294 314.48C59.9084 315.944 60.2156 317.588 60.2156 319.413V320.931C60.2156 322.214 60.053 323.443 59.7277 324.618C59.4205 325.774 58.9236 326.804 58.2369 327.708C57.5683 328.593 56.6918 329.298 55.6076 329.822C54.5234 330.328 53.2132 330.581 51.6772 330.581ZM51.6772 327.057C53.2855 327.057 54.4691 326.506 55.2281 325.404C55.9871 324.284 56.3666 322.549 56.3666 320.2C56.3666 317.706 55.978 315.926 55.201 314.86C54.424 313.775 53.2494 313.233 51.6772 313.233C50.087 313.233 48.8943 313.775 48.0992 314.86C47.3222 315.926 46.9336 317.688 46.9336 320.145C46.9336 322.513 47.3222 324.256 48.0992 325.377C48.8762 326.497 50.0689 327.057 51.6772 327.057ZM70.1869 330.581C68.6689 330.581 67.3588 330.292 66.2565 329.714C65.1723 329.136 64.341 328.368 63.7627 327.41C63.1845 326.434 62.8953 325.35 62.8953 324.157H66.6089C66.6089 325.115 66.9251 325.892 67.5576 326.488C68.2081 327.066 69.0846 327.356 70.1869 327.356C70.9278 327.356 71.5603 327.22 72.0843 326.949C72.6264 326.66 73.0421 326.271 73.3312 325.783C73.6203 325.277 73.7649 324.699 73.7649 324.049C73.7649 323.073 73.4487 322.278 72.8162 321.663C72.1837 321.031 71.3163 320.715 70.214 320.715C69.6719 320.715 69.193 320.787 68.7774 320.931C68.3798 321.076 68.0274 321.266 67.7202 321.501L65.9583 318.465L72.4638 314.019L72.2199 313.559H63.7085V310.279H76.6382V314.236L69.9429 318.682L67.8558 318.302C68.1991 318.194 68.5696 318.112 68.9671 318.058C69.3647 317.986 69.7984 317.95 70.2682 317.95C71.7681 317.95 73.0511 318.212 74.1173 318.736C75.2015 319.242 76.0328 319.947 76.611 320.85C77.1893 321.754 77.4784 322.793 77.4784 323.967V324.32C77.4784 325.458 77.1893 326.506 76.611 327.464C76.0328 328.404 75.2015 329.163 74.1173 329.741C73.033 330.301 71.7229 330.581 70.1869 330.581ZM80.4053 330.066V325.729H84.6338V330.066H80.4053ZM80.4053 320.715V316.378H84.6338V320.715H80.4053ZM96.4129 330.581C94.8588 330.581 93.5397 330.328 92.4554 329.822C91.3712 329.298 90.4857 328.593 89.799 327.708C89.1123 326.804 88.6064 325.774 88.2811 324.618C87.9739 323.443 87.8203 322.214 87.8203 320.931V319.413C87.8203 317.588 88.1275 315.944 88.7419 314.48C89.3563 313.016 90.296 311.86 91.5609 311.011C92.8259 310.143 94.4432 309.709 96.4129 309.709C98.3646 309.709 99.9729 310.143 101.238 311.011C102.503 311.86 103.433 313.016 104.03 314.48C104.644 315.944 104.951 317.588 104.951 319.413V320.931C104.951 322.214 104.789 323.443 104.463 324.618C104.156 325.774 103.659 326.804 102.973 327.708C102.304 328.593 101.428 329.298 100.343 329.822C99.2591 330.328 97.949 330.581 96.4129 330.581ZM96.4129 327.057C98.0212 327.057 99.2049 326.506 99.9638 325.404C100.723 324.284 101.102 322.549 101.102 320.2C101.102 317.706 100.714 315.926 99.9367 314.86C99.1597 313.775 97.9851 313.233 96.4129 313.233C94.8227 313.233 93.63 313.775 92.8349 314.86C92.0579 315.926 91.6694 317.688 91.6694 320.145C91.6694 322.513 92.0579 324.256 92.8349 325.377C93.612 326.497 94.8046 327.057 96.4129 327.057ZM116.901 330.581C115.347 330.581 114.028 330.328 112.944 329.822C111.86 329.298 110.974 328.593 110.287 327.708C109.601 326.804 109.095 325.774 108.77 324.618C108.462 323.443 108.309 322.214 108.309 320.931V319.413C108.309 317.588 108.616 315.944 109.23 314.48C109.845 313.016 110.784 311.86 112.049 311.011C113.314 310.143 114.932 309.709 116.901 309.709C118.853 309.709 120.461 310.143 121.726 311.011C122.991 311.86 123.922 313.016 124.518 314.48C125.133 315.944 125.44 317.588 125.44 319.413V320.931C125.44 322.214 125.277 323.443 124.952 324.618C124.645 325.774 124.148 326.804 123.461 327.708C122.792 328.593 121.916 329.298 120.832 329.822C119.748 330.328 118.437 330.581 116.901 330.581ZM116.901 327.057C118.51 327.057 119.693 326.506 120.452 325.404C121.211 324.284 121.591 322.549 121.591 320.2C121.591 317.706 121.202 315.926 120.425 314.86C119.648 313.775 118.474 313.233 116.901 313.233C115.311 313.233 114.118 313.775 113.323 314.86C112.546 315.926 112.158 317.688 112.158 320.145C112.158 322.513 112.546 324.256 113.323 325.377C114.1 326.497 115.293 327.057 116.901 327.057ZM138.713 323.994V320.66H142.562C143.339 320.66 143.99 320.507 144.514 320.2C145.056 319.892 145.463 319.468 145.734 318.926C146.023 318.383 146.167 317.76 146.167 317.055C146.167 316.35 146.023 315.727 145.734 315.185C145.463 314.643 145.056 314.227 144.514 313.938C143.99 313.631 143.339 313.477 142.562 313.477H138.713V310.143H142.237C143.899 310.143 145.309 310.414 146.465 310.956C147.64 311.498 148.535 312.275 149.149 313.287C149.763 314.281 150.071 315.465 150.071 316.838V317.272C150.071 318.645 149.763 319.838 149.149 320.85C148.535 321.844 147.64 322.621 146.465 323.181C145.309 323.723 143.899 323.994 142.237 323.994H138.713ZM135.406 330.066V310.143H139.255V330.066H135.406ZM153.248 330.066V310.279H158.506L163.467 322.097H163.954L168.888 310.279H174.228V330.066H170.406V313.179L170.894 313.233L165.554 326.027H161.623L156.256 313.233L156.771 313.179V330.066H153.248Z" fill="#5B5752"/>
<path d="M325.291 690L319.802 667.739H324.956L329.256 686.646L328.188 685.944H330.963L329.774 686.646L333.098 668.562H337.245L332.884 690H325.291ZM338.556 690L333.86 668.562H338.221L342.063 686.646L340.904 685.944H343.557L342.551 686.646L346.302 667.739H351.181L346.302 690H338.556ZM354.492 690V673.289H359.371V690H354.492ZM352.266 676.887V673.289H359.371V676.887H352.266ZM356.383 671.642C355.468 671.642 354.787 671.409 354.339 670.941C353.912 670.453 353.699 669.843 353.699 669.111C353.699 668.359 353.912 667.749 354.339 667.282C354.787 666.794 355.468 666.55 356.383 666.55C357.297 666.55 357.968 666.794 358.395 667.282C358.842 667.749 359.066 668.359 359.066 669.111C359.066 669.843 358.842 670.453 358.395 670.941C357.968 671.409 357.297 671.642 356.383 671.642ZM363.884 690V673.289H367.756V680.455H367.482C367.482 678.748 367.695 677.324 368.122 676.186C368.57 675.048 369.241 674.194 370.135 673.625C371.03 673.055 372.117 672.771 373.398 672.771H373.611C375.563 672.771 377.047 673.411 378.064 674.692C379.1 675.952 379.619 677.873 379.619 680.455V690H374.74V680.181C374.74 679.286 374.475 678.554 373.947 677.985C373.418 677.416 372.707 677.131 371.812 677.131C370.897 677.131 370.155 677.426 369.586 678.016C369.037 678.585 368.763 679.337 368.763 680.272V690H363.884ZM383.777 690V673.289H387.649V680.455H387.375C387.375 678.748 387.588 677.324 388.015 676.186C388.462 675.048 389.133 674.194 390.028 673.625C390.922 673.055 392.01 672.771 393.291 672.771H393.504C395.456 672.771 396.94 673.411 397.956 674.692C398.993 675.952 399.512 677.873 399.512 680.455V690H394.633V680.181C394.633 679.286 394.368 678.554 393.84 677.985C393.311 677.416 392.6 677.131 391.705 677.131C390.79 677.131 390.048 677.426 389.479 678.016C388.93 678.585 388.656 679.337 388.656 680.272V690H383.777ZM411.323 690.579C409.9 690.579 408.64 690.335 407.542 689.848C406.465 689.36 405.56 688.709 404.828 687.896C404.117 687.062 403.568 686.137 403.181 685.121C402.816 684.084 402.633 683.027 402.633 681.949V681.34C402.633 680.221 402.816 679.154 403.181 678.138C403.568 677.101 404.117 676.176 404.828 675.363C405.54 674.549 406.424 673.909 407.481 673.442C408.559 672.954 409.778 672.71 411.14 672.71C412.929 672.71 414.434 673.116 415.654 673.929C416.894 674.722 417.839 675.769 418.49 677.07C419.14 678.351 419.465 679.754 419.465 681.279V682.925H404.676V680.15H416.507L414.922 681.431C414.922 680.435 414.779 679.581 414.495 678.87C414.21 678.158 413.783 677.619 413.214 677.253C412.665 676.867 411.974 676.674 411.14 676.674C410.287 676.674 409.565 676.867 408.975 677.253C408.386 677.64 407.939 678.209 407.634 678.961C407.329 679.693 407.176 680.598 407.176 681.675C407.176 682.671 407.319 683.545 407.603 684.298C407.888 685.029 408.335 685.599 408.945 686.005C409.555 686.412 410.348 686.615 411.323 686.615C412.218 686.615 412.95 686.442 413.519 686.097C414.088 685.751 414.475 685.324 414.678 684.816H419.161C418.917 685.934 418.439 686.93 417.727 687.804C417.016 688.679 416.121 689.36 415.044 689.848C413.966 690.335 412.726 690.579 411.323 690.579ZM422.699 690V673.289H426.571V680.455H426.48C426.48 678.097 426.978 676.278 427.974 674.997C428.991 673.716 430.454 673.076 432.365 673.076H433.006V677.284H431.786C430.444 677.284 429.407 677.65 428.675 678.382C427.944 679.093 427.578 680.13 427.578 681.492V690H422.699ZM446.602 690.122V685.456H450.749C451.786 685.456 452.721 685.304 453.555 684.999C454.388 684.674 455.1 684.226 455.689 683.657C456.279 683.068 456.726 682.366 457.031 681.553C457.336 680.72 457.488 679.805 457.488 678.809C457.488 677.772 457.336 676.847 457.031 676.034C456.726 675.22 456.279 674.529 455.689 673.96C455.1 673.391 454.388 672.964 453.555 672.679C452.721 672.374 451.786 672.222 450.749 672.222H446.602V667.556H450.475C452.487 667.556 454.246 667.851 455.75 668.44C457.255 669.03 458.515 669.833 459.532 670.85C460.548 671.866 461.3 673.035 461.788 674.356C462.296 675.657 462.55 677.03 462.55 678.473V679.144C462.55 680.486 462.296 681.817 461.788 683.139C461.3 684.44 460.548 685.619 459.532 686.676C458.515 687.713 457.255 688.546 455.75 689.177C454.246 689.807 452.487 690.122 450.475 690.122H446.602ZM442.211 690.122V667.556H447.212V690.122H442.211ZM473.414 690.579C471.991 690.579 470.731 690.335 469.633 689.848C468.555 689.36 467.651 688.709 466.919 687.896C466.207 687.062 465.658 686.137 465.272 685.121C464.906 684.084 464.723 683.027 464.723 681.949V681.34C464.723 680.221 464.906 679.154 465.272 678.138C465.658 677.101 466.207 676.176 466.919 675.363C467.63 674.549 468.515 673.909 469.572 673.442C470.649 672.954 471.869 672.71 473.231 672.71C475.02 672.71 476.525 673.116 477.744 673.929C478.984 674.722 479.93 675.769 480.58 677.07C481.231 678.351 481.556 679.754 481.556 681.279V682.925H466.766V680.15H478.598L477.012 681.431C477.012 680.435 476.87 679.581 476.586 678.87C476.301 678.158 475.874 677.619 475.305 677.253C474.756 676.867 474.065 676.674 473.231 676.674C472.377 676.674 471.656 676.867 471.066 677.253C470.476 677.64 470.029 678.209 469.724 678.961C469.419 679.693 469.267 680.598 469.267 681.675C469.267 682.671 469.409 683.545 469.694 684.298C469.978 685.029 470.426 685.599 471.036 686.005C471.645 686.412 472.438 686.615 473.414 686.615C474.309 686.615 475.04 686.442 475.61 686.097C476.179 685.751 476.565 685.324 476.768 684.816H481.251C481.007 685.934 480.529 686.93 479.818 687.804C479.106 688.679 478.212 689.36 477.134 689.848C476.057 690.335 474.817 690.579 473.414 690.579ZM492.291 690.579C490.847 690.579 489.587 690.346 488.51 689.878C487.452 689.39 486.568 688.74 485.857 687.926C485.145 687.113 484.616 686.198 484.271 685.182C483.925 684.145 483.752 683.078 483.752 681.98V681.401C483.752 680.262 483.935 679.174 484.301 678.138C484.667 677.081 485.206 676.145 485.918 675.332C486.629 674.519 487.513 673.879 488.571 673.411C489.648 672.943 490.878 672.71 492.26 672.71C493.765 672.71 495.096 673.004 496.255 673.594C497.414 674.163 498.339 674.966 499.03 676.003C499.721 677.04 500.108 678.229 500.189 679.571H495.401C495.32 678.819 495.015 678.188 494.486 677.68C493.978 677.152 493.236 676.887 492.26 676.887C491.447 676.887 490.766 677.091 490.217 677.497C489.689 677.904 489.292 678.463 489.028 679.174C488.764 679.886 488.632 680.73 488.632 681.706C488.632 682.6 488.754 683.413 488.997 684.145C489.241 684.857 489.628 685.416 490.156 685.822C490.705 686.209 491.417 686.402 492.291 686.402C492.941 686.402 493.49 686.29 493.938 686.066C494.405 685.822 494.771 685.497 495.035 685.09C495.32 684.663 495.493 684.176 495.554 683.627H500.311C500.25 685.009 499.864 686.229 499.152 687.286C498.441 688.323 497.495 689.136 496.316 689.726C495.137 690.295 493.795 690.579 492.291 690.579ZM503.645 690V667.739H508.554V690H503.645ZM501.663 671.337V667.739H508.554V671.337H501.663ZM523.144 690V685.06H522.32V679.693C522.32 678.839 522.117 678.199 521.711 677.772C521.304 677.345 520.653 677.131 519.759 677.131C519.312 677.131 518.722 677.142 517.99 677.162C517.258 677.182 516.506 677.213 515.734 677.253C514.961 677.294 514.26 677.335 513.63 677.375V673.259C514.097 673.218 514.646 673.177 515.276 673.137C515.906 673.096 516.557 673.065 517.228 673.045C517.899 673.025 518.529 673.015 519.119 673.015C520.826 673.015 522.26 673.259 523.418 673.746C524.597 674.234 525.492 674.976 526.102 675.973C526.712 676.948 527.017 678.209 527.017 679.754V690H523.144ZM517.807 690.427C516.608 690.427 515.551 690.213 514.636 689.787C513.741 689.36 513.04 688.75 512.532 687.957C512.024 687.144 511.769 686.178 511.769 685.06C511.769 683.84 512.085 682.844 512.715 682.071C513.345 681.279 514.229 680.699 515.368 680.333C516.506 679.947 517.817 679.754 519.302 679.754H522.869V682.468H519.271C518.417 682.468 517.756 682.681 517.289 683.108C516.842 683.515 516.618 684.074 516.618 684.785C516.618 685.456 516.842 686.005 517.289 686.432C517.756 686.839 518.417 687.042 519.271 687.042C519.82 687.042 520.308 686.951 520.735 686.768C521.182 686.564 521.548 686.229 521.833 685.761C522.117 685.294 522.28 684.643 522.32 683.81L523.479 685.029C523.378 686.188 523.093 687.164 522.625 687.957C522.178 688.75 521.548 689.36 520.735 689.787C519.942 690.213 518.966 690.427 517.807 690.427ZM531.156 690V673.289H535.029V680.455H534.938C534.938 678.097 535.436 676.278 536.432 674.997C537.448 673.716 538.912 673.076 540.823 673.076H541.463V677.284H540.244C538.902 677.284 537.865 677.65 537.133 678.382C536.401 679.093 536.035 680.13 536.035 681.492V690H531.156ZM553.996 690V685.06H553.172V679.693C553.172 678.839 552.969 678.199 552.562 677.772C552.156 677.345 551.505 677.131 550.611 677.131C550.163 677.131 549.574 677.142 548.842 677.162C548.11 677.182 547.358 677.213 546.585 677.253C545.813 677.294 545.112 677.335 544.481 677.375V673.259C544.949 673.218 545.498 673.177 546.128 673.137C546.758 673.096 547.409 673.065 548.08 673.045C548.751 673.025 549.381 673.015 549.97 673.015C551.678 673.015 553.111 673.259 554.27 673.746C555.449 674.234 556.344 674.976 556.954 675.973C557.563 676.948 557.868 678.209 557.868 679.754V690H553.996ZM548.659 690.427C547.46 690.427 546.402 690.213 545.488 689.787C544.593 689.36 543.892 688.75 543.384 687.957C542.875 687.144 542.621 686.178 542.621 685.06C542.621 683.84 542.936 682.844 543.567 682.071C544.197 681.279 545.081 680.699 546.22 680.333C547.358 679.947 548.669 679.754 550.153 679.754H553.721V682.468H550.123C549.269 682.468 548.608 682.681 548.141 683.108C547.693 683.515 547.47 684.074 547.47 684.785C547.47 685.456 547.693 686.005 548.141 686.432C548.608 686.839 549.269 687.042 550.123 687.042C550.672 687.042 551.16 686.951 551.587 686.768C552.034 686.564 552.4 686.229 552.684 685.761C552.969 685.294 553.132 684.643 553.172 683.81L554.331 685.029C554.229 686.188 553.945 687.164 553.477 687.957C553.03 688.75 552.4 689.36 551.587 689.787C550.794 690.213 549.818 690.427 548.659 690.427ZM569.601 690.213C567.914 690.213 566.552 690.01 565.515 689.604C564.478 689.177 563.716 688.475 563.228 687.499C562.76 686.503 562.526 685.162 562.526 683.474V668.776H567.07V683.657C567.07 684.45 567.273 685.06 567.68 685.487C568.107 685.893 568.707 686.097 569.479 686.097H571.949V690.213H569.601ZM559.995 676.857V673.289H571.949V676.857H559.995ZM576.023 690V673.289H580.902V690H576.023ZM573.797 676.887V673.289H580.902V676.887H573.797ZM577.914 671.642C576.999 671.642 576.318 671.409 575.871 670.941C575.444 670.453 575.23 669.843 575.23 669.111C575.23 668.359 575.444 667.749 575.871 667.282C576.318 666.794 576.999 666.55 577.914 666.55C578.829 666.55 579.499 666.794 579.926 667.282C580.374 667.749 580.597 668.359 580.597 669.111C580.597 669.843 580.374 670.453 579.926 670.941C579.499 671.409 578.829 671.642 577.914 671.642ZM593.557 690.579C592.093 690.579 590.792 690.356 589.654 689.909C588.515 689.441 587.549 688.811 586.757 688.018C585.984 687.225 585.395 686.32 584.988 685.304C584.581 684.267 584.378 683.179 584.378 682.041V681.34C584.378 680.181 584.581 679.083 584.988 678.046C585.415 676.989 586.025 676.064 586.818 675.271C587.631 674.478 588.607 673.858 589.745 673.411C590.884 672.943 592.154 672.71 593.557 672.71C595 672.71 596.281 672.943 597.399 673.411C598.538 673.858 599.503 674.478 600.296 675.271C601.089 676.064 601.699 676.989 602.126 678.046C602.553 679.083 602.766 680.181 602.766 681.34V682.041C602.766 683.179 602.563 684.267 602.156 685.304C601.75 686.32 601.15 687.225 600.357 688.018C599.585 688.811 598.629 689.441 597.491 689.909C596.352 690.356 595.041 690.579 593.557 690.579ZM593.557 686.463C594.512 686.463 595.305 686.259 595.935 685.853C596.566 685.446 597.043 684.877 597.369 684.145C597.714 683.413 597.887 682.6 597.887 681.706C597.887 680.75 597.714 679.917 597.369 679.205C597.023 678.473 596.525 677.894 595.874 677.467C595.244 677.04 594.472 676.826 593.557 676.826C592.662 676.826 591.89 677.04 591.239 677.467C590.589 677.894 590.091 678.473 589.745 679.205C589.42 679.917 589.257 680.75 589.257 681.706C589.257 682.6 589.42 683.413 589.745 684.145C590.07 684.877 590.558 685.446 591.209 685.853C591.859 686.259 592.642 686.463 593.557 686.463ZM606.171 690V673.289H610.044V680.455H609.77C609.77 678.748 609.983 677.324 610.41 676.186C610.857 675.048 611.528 674.194 612.423 673.625C613.317 673.055 614.405 672.771 615.686 672.771H615.899C617.851 672.771 619.335 673.411 620.351 674.692C621.388 675.952 621.906 677.873 621.906 680.455V690H617.027V680.181C617.027 679.286 616.763 678.554 616.234 677.985C615.706 677.416 614.994 677.131 614.1 677.131C613.185 677.131 612.443 677.426 611.874 678.016C611.325 678.585 611.05 679.337 611.05 680.272V690H606.171Z" fill="#5B5752"/>
<path d="M414.634 733.257C413.079 733.257 411.76 733.004 410.676 732.498C409.592 731.974 408.706 731.269 408.02 730.383C407.333 729.48 406.827 728.45 406.502 727.293C406.194 726.119 406.041 724.89 406.041 723.607V722.089C406.041 720.264 406.348 718.619 406.962 717.156C407.577 715.692 408.517 714.535 409.782 713.686C411.046 712.819 412.664 712.385 414.634 712.385C416.585 712.385 418.193 712.819 419.458 713.686C420.723 714.535 421.654 715.692 422.25 717.156C422.865 718.619 423.172 720.264 423.172 722.089V723.607C423.172 724.89 423.009 726.119 422.684 727.293C422.377 728.45 421.88 729.48 421.193 730.383C420.525 731.269 419.648 731.974 418.564 732.498C417.48 733.004 416.17 733.257 414.634 733.257ZM414.634 729.733C416.242 729.733 417.425 729.182 418.184 728.079C418.943 726.959 419.323 725.224 419.323 722.875C419.323 720.381 418.934 718.601 418.157 717.535C417.38 716.451 416.206 715.909 414.634 715.909C413.043 715.909 411.851 716.451 411.056 717.535C410.278 718.601 409.89 720.363 409.89 722.821C409.89 725.188 410.278 726.932 411.056 728.052C411.833 729.173 413.025 729.733 414.634 729.733ZM428.752 732.742L436.152 716.478L435.908 716.126H425.879V712.954H440.299V715.882L432.791 732.742H428.752ZM425.879 719.297V712.954H428.996V719.297H425.879ZM442.541 732.742V728.405H446.77V732.742H442.541ZM442.541 723.39V719.053H446.77V723.39H442.541ZM458.549 733.257C456.995 733.257 455.675 733.004 454.591 732.498C453.507 731.974 452.621 731.269 451.935 730.383C451.248 729.48 450.742 728.45 450.417 727.293C450.11 726.119 449.956 724.89 449.956 723.607V722.089C449.956 720.264 450.263 718.619 450.878 717.156C451.492 715.692 452.432 714.535 453.697 713.686C454.962 712.819 456.579 712.385 458.549 712.385C460.5 712.385 462.109 712.819 463.374 713.686C464.639 714.535 465.569 715.692 466.165 717.156C466.78 718.619 467.087 720.264 467.087 722.089V723.607C467.087 724.89 466.924 726.119 466.599 727.293C466.292 728.45 465.795 729.48 465.108 730.383C464.44 731.269 463.563 731.974 462.479 732.498C461.395 733.004 460.085 733.257 458.549 733.257ZM458.549 729.733C460.157 729.733 461.341 729.182 462.1 728.079C462.859 726.959 463.238 725.224 463.238 722.875C463.238 720.381 462.85 718.601 462.072 717.535C461.295 716.451 460.121 715.909 458.549 715.909C456.958 715.909 455.766 716.451 454.971 717.535C454.194 718.601 453.805 720.363 453.805 722.821C453.805 725.188 454.194 726.932 454.971 728.052C455.748 729.173 456.94 729.733 458.549 729.733ZM479.037 733.257C477.483 733.257 476.164 733.004 475.08 732.498C473.995 731.974 473.11 731.269 472.423 730.383C471.737 729.48 471.231 728.45 470.905 727.293C470.598 726.119 470.444 724.89 470.444 723.607V722.089C470.444 720.264 470.752 718.619 471.366 717.156C471.98 715.692 472.92 714.535 474.185 713.686C475.45 712.819 477.067 712.385 479.037 712.385C480.989 712.385 482.597 712.819 483.862 713.686C485.127 714.535 486.058 715.692 486.654 717.156C487.268 718.619 487.576 720.264 487.576 722.089V723.607C487.576 724.89 487.413 726.119 487.088 727.293C486.78 728.45 486.283 729.48 485.597 730.383C484.928 731.269 484.052 731.974 482.967 732.498C481.883 733.004 480.573 733.257 479.037 733.257ZM479.037 729.733C480.645 729.733 481.829 729.182 482.588 728.079C483.347 726.959 483.726 725.224 483.726 722.875C483.726 720.381 483.338 718.601 482.561 717.535C481.784 716.451 480.609 715.909 479.037 715.909C477.447 715.909 476.254 716.451 475.459 717.535C474.682 718.601 474.294 720.363 474.294 722.821C474.294 725.188 474.682 726.932 475.459 728.052C476.236 729.173 477.429 729.733 479.037 729.733ZM500.849 726.67V723.336H504.698C505.475 723.336 506.126 723.182 506.65 722.875C507.192 722.568 507.598 722.143 507.869 721.601C508.158 721.059 508.303 720.436 508.303 719.731C508.303 719.026 508.158 718.403 507.869 717.86C507.598 717.318 507.192 716.903 506.65 716.614C506.126 716.306 505.475 716.153 504.698 716.153H500.849V712.819H504.373C506.035 712.819 507.445 713.09 508.601 713.632C509.776 714.174 510.67 714.951 511.285 715.963C511.899 716.957 512.206 718.141 512.206 719.514V719.948C512.206 721.321 511.899 722.514 511.285 723.526C510.67 724.52 509.776 725.297 508.601 725.857C507.445 726.399 506.035 726.67 504.373 726.67H500.849ZM497.542 732.742V712.819H501.391V732.742H497.542ZM515.383 732.742V712.954H520.642L525.602 724.772H526.09L531.024 712.954H536.363V732.742H532.541V715.855L533.029 715.909L527.689 728.703H523.759L518.392 715.909L518.907 715.855V732.742H515.383Z" fill="#5B5752"/>
<path d="M844.201 287.324V265.064H849.202V287.324H844.201ZM848.592 278.359V274.212H857.191V278.359H848.592ZM848.592 269.211V265.064H857.557V269.211H848.592ZM861.604 287.324V270.614H866.483V287.324H861.604ZM859.378 274.212V270.614H866.483V274.212H859.378ZM863.495 268.967C862.58 268.967 861.899 268.733 861.452 268.265C861.025 267.778 860.811 267.168 860.811 266.436C860.811 265.684 861.025 265.074 861.452 264.606C861.899 264.118 862.58 263.874 863.495 263.874C864.41 263.874 865.081 264.118 865.508 264.606C865.955 265.074 866.179 265.684 866.179 266.436C866.179 267.168 865.955 267.778 865.508 268.265C865.081 268.733 864.41 268.967 863.495 268.967ZM870.996 287.324V270.614H874.869V277.78H874.594C874.594 276.072 874.808 274.649 875.235 273.51C875.682 272.372 876.353 271.518 877.248 270.949C878.142 270.38 879.23 270.095 880.51 270.095H880.724C882.676 270.095 884.16 270.736 885.176 272.016C886.213 273.277 886.731 275.198 886.731 277.78V287.324H881.852V277.505C881.852 276.611 881.588 275.879 881.059 275.31C880.531 274.74 879.819 274.456 878.925 274.456C878.01 274.456 877.268 274.751 876.699 275.34C876.15 275.909 875.875 276.662 875.875 277.597V287.324H870.996ZM900.983 287.324V282.384H900.159V277.017C900.159 276.164 899.956 275.523 899.549 275.096C899.143 274.669 898.492 274.456 897.598 274.456C897.151 274.456 896.561 274.466 895.829 274.486C895.097 274.507 894.345 274.537 893.573 274.578C892.8 274.618 892.099 274.659 891.468 274.7V270.583C891.936 270.542 892.485 270.502 893.115 270.461C893.745 270.42 894.396 270.39 895.067 270.37C895.738 270.349 896.368 270.339 896.957 270.339C898.665 270.339 900.098 270.583 901.257 271.071C902.436 271.559 903.331 272.301 903.941 273.297C904.55 274.273 904.855 275.533 904.855 277.078V287.324H900.983ZM895.646 287.751C894.447 287.751 893.39 287.538 892.475 287.111C891.58 286.684 890.879 286.074 890.371 285.281C889.862 284.468 889.608 283.502 889.608 282.384C889.608 281.165 889.923 280.168 890.554 279.396C891.184 278.603 892.068 278.024 893.207 277.658C894.345 277.271 895.656 277.078 897.14 277.078H900.708V279.792H897.11C896.256 279.792 895.595 280.006 895.128 280.433C894.68 280.839 894.457 281.398 894.457 282.11C894.457 282.781 894.68 283.33 895.128 283.757C895.595 284.163 896.256 284.367 897.11 284.367C897.659 284.367 898.147 284.275 898.574 284.092C899.021 283.889 899.387 283.553 899.671 283.086C899.956 282.618 900.119 281.968 900.159 281.134L901.318 282.354C901.216 283.513 900.932 284.488 900.464 285.281C900.017 286.074 899.387 286.684 898.574 287.111C897.781 287.538 896.805 287.751 895.646 287.751ZM909.209 287.324V265.064H914.118V287.324H909.209ZM907.226 268.662V265.064H914.118V268.662H907.226ZM929.682 280.951V276.621H933.677C934.449 276.621 935.11 276.468 935.659 276.164C936.228 275.859 936.665 275.432 936.97 274.883C937.275 274.314 937.428 273.663 937.428 272.931C937.428 272.159 937.275 271.498 936.97 270.949C936.665 270.38 936.228 269.953 935.659 269.668C935.11 269.363 934.449 269.211 933.677 269.211H929.682V264.881H933.433C935.324 264.881 936.94 265.196 938.282 265.826C939.644 266.456 940.681 267.351 941.392 268.509C942.124 269.668 942.49 271.061 942.49 272.687V273.175C942.49 274.761 942.124 276.143 941.392 277.322C940.681 278.481 939.644 279.376 938.282 280.006C936.94 280.636 935.324 280.951 933.433 280.951H929.682ZM925.291 287.324V264.881H930.292V287.324H925.291ZM946.298 287.324V270.614H951.177V287.324H946.298ZM944.072 274.212V270.614H951.177V274.212H944.072ZM948.188 268.967C947.274 268.967 946.593 268.733 946.145 268.265C945.718 267.778 945.505 267.168 945.505 266.436C945.505 265.684 945.718 265.074 946.145 264.606C946.593 264.118 947.274 263.874 948.188 263.874C949.103 263.874 949.774 264.118 950.201 264.606C950.648 265.074 950.872 265.684 950.872 266.436C950.872 267.168 950.648 267.778 950.201 268.265C949.774 268.733 949.103 268.967 948.188 268.967ZM963.283 287.538C961.595 287.538 960.233 287.335 959.196 286.928C958.16 286.501 957.397 285.8 956.909 284.824C956.442 283.828 956.208 282.486 956.208 280.799V266.1H960.752V280.982C960.752 281.774 960.955 282.384 961.362 282.811C961.789 283.218 962.388 283.421 963.161 283.421H965.631V287.538H963.283ZM953.677 274.181V270.614H965.631V274.181H953.677ZM976.354 287.904C974.91 287.904 973.65 287.67 972.573 287.202C971.515 286.715 970.631 286.064 969.92 285.251C969.208 284.438 968.679 283.523 968.334 282.506C967.988 281.47 967.815 280.402 967.815 279.304V278.725C967.815 277.587 967.998 276.499 968.364 275.462C968.73 274.405 969.269 273.47 969.981 272.657C970.692 271.843 971.576 271.203 972.634 270.736C973.711 270.268 974.941 270.034 976.323 270.034C977.828 270.034 979.159 270.329 980.318 270.918C981.477 271.488 982.402 272.291 983.093 273.328C983.784 274.364 984.171 275.554 984.252 276.895H979.464C979.383 276.143 979.078 275.513 978.549 275.005C978.041 274.476 977.299 274.212 976.323 274.212C975.51 274.212 974.829 274.415 974.28 274.822C973.752 275.228 973.355 275.787 973.091 276.499C972.827 277.21 972.695 278.054 972.695 279.03C972.695 279.924 972.817 280.738 973.06 281.47C973.304 282.181 973.691 282.74 974.219 283.147C974.768 283.533 975.48 283.726 976.354 283.726C977.004 283.726 977.553 283.614 978.001 283.391C978.468 283.147 978.834 282.821 979.098 282.415C979.383 281.988 979.556 281.5 979.617 280.951H984.374C984.313 282.334 983.927 283.553 983.215 284.61C982.504 285.647 981.558 286.46 980.379 287.05C979.2 287.619 977.858 287.904 976.354 287.904ZM987.494 287.324V265.064H992.373V277.902H991.642C991.642 276.214 991.855 274.791 992.282 273.632C992.709 272.474 993.339 271.6 994.173 271.01C995.006 270.4 996.053 270.095 997.314 270.095H997.527C999.377 270.095 1000.79 270.756 1001.77 272.077C1002.74 273.378 1003.23 275.289 1003.23 277.81V287.324H998.35V277.505C998.35 276.59 998.076 275.859 997.527 275.31C996.998 274.74 996.297 274.456 995.423 274.456C994.508 274.456 993.766 274.751 993.197 275.34C992.648 275.93 992.373 276.712 992.373 277.688V287.324H987.494ZM1015.04 287.904C1013.62 287.904 1012.36 287.66 1011.26 287.172C1010.18 286.684 1009.28 286.034 1008.55 285.22C1007.83 284.387 1007.29 283.462 1006.9 282.445C1006.53 281.409 1006.35 280.351 1006.35 279.274V278.664C1006.35 277.546 1006.53 276.479 1006.9 275.462C1007.29 274.425 1007.83 273.5 1008.55 272.687C1009.26 271.874 1010.14 271.234 1011.2 270.766C1012.28 270.278 1013.5 270.034 1014.86 270.034C1016.65 270.034 1018.15 270.441 1019.37 271.254C1020.61 272.047 1021.56 273.094 1022.21 274.395C1022.86 275.676 1023.18 277.078 1023.18 278.603V280.25H1008.39V277.475H1020.23L1018.64 278.756C1018.64 277.759 1018.5 276.906 1018.21 276.194C1017.93 275.482 1017.5 274.944 1016.93 274.578C1016.38 274.192 1015.69 273.998 1014.86 273.998C1014 273.998 1013.28 274.192 1012.69 274.578C1012.1 274.964 1011.66 275.533 1011.35 276.285C1011.05 277.017 1010.89 277.922 1010.89 278.999C1010.89 279.996 1011.04 280.87 1011.32 281.622C1011.61 282.354 1012.05 282.923 1012.66 283.33C1013.27 283.736 1014.07 283.94 1015.04 283.94C1015.94 283.94 1016.67 283.767 1017.24 283.421C1017.81 283.076 1018.19 282.649 1018.4 282.14H1022.88C1022.63 283.259 1022.16 284.255 1021.45 285.129C1020.73 286.003 1019.84 286.684 1018.76 287.172C1017.68 287.66 1016.44 287.904 1015.04 287.904ZM1032.76 287.843C1030.38 287.843 1028.52 287.355 1027.18 286.379C1025.84 285.403 1025.13 284.031 1025.04 282.262H1029.37C1029.46 282.791 1029.77 283.269 1030.32 283.696C1030.89 284.102 1031.73 284.306 1032.85 284.306C1033.7 284.306 1034.41 284.163 1034.95 283.879C1035.52 283.574 1035.81 283.147 1035.81 282.598C1035.81 282.11 1035.6 281.724 1035.17 281.439C1034.74 281.134 1033.98 280.921 1032.88 280.799L1031.57 280.677C1029.56 280.473 1028.04 279.914 1027.03 278.999C1026.03 278.085 1025.53 276.916 1025.53 275.493C1025.53 274.314 1025.83 273.328 1026.42 272.535C1027.01 271.742 1027.82 271.142 1028.86 270.736C1029.91 270.329 1031.11 270.126 1032.45 270.126C1034.61 270.126 1036.35 270.603 1037.67 271.559C1038.99 272.494 1039.68 273.856 1039.74 275.645H1035.41C1035.33 275.096 1035.05 274.639 1034.56 274.273C1034.07 273.887 1033.35 273.693 1032.39 273.693C1031.64 273.693 1031.04 273.836 1030.59 274.12C1030.15 274.405 1029.92 274.791 1029.92 275.279C1029.92 275.747 1030.12 276.103 1030.5 276.346C1030.89 276.59 1031.52 276.763 1032.39 276.865L1033.7 276.987C1035.76 277.21 1037.35 277.78 1038.49 278.695C1039.63 279.609 1040.2 280.839 1040.2 282.384C1040.2 283.502 1039.89 284.478 1039.29 285.312C1038.68 286.125 1037.81 286.755 1036.69 287.202C1035.57 287.629 1034.26 287.843 1032.76 287.843ZM1057.78 287.904C1055.77 287.904 1054.07 287.589 1052.69 286.959C1051.31 286.308 1050.26 285.434 1049.55 284.336C1048.84 283.218 1048.48 281.937 1048.48 280.494H1053.33C1053.33 281.063 1053.48 281.592 1053.79 282.079C1054.11 282.567 1054.6 282.964 1055.25 283.269C1055.9 283.553 1056.75 283.696 1057.78 283.696C1058.72 283.696 1059.5 283.574 1060.13 283.33C1060.76 283.086 1061.24 282.75 1061.57 282.323C1061.89 281.876 1062.05 281.368 1062.05 280.799C1062.05 280.087 1061.75 279.528 1061.14 279.121C1060.53 278.695 1059.54 278.42 1058.18 278.298L1056.5 278.146C1054.29 277.963 1052.52 277.271 1051.2 276.072C1049.88 274.873 1049.21 273.287 1049.21 271.315C1049.21 269.892 1049.55 268.662 1050.22 267.625C1050.91 266.588 1051.87 265.795 1053.09 265.247C1054.31 264.677 1055.75 264.393 1057.42 264.393C1059.17 264.393 1060.66 264.698 1061.9 265.307C1063.16 265.897 1064.13 266.741 1064.8 267.839C1065.47 268.916 1065.8 270.187 1065.8 271.65H1060.92C1060.92 271.101 1060.79 270.603 1060.53 270.156C1060.26 269.689 1059.87 269.312 1059.34 269.028C1058.83 268.743 1058.19 268.601 1057.42 268.601C1056.69 268.601 1056.07 268.723 1055.56 268.967C1055.07 269.211 1054.7 269.546 1054.46 269.973C1054.22 270.38 1054.09 270.827 1054.09 271.315C1054.09 271.945 1054.32 272.494 1054.76 272.962C1055.21 273.429 1055.94 273.704 1056.96 273.785L1058.67 273.937C1060.29 274.08 1061.73 274.435 1062.97 275.005C1064.21 275.554 1065.17 276.316 1065.86 277.292C1066.58 278.247 1066.93 279.416 1066.93 280.799C1066.93 282.222 1066.56 283.472 1065.8 284.549C1065.07 285.607 1064.02 286.43 1062.66 287.02C1061.3 287.609 1059.67 287.904 1057.78 287.904ZM1077.7 287.538C1076.01 287.538 1074.65 287.335 1073.61 286.928C1072.57 286.501 1071.81 285.8 1071.32 284.824C1070.86 283.828 1070.62 282.486 1070.62 280.799V266.1H1075.17V280.982C1075.17 281.774 1075.37 282.384 1075.78 282.811C1076.2 283.218 1076.8 283.421 1077.57 283.421H1080.04V287.538H1077.7ZM1068.09 274.181V270.614H1080.04V274.181H1068.09ZM1093.36 287.324V282.384H1092.54V277.017C1092.54 276.164 1092.33 275.523 1091.93 275.096C1091.52 274.669 1090.87 274.456 1089.97 274.456C1089.53 274.456 1088.94 274.466 1088.21 274.486C1087.47 274.507 1086.72 274.537 1085.95 274.578C1085.18 274.618 1084.48 274.659 1083.85 274.7V270.583C1084.31 270.542 1084.86 270.502 1085.49 270.461C1086.12 270.42 1086.77 270.39 1087.44 270.37C1088.11 270.349 1088.74 270.339 1089.33 270.339C1091.04 270.339 1092.48 270.583 1093.63 271.071C1094.81 271.559 1095.71 272.301 1096.32 273.297C1096.93 274.273 1097.23 275.533 1097.23 277.078V287.324H1093.36ZM1088.02 287.751C1086.82 287.751 1085.77 287.538 1084.85 287.111C1083.96 286.684 1083.26 286.074 1082.75 285.281C1082.24 284.468 1081.99 283.502 1081.99 282.384C1081.99 281.165 1082.3 280.168 1082.93 279.396C1083.56 278.603 1084.44 278.024 1085.58 277.658C1086.72 277.271 1088.03 277.078 1089.52 277.078H1093.09V279.792H1089.49C1088.63 279.792 1087.97 280.006 1087.5 280.433C1087.06 280.839 1086.83 281.398 1086.83 282.11C1086.83 282.781 1087.06 283.33 1087.5 283.757C1087.97 284.163 1088.63 284.367 1089.49 284.367C1090.04 284.367 1090.52 284.275 1090.95 284.092C1091.4 283.889 1091.76 283.553 1092.05 283.086C1092.33 282.618 1092.5 281.968 1092.54 281.134L1093.69 282.354C1093.59 283.513 1093.31 284.488 1092.84 285.281C1092.39 286.074 1091.76 286.684 1090.95 287.111C1090.16 287.538 1089.18 287.751 1088.02 287.751ZM1101.37 287.324V270.614H1105.24V277.78H1105.15C1105.15 275.421 1105.65 273.602 1106.65 272.321C1107.66 271.04 1109.13 270.4 1111.04 270.4H1111.68V274.608H1110.46C1109.12 274.608 1108.08 274.974 1107.35 275.706C1106.62 276.418 1106.25 277.454 1106.25 278.817V287.324H1101.37ZM1122.19 287.538C1120.5 287.538 1119.14 287.335 1118.1 286.928C1117.06 286.501 1116.3 285.8 1115.81 284.824C1115.35 283.828 1115.11 282.486 1115.11 280.799V266.1H1119.66V280.982C1119.66 281.774 1119.86 282.384 1120.27 282.811C1120.69 283.218 1121.29 283.421 1122.07 283.421H1124.54V287.538H1122.19ZM1112.58 274.181V270.614H1124.54V274.181H1112.58Z" fill="#5B5752"/>
<path d="M926.399 330.581C924.845 330.581 923.526 330.328 922.441 329.822C921.357 329.298 920.472 328.593 919.785 327.708C919.098 326.804 918.592 325.774 918.267 324.618C917.96 323.443 917.806 322.214 917.806 320.931V319.413C917.806 317.588 918.113 315.944 918.728 314.48C919.342 313.016 920.282 311.86 921.547 311.011C922.812 310.143 924.429 309.709 926.399 309.709C928.351 309.709 929.959 310.143 931.224 311.011C932.489 311.86 933.419 313.016 934.016 314.48C934.63 315.944 934.937 317.588 934.937 319.413V320.931C934.937 322.214 934.775 323.443 934.449 324.618C934.142 325.774 933.645 326.804 932.959 327.708C932.29 328.593 931.414 329.298 930.329 329.822C929.245 330.328 927.935 330.581 926.399 330.581ZM926.399 327.057C928.007 327.057 929.191 326.506 929.95 325.404C930.709 324.284 931.088 322.549 931.088 320.2C931.088 317.706 930.7 315.926 929.923 314.86C929.146 313.775 927.971 313.233 926.399 313.233C924.809 313.233 923.616 313.775 922.821 314.86C922.044 315.926 921.655 317.688 921.655 320.145C921.655 322.513 922.044 324.256 922.821 325.377C923.598 326.497 924.791 327.057 926.399 327.057ZM945.369 330.581C943.815 330.581 942.478 330.274 941.358 329.66C940.255 329.045 939.406 328.232 938.81 327.22C938.231 326.19 937.942 325.07 937.942 323.859H941.656C941.656 324.546 941.809 325.151 942.117 325.675C942.442 326.199 942.885 326.615 943.445 326.922C944.005 327.211 944.656 327.356 945.397 327.356C946.174 327.356 946.842 327.193 947.402 326.868C947.963 326.542 948.387 326.1 948.676 325.539C948.984 324.979 949.137 324.338 949.137 323.615C949.137 322.91 948.984 322.278 948.676 321.717C948.387 321.139 947.963 320.687 947.402 320.362C946.86 320.019 946.201 319.847 945.424 319.847C944.773 319.847 944.159 319.974 943.58 320.227C943.002 320.48 942.55 320.814 942.225 321.23H938.674L939.677 310.279H951.143V313.559H941.358L942.713 312.501L942.062 319.332L941.141 319.061C941.665 318.465 942.306 317.968 943.065 317.57C943.824 317.173 944.782 316.974 945.939 316.974C947.402 316.974 948.649 317.272 949.679 317.868C950.709 318.465 951.495 319.26 952.038 320.254C952.58 321.23 952.851 322.296 952.851 323.452V323.805C952.851 324.979 952.562 326.082 951.983 327.112C951.405 328.142 950.556 328.982 949.435 329.632C948.333 330.265 946.978 330.581 945.369 330.581ZM955.418 330.066V325.729H959.647V330.066H955.418ZM955.418 320.715V316.378H959.647V320.715H955.418ZM971.426 330.581C969.872 330.581 968.553 330.328 967.468 329.822C966.384 329.298 965.499 328.593 964.812 327.708C964.125 326.804 963.619 325.774 963.294 324.618C962.987 323.443 962.833 322.214 962.833 320.931V319.413C962.833 317.588 963.14 315.944 963.755 314.48C964.369 313.016 965.309 311.86 966.574 311.011C967.839 310.143 969.456 309.709 971.426 309.709C973.377 309.709 974.986 310.143 976.251 311.011C977.516 311.86 978.446 313.016 979.043 314.48C979.657 315.944 979.964 317.588 979.964 319.413V320.931C979.964 322.214 979.802 323.443 979.476 324.618C979.169 325.774 978.672 326.804 977.986 327.708C977.317 328.593 976.44 329.298 975.356 329.822C974.272 330.328 972.962 330.581 971.426 330.581ZM971.426 327.057C973.034 327.057 974.218 326.506 974.977 325.404C975.736 324.284 976.115 322.549 976.115 320.2C976.115 317.706 975.727 315.926 974.95 314.86C974.173 313.775 972.998 313.233 971.426 313.233C969.836 313.233 968.643 313.775 967.848 314.86C967.071 315.926 966.682 317.688 966.682 320.145C966.682 322.513 967.071 324.256 967.848 325.377C968.625 326.497 969.818 327.057 971.426 327.057ZM991.914 330.581C990.36 330.581 989.041 330.328 987.957 329.822C986.873 329.298 985.987 328.593 985.3 327.708C984.614 326.804 984.108 325.774 983.782 324.618C983.475 323.443 983.322 322.214 983.322 320.931V319.413C983.322 317.588 983.629 315.944 984.243 314.48C984.858 313.016 985.797 311.86 987.062 311.011C988.327 310.143 989.945 309.709 991.914 309.709C993.866 309.709 995.474 310.143 996.739 311.011C998.004 311.86 998.935 313.016 999.531 314.48C1000.15 315.944 1000.45 317.588 1000.45 319.413V320.931C1000.45 322.214 1000.29 323.443 999.965 324.618C999.658 325.774 999.161 326.804 998.474 327.708C997.805 328.593 996.929 329.298 995.845 329.822C994.76 330.328 993.45 330.581 991.914 330.581ZM991.914 327.057C993.523 327.057 994.706 326.506 995.465 325.404C996.224 324.284 996.604 322.549 996.604 320.2C996.604 317.706 996.215 315.926 995.438 314.86C994.661 313.775 993.486 313.233 991.914 313.233C990.324 313.233 989.131 313.775 988.336 314.86C987.559 315.926 987.171 317.688 987.171 320.145C987.171 322.513 987.559 324.256 988.336 325.377C989.113 326.497 990.306 327.057 991.914 327.057ZM1013.73 323.994V320.66H1017.58C1018.35 320.66 1019 320.507 1019.53 320.2C1020.07 319.892 1020.48 319.468 1020.75 318.926C1021.04 318.383 1021.18 317.76 1021.18 317.055C1021.18 316.35 1021.04 315.727 1020.75 315.185C1020.48 314.643 1020.07 314.227 1019.53 313.938C1019 313.631 1018.35 313.477 1017.58 313.477H1013.73V310.143H1017.25C1018.91 310.143 1020.32 310.414 1021.48 310.956C1022.65 311.498 1023.55 312.275 1024.16 313.287C1024.78 314.281 1025.08 315.465 1025.08 316.838V317.272C1025.08 318.645 1024.78 319.838 1024.16 320.85C1023.55 321.844 1022.65 322.621 1021.48 323.181C1020.32 323.723 1018.91 323.994 1017.25 323.994H1013.73ZM1010.42 330.066V310.143H1014.27V330.066H1010.42ZM1028.26 330.066V310.279H1033.52L1038.48 322.097H1038.97L1043.9 310.279H1049.24V330.066H1045.42V313.179L1045.91 313.233L1040.57 326.027H1036.64L1031.27 313.233L1031.78 313.179V330.066H1028.26Z" fill="#5B5752"/>
<path d="M289.963 150.739C289.257 151.671 289.44 152.999 290.372 153.705C291.304 154.412 292.633 154.229 293.339 153.296L289.963 150.739ZM507.653 82.9815L506.538 84.7815C506.542 84.7841 506.546 84.7867 506.55 84.7893L507.653 82.9815ZM550.007 177.006L551.504 178.503L550.007 177.006ZM589.395 94.8404L589.09 92.7449L589.395 94.8404ZM824.033 102.04L808.735 82.9643L799.863 105.751L824.033 102.04ZM296.487 149.252C297.216 148.338 297.067 147.006 296.153 146.276C295.239 145.546 293.907 145.695 293.177 146.609L296.487 149.252ZM299.885 138.594C299.115 139.474 299.205 140.812 300.085 141.582C300.965 142.352 302.303 142.263 303.073 141.382L299.885 138.594ZM310.014 133.769C310.819 132.92 310.784 131.58 309.935 130.775C309.087 129.97 307.747 130.005 306.942 130.854L310.014 133.769ZM314.29 123.403C313.453 124.219 313.437 125.56 314.254 126.397C315.07 127.234 316.411 127.251 317.248 126.434L314.29 123.403ZM324.756 119.379C325.623 118.595 325.691 117.256 324.906 116.388C324.121 115.521 322.782 115.454 321.915 116.238L324.756 119.379ZM329.803 109.372C328.906 110.123 328.788 111.458 329.539 112.355C330.29 113.252 331.625 113.37 332.522 112.619L329.803 109.372ZM340.557 106.156C341.482 105.442 341.653 104.112 340.939 103.186C340.224 102.26 338.894 102.089 337.968 102.804L340.557 106.156ZM346.374 96.5838C345.42 97.2597 345.194 98.5814 345.87 99.5359C346.546 100.49 347.868 100.716 348.822 100.04L346.374 96.5838ZM357.345 94.2768C358.328 93.6432 358.611 92.3326 357.978 91.3495C357.344 90.3665 356.034 90.0832 355.051 90.7168L357.345 94.2768ZM363.992 85.2422C362.98 85.8292 362.636 87.1251 363.223 88.1367C363.81 89.1483 365.106 89.4925 366.117 88.9055L363.992 85.2422ZM375.126 83.9724C376.166 83.437 376.575 82.16 376.039 81.1202C375.504 80.0804 374.227 79.6716 373.187 80.2071L375.126 83.9724ZM382.642 75.6539C381.575 76.1322 381.097 77.3851 381.575 78.4524C382.054 79.5197 383.307 79.9972 384.374 79.5189L382.642 75.6539ZM393.85 75.5985C394.944 75.1839 395.494 73.9612 395.079 72.8676C394.665 71.774 393.442 71.2237 392.348 71.6384L393.85 75.5985ZM402.291 68.222C401.174 68.5661 400.546 69.7512 400.891 70.869C401.235 71.9868 402.42 72.614 403.537 72.2699L402.291 68.222ZM413.413 69.5949C414.552 69.3288 415.259 68.1898 414.993 67.051C414.727 65.9121 413.588 65.2046 412.449 65.4707L413.413 69.5949ZM422.789 63.4523C421.633 63.6331 420.843 64.7163 421.024 65.8718C421.205 67.0273 422.288 67.8175 423.444 67.6368L422.789 63.4523ZM433.586 66.4564C434.752 66.3679 435.626 65.3508 435.537 64.1845C435.449 63.0183 434.432 62.1447 433.265 62.2332L433.586 66.4564ZM443.807 61.872C442.638 61.8628 441.682 62.8034 441.673 63.9729C441.664 65.1425 442.604 66.098 443.774 66.1072L443.807 61.872ZM453.95 66.6272C455.114 66.7377 456.148 65.8835 456.258 64.7191C456.369 63.5548 455.514 62.5213 454.35 62.4108L453.95 66.6272ZM464.816 63.8729C463.666 63.66 462.561 64.4196 462.348 65.5696C462.135 66.7197 462.895 67.8245 464.045 68.0374L464.816 63.8729ZM473.981 70.3351C475.107 70.6485 476.275 69.9892 476.588 68.8624C476.902 67.7356 476.242 66.5681 475.116 66.2547L473.981 70.3351ZM485.14 69.5159C484.044 69.1069 482.825 69.6635 482.416 70.7592C482.007 71.8549 482.563 73.0747 483.659 73.4838L485.14 69.5159ZM493.049 77.4417C494.107 77.9396 495.369 77.4854 495.867 76.4271C496.364 75.3688 495.91 74.1073 494.852 73.6094L493.049 77.4417ZM504.2 78.4655C503.184 77.8868 501.891 78.2416 501.312 79.258C500.733 80.2743 501.088 81.5674 502.104 82.1461L504.2 78.4655ZM510.676 87.4017C511.654 88.0431 512.967 87.7703 513.608 86.7923C514.25 85.8143 513.977 84.5015 512.999 83.8601L510.676 87.4017ZM521.255 89.6306C520.316 88.9334 518.989 89.1293 518.292 90.0683C517.595 91.0073 517.791 92.3337 518.73 93.031L521.255 89.6306ZM526.453 99.1133C527.351 99.863 528.686 99.7431 529.436 98.8454C530.186 97.9478 530.066 96.6123 529.168 95.8626L526.453 99.1133ZM536.699 102.551C535.85 101.747 534.509 101.784 533.705 102.634C532.901 103.483 532.938 104.823 533.788 105.627L536.699 102.551ZM540.658 112.603C541.447 113.466 542.786 113.526 543.649 112.737C544.513 111.948 544.573 110.609 543.784 109.746L540.658 112.603ZM550.292 117.516C549.584 116.585 548.255 116.405 547.325 117.113C546.394 117.822 546.214 119.15 546.922 120.081L550.292 117.516ZM552.351 128.102C552.946 129.109 554.245 129.443 555.252 128.848C556.259 128.253 556.593 126.954 555.998 125.947L552.351 128.102ZM560.543 135.166C560.115 134.077 558.886 133.541 557.798 133.969C556.709 134.396 556.173 135.625 556.6 136.714L560.543 135.166ZM559.125 145.829C559.304 146.985 560.387 147.776 561.543 147.597C562.698 147.417 563.489 146.334 563.31 145.179L559.125 145.829ZM563.487 155.678C563.637 154.519 562.818 153.457 561.658 153.307C560.498 153.157 559.436 153.975 559.286 155.135L563.487 155.678ZM556.719 164.036C556.232 165.099 556.699 166.356 557.762 166.843C558.826 167.331 560.082 166.864 560.57 165.8L556.719 164.036ZM554.996 174.648C555.735 173.742 555.599 172.408 554.693 171.669C553.786 170.93 552.452 171.066 551.713 171.972L554.996 174.648ZM544.923 178.67C543.997 179.384 543.825 180.714 544.539 181.64C545.253 182.566 546.583 182.738 547.509 182.024L544.923 178.67ZM538.206 187.251C539.301 186.839 539.854 185.618 539.443 184.523C539.031 183.429 537.81 182.875 536.715 183.287L538.206 187.251ZM527.532 185.138C526.363 185.182 525.452 186.165 525.496 187.334C525.54 188.503 526.523 189.414 527.692 189.37L527.532 185.138ZM517.071 188.107C518.198 188.419 519.365 187.759 519.677 186.632C519.99 185.505 519.33 184.338 518.203 184.026L517.071 188.107ZM509.553 180.218C508.559 179.601 507.254 179.907 506.637 180.9C506.02 181.894 506.326 183.2 507.319 183.816L509.553 180.218ZM499.141 177.008C499.927 177.874 501.266 177.939 502.132 177.153C502.998 176.367 503.063 175.027 502.276 174.161L499.141 177.008ZM497.014 166.339C496.513 165.282 495.25 164.831 494.193 165.332C493.137 165.833 492.686 167.096 493.187 168.152L497.014 166.339ZM490.191 157.861C490.331 159.023 491.386 159.85 492.547 159.71C493.708 159.57 494.536 158.515 494.396 157.354L490.191 157.861ZM494.824 148.013C495.066 146.869 494.335 145.745 493.191 145.502C492.047 145.26 490.923 145.991 490.681 147.135L494.824 148.013ZM494.418 137.155C493.859 138.182 494.238 139.468 495.265 140.027C496.293 140.587 497.579 140.207 498.138 139.18L494.418 137.155ZM503.657 131.395C504.432 130.519 504.349 129.18 503.472 128.406C502.596 127.632 501.258 127.714 500.483 128.591L503.657 131.395ZM508.07 121.398C507.16 122.132 507.017 123.465 507.751 124.375C508.485 125.286 509.818 125.429 510.729 124.695L508.07 121.398ZM518.706 119.083C519.701 118.468 520.009 117.163 519.394 116.168C518.779 115.173 517.474 114.865 516.479 115.48L518.706 119.083ZM525.477 110.522C524.428 111.039 523.996 112.308 524.513 113.358C525.029 114.407 526.299 114.839 527.348 114.322L525.477 110.522ZM536.408 110.296C537.493 109.86 538.02 108.627 537.584 107.541C537.148 106.456 535.915 105.929 534.829 106.365L536.408 110.296ZM544.405 102.867C543.295 103.235 542.695 104.434 543.063 105.544C543.432 106.654 544.631 107.255 545.741 106.886L544.405 102.867ZM555.277 103.991C556.404 103.679 557.065 102.512 556.752 101.385C556.44 100.258 555.273 99.5973 554.146 99.9095L555.277 103.991ZM564.04 97.4012C562.9 97.665 562.19 98.8026 562.454 99.942C562.718 101.081 563.856 101.791 564.995 101.527L564.04 97.4012ZM574.869 99.4364C576.018 99.2147 576.769 98.104 576.547 96.9556C576.325 95.8073 575.215 95.0562 574.066 95.2779L574.869 99.4364ZM583.93 93.5358C582.775 93.7216 581.99 94.8083 582.176 95.963C582.362 97.1177 583.448 97.9032 584.603 97.7173L583.93 93.5358ZM594.61 96.2332C595.768 96.0705 596.575 94.9997 596.413 93.8415C596.25 92.6833 595.179 91.8763 594.021 92.039L594.61 96.2332ZM603.808 90.7172C602.648 90.8675 601.83 91.9296 601.98 93.0895C602.131 94.2493 603.193 95.0677 604.353 94.9174L603.808 90.7172ZM614.1 93.7076C615.262 93.57 616.092 92.5168 615.954 91.3554C615.816 90.194 614.763 89.3641 613.602 89.5018L614.1 93.7076ZM623.432 88.3921C622.27 88.5167 621.428 89.5605 621.553 90.7234C621.677 91.8863 622.721 92.728 623.884 92.6033L623.432 88.3921ZM633.687 91.6097C634.851 91.4985 635.705 90.4646 635.594 89.3003C635.483 88.1361 634.449 87.2824 633.284 87.3936L633.687 91.6097ZM643.142 86.5111C641.977 86.6084 641.111 87.6321 641.208 88.7976C641.305 89.9631 642.329 90.829 643.495 90.7317L643.142 86.5111ZM653.307 89.9725C654.474 89.8895 655.352 88.8765 655.269 87.7099C655.186 86.5432 654.173 85.6648 653.007 85.7479L653.307 89.9725ZM662.879 85.1077C661.711 85.1759 660.82 86.1778 660.888 87.3453C660.956 88.5129 661.958 89.404 663.126 89.3358L662.879 85.1077ZM672.95 88.8256C674.118 88.7726 675.022 87.7825 674.969 86.6142C674.916 85.4458 673.926 84.5416 672.758 84.5946L672.95 88.8256ZM682.644 84.2133C681.475 84.2504 680.557 85.2281 680.594 86.397C680.631 87.566 681.609 88.4836 682.778 88.4465L682.644 84.2133ZM692.609 88.2035C693.778 88.1829 694.71 87.2183 694.689 86.0489C694.669 84.8795 693.704 83.9482 692.535 83.9688L692.609 88.2035ZM702.428 83.867C701.258 83.8703 700.313 84.8212 700.316 85.9907C700.319 87.1603 701.27 88.1056 702.44 88.1023L702.428 83.867ZM712.265 88.149C713.435 88.1637 714.394 87.2275 714.409 86.058C714.424 84.8886 713.488 83.9287 712.318 83.914L712.265 88.149ZM722.199 84.117C721.03 84.0834 720.056 85.0039 720.022 86.173C719.988 87.3421 720.909 88.317 722.078 88.3506L722.199 84.117ZM731.901 88.7158C733.069 88.7694 734.06 87.8657 734.114 86.6973C734.167 85.529 733.263 84.5385 732.095 84.4849L731.901 88.7158ZM742.004 85.0288C740.837 84.9539 739.83 85.8394 739.755 87.0066C739.68 88.1737 740.566 89.1806 741.733 89.2554L742.004 85.0288ZM751.525 89.9782C752.69 90.0758 753.714 89.2102 753.812 88.0447C753.91 86.8792 753.044 85.8553 751.878 85.7577L751.525 89.9782ZM761.73 86.6862C760.567 86.5639 759.525 87.4078 759.402 88.5709C759.28 89.7341 760.124 90.7761 761.287 90.8983L761.73 86.6862ZM771.054 92.0378C772.214 92.1871 773.276 91.3677 773.425 90.2077C773.574 89.0478 772.755 87.9864 771.595 87.8371L771.054 92.0378ZM781.412 89.2281C780.256 89.0486 779.174 89.84 778.994 90.9957C778.815 92.1514 779.606 93.2338 780.762 93.4133L781.412 89.2281ZM790.401 95.055C791.551 95.2691 792.656 94.5107 792.871 93.3609C793.085 92.2111 792.326 91.1054 791.176 90.8913L790.401 95.055ZM800.916 92.8826C799.774 92.6268 798.642 93.3445 798.386 94.4857C798.13 95.6269 798.848 96.7595 799.989 97.0154L800.916 92.8826ZM809.493 99.3732C810.62 99.6834 811.786 99.0207 812.096 97.893C812.406 96.7653 811.744 95.5997 810.616 95.2895L809.493 99.3732ZM820.172 98.2658C819.07 97.8732 817.859 98.4482 817.466 99.5499C817.074 100.652 817.649 101.863 818.75 102.255L820.172 98.2658ZM293.339 153.296C294.34 151.975 295.39 150.625 296.487 149.252L293.177 146.609C292.059 148.01 290.987 149.387 289.963 150.739L293.339 153.296ZM303.073 141.382C305.258 138.884 307.574 136.34 310.014 133.769L306.942 130.854C304.463 133.466 302.108 136.053 299.885 138.594L303.073 141.382ZM317.248 126.434C319.658 124.082 322.163 121.725 324.756 119.379L321.915 116.238C319.281 118.621 316.738 121.014 314.29 123.403L317.248 126.434ZM332.522 112.619C335.128 110.438 337.808 108.279 340.557 106.156L337.968 102.804C335.174 104.962 332.45 107.155 329.803 109.372L332.522 112.619ZM348.822 100.04C351.605 98.0696 354.447 96.1446 357.345 94.2768L355.051 90.7168C352.099 92.6193 349.205 94.5789 346.374 96.5838L348.822 100.04ZM366.117 88.9055C369.072 87.191 372.076 85.543 375.126 83.9724L373.187 80.2071C370.072 81.8114 367.005 83.4936 363.992 85.2422L366.117 88.9055ZM384.374 79.5189C387.493 78.121 390.653 76.8107 393.85 75.5985L392.348 71.6384C389.071 72.8812 385.834 74.2235 382.642 75.6539L384.374 79.5189ZM403.537 72.2699C406.798 71.2662 410.091 70.371 413.413 69.5949L412.449 65.4707C409.029 66.2698 405.642 67.1907 402.291 68.222L403.537 72.2699ZM423.444 67.6368C426.801 67.1116 430.183 66.7147 433.586 66.4564L433.265 62.2332C429.747 62.5003 426.254 62.9104 422.789 63.4523L423.444 67.6368ZM443.774 66.1072C447.15 66.1338 450.543 66.3038 453.95 66.6272L454.35 62.4108C450.819 62.0756 447.304 61.8995 443.807 61.872L443.774 66.1072ZM464.045 68.0374C467.348 68.6489 470.661 69.4118 473.981 70.3351L475.116 66.2547C471.675 65.2978 468.241 64.5069 464.816 63.8729L464.045 68.0374ZM483.659 73.4838C486.785 74.651 489.916 75.9678 493.049 77.4417L494.852 73.6094C491.615 72.0862 488.377 70.7242 485.14 69.5159L483.659 73.4838ZM502.104 82.1461C503.582 82.9876 505.06 83.8658 506.538 84.7815L508.769 81.1815C507.247 80.2383 505.724 79.3332 504.2 78.4655L502.104 82.1461ZM506.55 84.7893C507.883 85.6024 509.262 86.4745 510.676 87.4017L512.999 83.8601C511.547 82.9082 510.129 82.0114 508.756 81.1736L506.55 84.7893ZM518.73 93.031C521.284 94.9275 523.877 96.9612 526.453 99.1133L529.168 95.8626C526.527 93.6564 523.871 91.5729 521.255 89.6306L518.73 93.031ZM533.788 105.627C536.157 107.87 538.462 110.201 540.658 112.603L543.784 109.746C541.514 107.261 539.136 104.858 536.699 102.551L533.788 105.627ZM546.922 120.081C548.921 122.707 550.747 125.387 552.351 128.102L555.998 125.947C554.299 123.073 552.378 120.256 550.292 117.516L546.922 120.081ZM556.6 136.714C557.793 139.751 558.653 142.797 559.125 145.829L563.31 145.179C562.784 141.8 561.833 138.453 560.543 135.166L556.6 136.714ZM559.286 155.135C558.901 158.119 558.069 161.091 556.719 164.036L560.57 165.8C562.097 162.467 563.047 159.082 563.487 155.678L559.286 155.135ZM551.713 171.972C550.748 173.157 549.682 174.336 548.509 175.508L551.504 178.503C552.773 177.234 553.936 175.949 554.996 174.648L551.713 171.972ZM548.509 175.508C547.338 176.679 546.141 177.731 544.923 178.67L547.509 182.024C548.874 180.971 550.208 179.799 551.504 178.503L548.509 175.508ZM536.715 183.287C533.679 184.429 530.59 185.023 527.532 185.138L527.692 189.37C531.193 189.238 534.733 188.557 538.206 187.251L536.715 183.287ZM518.203 184.026C515.159 183.181 512.242 181.887 509.553 180.218L507.319 183.816C510.339 185.691 513.626 187.151 517.071 188.107L518.203 184.026ZM502.276 174.161C500.147 171.816 498.361 169.181 497.014 166.339L493.187 168.152C494.72 171.388 496.744 174.368 499.141 177.008L502.276 174.161ZM494.396 157.354C494.032 154.346 494.145 151.212 494.824 148.013L490.681 147.135C489.904 150.795 489.772 154.398 490.191 157.861L494.396 157.354ZM498.138 139.18C499.548 136.591 501.37 133.984 503.657 131.395L500.483 128.591C498 131.401 495.99 134.267 494.418 137.155L498.138 139.18ZM510.729 124.695C513.092 122.79 515.743 120.914 518.706 119.083L516.479 115.48C513.378 117.397 510.581 119.374 508.07 121.398L510.729 124.695ZM527.348 114.322C530.157 112.939 533.174 111.594 536.408 110.296L534.829 106.365C531.503 107.701 528.388 109.089 525.477 110.522L527.348 114.322ZM545.741 106.886C548.762 105.882 551.939 104.916 555.277 103.991L554.146 99.9095C550.743 100.852 547.497 101.839 544.405 102.867L545.741 106.886ZM564.995 101.527C568.16 100.795 571.45 100.097 574.869 99.4364L574.066 95.2779C570.598 95.9477 567.257 96.6564 564.04 97.4012L564.995 101.527ZM584.603 97.7173C586.275 97.4484 587.974 97.1878 589.701 96.9359L589.09 92.7449C587.342 92.9997 585.623 93.2635 583.93 93.5358L584.603 97.7173ZM589.701 96.9359C591.345 96.6961 592.982 96.4619 594.61 96.2332L594.021 92.039C592.385 92.2688 590.741 92.504 589.09 92.7449L589.701 96.9359ZM604.353 94.9174C607.636 94.4918 610.885 94.0888 614.1 93.7076L613.602 89.5018C610.371 89.8847 607.107 90.2896 603.808 90.7172L604.353 94.9174ZM623.884 92.6033C627.189 92.2491 630.457 91.9182 633.687 91.6097L633.284 87.3936C630.038 87.7036 626.754 88.0361 623.432 88.3921L623.884 92.6033ZM643.495 90.7317C646.808 90.4551 650.078 90.2023 653.307 89.9725L653.007 85.7479C649.76 85.9789 646.472 86.233 643.142 86.5111L643.495 90.7317ZM663.126 89.3358C666.448 89.1416 669.722 88.9719 672.95 88.8256L672.758 84.5946C669.512 84.7417 666.219 84.9124 662.879 85.1077L663.126 89.3358ZM682.778 88.4465C686.109 88.3408 689.386 88.2602 692.609 88.2035L692.535 83.9688C689.292 84.0259 685.995 84.1069 682.644 84.2133L682.778 88.4465ZM702.44 88.1023C705.778 88.0927 709.053 88.1088 712.265 88.149L712.318 83.914C709.084 83.8735 705.787 83.8573 702.428 83.867L702.44 88.1023ZM722.078 88.3506C725.427 88.4467 728.702 88.5692 731.901 88.7158L732.095 84.4849C728.871 84.3372 725.573 84.2138 722.199 84.117L722.078 88.3506ZM741.733 89.2554C745.089 89.4707 748.353 89.7126 751.525 89.9782L751.878 85.7577C748.679 85.4897 745.388 85.2458 742.004 85.0288L741.733 89.2554ZM761.287 90.8983C764.663 91.253 767.919 91.6343 771.054 92.0378L771.595 87.8371C768.427 87.4293 765.138 87.0443 761.73 86.6862L761.287 90.8983ZM780.762 93.4133C784.144 93.9385 787.357 94.4881 790.401 95.055L791.176 90.8913C788.09 90.3163 784.834 89.7596 781.412 89.2281L780.762 93.4133ZM799.989 97.0154C803.448 97.7909 806.617 98.5821 809.493 99.3732L810.616 95.2895C807.67 94.4791 804.435 93.6718 800.916 92.8826L799.989 97.0154Z" fill="#A69F9F"/>
<path d="M185.42 155.594C180.393 174.973 170.323 191.84 155.211 206.193C140.099 220.547 121.918 228.284 100.668 229.405C79.4188 230.527 62.3731 224.951 49.5315 212.678C36.6898 200.405 27.3629 186.74 21.5508 171.681C15.7386 156.623 15.0006 139.497 19.3366 120.303C23.6727 101.109 36.4668 87.0868 57.7191 78.2366C78.9713 69.3865 98.6868 69.449 116.866 78.4242C135.044 87.3995 152.271 97.6601 168.547 109.206C184.823 120.752 190.447 136.215 185.42 155.594Z" fill="#5935A4" fill-opacity="0.3"/>
<circle cx="21.1835" cy="85.3701" r="6.78371" fill="#5935A4"/>
<rect x="21.701" y="67.6355" width="5.52747" height="17.3933" rx="2.76374" transform="rotate(24.1105 21.701 67.6355)" fill="#5935A4"/>
<circle cx="37.2635" cy="85.3701" r="6.78371" fill="#5935A4"/>
<rect x="37.781" y="67.6355" width="5.52747" height="17.3933" rx="2.76374" transform="rotate(24.1105 37.781 67.6355)" fill="#5935A4"/>
<circle cx="180.489" cy="207.63" r="7.559" transform="rotate(-180 180.489 207.63)" fill="#5935A4"/>
<rect x="179.913" y="227.391" width="6.15918" height="19.3811" rx="3.07959" transform="rotate(-155.889 179.913 227.391)" fill="#5935A4"/>
<circle cx="162.572" cy="207.63" r="7.559" transform="rotate(-180 162.572 207.63)" fill="#5935A4"/>
<rect x="161.995" y="227.391" width="6.15918" height="19.3811" rx="3.07959" transform="rotate(-155.889 161.995 227.391)" fill="#5935A4"/>
<rect x="38.9653" y="116.765" width="124.519" height="7.6236" rx="3.8118" fill="white"/>
<rect x="38.9653" y="130.318" width="86.4008" height="7.6236" rx="3.8118" fill="white"/>
<rect x="38.9653" y="143.872" width="62.683" height="7.6236" rx="3.8118" fill="white"/>
<rect x="108.425" y="143.872" width="44.8946" height="7.6236" rx="3.8118" fill="white"/>
<rect x="38.9653" y="157.425" width="98.2598" height="7.6236" rx="3.8118" fill="white"/>
<rect x="38.9653" y="170.978" width="98.2598" height="7.6236" rx="3.8118" fill="white"/>
<rect x="142.307" y="170.978" width="21.1767" height="7.6236" rx="3.8118" fill="white"/>
<path d="M1129.87 170.612C1118.71 201.592 1095.5 221.715 1060.22 230.983C1024.95 240.25 989.573 240.338 954.097 231.247C918.621 222.157 898.421 202.033 893.496 170.877C888.572 139.721 890.933 110.639 900.581 83.6314C910.229 56.6237 930.43 36.412 961.182 22.9964C991.935 9.58074 1020.88 11.1694 1048.01 27.7624C1075.15 44.3554 1098.36 64.5671 1117.66 88.3975C1136.96 112.228 1141.03 139.633 1129.87 170.612Z" fill="#F34C78" fill-opacity="0.14"/>
<g opacity="0.75">
<path d="M917.154 98.4393C904.477 136.874 911.872 147.824 917.154 148.495C968.869 129.378 1026.07 144.889 1048.2 155.035L1072.6 102.967C1035.37 86.6675 1004.27 44.8626 994.375 25.9975L981.798 5.37168C968.718 1.95081 953.039 23.566 946.835 34.8012C937.78 45.6674 923.275 81.7542 917.154 98.4393Z" fill="#F34C78"/>
<path d="M1056.46 174.01L1061.42 161.543L1095.97 161.211L1093.57 181.82L1085.08 182.293L1068.01 213.182C1061.84 223.437 1048.62 215.237 1042.78 209.856L1063.99 178.766L1056.46 174.01Z" fill="#F34C78"/>
<path d="M1136 155.395L1125.18 148.855L1116.13 162.689L1131.72 167.468L1136 155.395Z" fill="#F34C78"/>
<ellipse cx="947.557" cy="73.2117" rx="15.9326" ry="73.0965" transform="rotate(24.1683 947.557 73.2117)" fill="#C62952"/>
<path d="M938.786 68.7583C926.914 90.4909 939.289 100.116 946.835 101.961C951.463 100.15 961.843 72.5313 966.455 58.9485C950.357 49.0884 942.811 62.2185 938.786 68.7583Z" fill="#F34C78"/>
<path d="M1045.45 158.664L1073.62 97.5416L1118.14 121.689C1131.02 127.927 1129.38 141.057 1126.95 146.842L1118.14 164.198C1110.9 179.894 1097.52 177.949 1091.73 175.014L1045.45 158.664Z" fill="#C62952"/>
</g>
<path d="M881.806 85.9106C881.093 85.3736 881.387 84.2427 882.272 84.1213L888.631 83.248C888.884 83.2133 889.141 83.2766 889.348 83.4247L894.411 87.0374C895.202 87.6019 894.805 88.849 893.833 88.8514L886.071 88.8706C885.853 88.8711 885.641 88.8004 885.467 88.6693L881.806 85.9106Z" fill="#FCDEDE"/>
<path d="M386 446H443.643L498.253 527.749L441.216 530.189L386 446Z" fill="#FF7F4D"/>
<path d="M558 446H499.427L443.937 527.749L501.893 530.189L558 446Z" fill="#F79670"/>
<circle cx="474.263" cy="570.474" r="54.7684" fill="#FFCF54"/>
<circle cx="474.5" cy="570.5" r="33" stroke="#B58E2A" stroke-width="9"/>
<path d="M675 595.5L687.542 614.892L698.065 594.334L675 595.5ZM679.581 600.092C680.565 600.592 681.769 600.2 682.27 599.216C682.771 598.231 682.379 597.027 681.395 596.526L679.581 600.092ZM692.249 601.98C691.259 601.489 690.059 601.893 689.568 602.883C689.078 603.872 689.482 605.073 690.471 605.563L692.249 601.98ZM701.225 610.83C702.22 611.31 703.416 610.894 703.896 609.899C704.377 608.905 703.96 607.709 702.966 607.228L701.225 610.83ZM713.546 612.273C712.546 611.803 711.355 612.232 710.885 613.232C710.414 614.231 710.844 615.423 711.843 615.893L713.546 612.273ZM722.391 620.784C723.396 621.244 724.582 620.801 725.042 619.797C725.501 618.792 725.059 617.606 724.054 617.146L722.391 620.784ZM735.209 622.166C734.199 621.718 733.018 622.175 732.57 623.185C732.123 624.195 732.58 625.376 733.59 625.823L735.209 622.166ZM744.631 630.631C745.646 631.066 746.822 630.595 747.257 629.58C747.691 628.564 747.221 627.389 746.205 626.954L744.631 630.631ZM757.044 631.515C756.023 631.093 754.854 631.578 754.432 632.599C754.01 633.62 754.495 634.789 755.516 635.211L757.044 631.515ZM766.246 639.566C767.272 639.975 768.435 639.475 768.844 638.448C769.253 637.422 768.752 636.259 767.726 635.85L766.246 639.566ZM779.123 640.297C778.091 639.902 776.935 640.42 776.541 641.452C776.147 642.483 776.664 643.639 777.696 644.033L779.123 640.297ZM788.975 648.246C790.012 648.625 791.16 648.091 791.539 647.053C791.918 646.016 791.384 644.867 790.346 644.489L788.975 648.246ZM801.388 648.426C800.345 648.063 799.205 648.615 798.842 649.658C798.479 650.701 799.031 651.841 800.074 652.204L801.388 648.426ZM811.198 655.978C812.247 656.325 813.378 655.755 813.725 654.707C814.071 653.658 813.502 652.527 812.453 652.18L811.198 655.978ZM824.035 655.897C822.98 655.568 821.859 656.157 821.531 657.212C821.202 658.266 821.791 659.387 822.846 659.716L824.035 655.897ZM834.285 663.166C835.346 663.475 836.456 662.867 836.765 661.806C837.075 660.746 836.466 659.635 835.406 659.326L834.285 663.166ZM846.568 662.473C845.502 662.183 844.403 662.812 844.113 663.878C843.823 664.944 844.452 666.043 845.518 666.333L846.568 662.473ZM857.246 669.397C858.318 669.666 859.404 669.015 859.672 667.943C859.941 666.872 859.289 665.785 858.218 665.517L857.246 669.397ZM869.863 668.304C868.786 668.058 867.714 668.732 867.468 669.809C867.223 670.886 867.897 671.958 868.974 672.204L869.863 668.304ZM880.462 674.693C881.544 674.915 882.601 674.218 882.823 673.136C883.045 672.054 882.348 670.997 881.266 670.775L880.462 674.693ZM892.947 673.029C891.86 672.832 890.82 673.555 890.624 674.641C890.427 675.728 891.149 676.769 892.236 676.965L892.947 673.029ZM904.169 678.966C905.26 679.135 906.282 678.387 906.451 677.296C906.619 676.204 905.871 675.182 904.78 675.013L904.169 678.966ZM916.333 676.647C915.238 676.507 914.236 677.281 914.096 678.377C913.955 679.473 914.73 680.474 915.826 680.615L916.333 676.647ZM927.778 681.973C928.877 682.083 929.857 681.28 929.966 680.181C930.075 679.081 929.272 678.102 928.173 677.993L927.778 681.973ZM940.068 678.993C938.966 678.918 938.011 679.749 937.936 680.851C937.86 681.953 938.692 682.908 939.794 682.984L940.068 678.993ZM951.495 683.606C952.598 683.647 953.526 682.785 953.568 681.682C953.609 680.578 952.747 679.65 951.644 679.608L951.495 683.606ZM963.694 679.851C962.59 679.848 961.692 680.741 961.689 681.846C961.686 682.95 962.579 683.848 963.684 683.851L963.694 679.851ZM975.618 683.668C976.722 683.631 977.587 682.706 977.55 681.602C977.513 680.498 976.588 679.634 975.484 679.671L975.618 683.668ZM987.226 679.053C986.125 679.132 985.296 680.09 985.375 681.191C985.455 682.293 986.412 683.122 987.514 683.042L987.226 679.053ZM999.564 681.924C1000.66 681.799 1001.45 680.808 1001.32 679.711C1001.2 678.613 1000.21 677.825 999.111 677.95L999.564 681.924ZM1010.61 676.392C1009.52 676.564 1008.77 677.588 1008.94 678.679C1009.11 679.77 1010.14 680.515 1011.23 680.343L1010.61 676.392ZM1023.24 678.162C1024.32 677.939 1025.02 676.881 1024.79 675.799C1024.57 674.717 1023.51 674.021 1022.43 674.245L1023.24 678.162ZM1033.79 671.615C1032.72 671.89 1032.08 672.981 1032.35 674.05C1032.63 675.12 1033.72 675.764 1034.79 675.489L1033.79 671.615ZM1046.46 672.163C1047.51 671.832 1048.1 670.71 1047.77 669.656C1047.44 668.602 1046.31 668.016 1045.26 668.346L1046.46 672.163ZM1056.33 664.548C1055.29 664.935 1054.77 666.087 1055.15 667.121C1055.54 668.156 1056.69 668.681 1057.73 668.295L1056.33 664.548ZM1068.94 663.74C1069.95 663.295 1070.41 662.114 1069.96 661.103C1069.52 660.092 1068.34 659.634 1067.32 660.079L1068.94 663.74ZM1077.9 655.055C1076.91 655.558 1076.52 656.763 1077.03 657.747C1077.53 658.73 1078.74 659.12 1079.72 658.617L1077.9 655.055ZM1090.32 652.783C1091.27 652.222 1091.59 650.995 1091.02 650.044C1090.46 649.093 1089.24 648.778 1088.29 649.339L1090.32 652.783ZM1098.17 643.087C1097.25 643.706 1097.01 644.949 1097.63 645.864C1098.25 646.779 1099.49 647.019 1100.41 646.4L1098.17 643.087ZM1110.22 639.302C1111.09 638.627 1111.26 637.371 1110.58 636.497C1109.9 635.623 1108.65 635.462 1107.77 636.137L1110.22 639.302ZM1116.83 628.677C1116 629.406 1115.92 630.67 1116.64 631.5C1117.37 632.329 1118.64 632.411 1119.47 631.683L1116.83 628.677ZM1128.28 623.436C1129.06 622.656 1129.06 621.39 1128.28 620.608C1127.5 619.825 1126.24 619.823 1125.46 620.603L1128.28 623.436ZM1133.53 612.04C1132.79 612.867 1132.87 614.131 1133.7 614.864C1134.52 615.596 1135.79 615.519 1136.52 614.692L1133.53 612.04ZM1144.22 605.442C1144.9 604.572 1144.74 603.315 1143.87 602.635C1143 601.955 1141.74 602.109 1141.06 602.979L1144.22 605.442ZM1148.04 593.473C1147.42 594.383 1147.64 595.628 1148.55 596.255C1149.46 596.881 1150.71 596.652 1151.34 595.742L1148.04 593.473ZM1157.86 585.653C1158.43 584.708 1158.13 583.479 1157.18 582.906C1156.24 582.334 1155.01 582.636 1154.44 583.581L1157.86 585.653ZM1160.26 573.31C1159.74 574.286 1160.12 575.496 1161.09 576.014C1162.07 576.531 1163.28 576.16 1163.8 575.184L1160.26 573.31ZM1169.13 564.419C1169.59 563.416 1169.15 562.228 1168.15 561.765C1167.15 561.302 1165.96 561.739 1165.5 562.742L1169.13 564.419ZM1170.16 551.892C1169.75 552.918 1170.25 554.082 1171.28 554.49C1172.3 554.899 1173.47 554.399 1173.87 553.373L1170.16 551.892ZM1178.03 542.099C1178.39 541.053 1177.83 539.917 1176.78 539.562C1175.73 539.206 1174.6 539.766 1174.24 540.812L1178.03 542.099ZM1177.76 529.54C1177.46 530.602 1178.07 531.709 1179.14 532.011C1180.2 532.314 1181.3 531.698 1181.61 530.636L1177.76 529.54ZM1184.61 519C1184.86 517.924 1184.2 516.849 1183.12 516.599C1182.04 516.348 1180.97 517.017 1180.72 518.093L1184.61 519ZM1183.12 506.53C1182.92 507.617 1183.64 508.659 1184.73 508.858C1185.81 509.058 1186.86 508.338 1187.06 507.252L1183.12 506.53ZM1188.95 495.386C1189.1 494.292 1188.33 493.284 1187.23 493.135C1186.14 492.987 1185.13 493.754 1184.98 494.848L1188.95 495.386ZM1186.3 483.098C1186.21 484.198 1187.02 485.17 1188.12 485.268C1189.22 485.367 1190.19 484.555 1190.29 483.454L1186.3 483.098ZM1191.09 471.488C1191.13 470.384 1190.28 469.45 1189.18 469.402C1188.07 469.353 1187.14 470.208 1187.09 471.312L1191.09 471.488ZM1187.34 459.47C1187.34 460.575 1188.24 461.469 1189.35 461.468C1190.45 461.466 1191.34 460.57 1191.34 459.465L1187.34 459.47ZM1191.06 447.487C1191.01 446.384 1190.07 445.531 1188.97 445.582C1187.86 445.633 1187.01 446.569 1187.06 447.672L1191.06 447.487ZM1186.24 435.858C1186.35 436.958 1187.32 437.768 1188.42 437.666C1189.52 437.564 1190.33 436.59 1190.23 435.49L1186.24 435.858ZM1188.84 423.554C1188.69 422.46 1187.68 421.697 1186.58 421.85C1185.49 422.003 1184.73 423.014 1184.88 424.108L1188.84 423.554ZM1182.97 412.491C1183.18 413.577 1184.22 414.29 1185.31 414.084C1186.39 413.879 1187.11 412.833 1186.9 411.747L1182.97 412.491ZM1184.36 399.949C1184.1 398.876 1183.02 398.216 1181.95 398.476C1180.87 398.737 1180.21 399.818 1180.47 400.891L1184.36 399.949ZM1177.39 389.498C1177.71 390.556 1178.83 391.157 1179.88 390.84C1180.94 390.524 1181.54 389.409 1181.23 388.351L1177.39 389.498ZM1177.47 376.973C1177.1 375.935 1175.95 375.397 1174.91 375.773C1173.87 376.149 1173.33 377.296 1173.71 378.335L1177.47 376.973ZM1169.34 367.321C1169.78 368.334 1170.96 368.8 1171.97 368.36C1172.98 367.921 1173.45 366.743 1173.01 365.73L1169.34 367.321ZM1167.85 354.841C1167.35 353.859 1166.14 353.474 1165.16 353.981C1164.18 354.488 1163.79 355.694 1164.3 356.676L1167.85 354.841ZM1158.55 346.477C1159.13 347.418 1160.36 347.712 1161.3 347.133C1162.24 346.555 1162.54 345.323 1161.96 344.382L1158.55 346.477ZM1155.19 334.338C1154.54 333.45 1153.28 333.261 1152.4 333.918C1151.51 334.574 1151.32 335.826 1151.98 336.714L1155.19 334.338ZM1144.56 327.605C1145.3 328.426 1146.56 328.493 1147.38 327.754C1148.2 327.015 1148.27 325.75 1147.53 324.929L1144.56 327.605ZM690.471 605.563C694.079 607.353 697.663 609.108 701.225 610.83L702.966 607.228C699.416 605.513 695.844 603.764 692.249 601.98L690.471 605.563ZM711.843 615.893C715.382 617.557 718.898 619.188 722.391 620.784L724.054 617.146C720.574 615.556 717.071 613.931 713.546 612.273L711.843 615.893ZM733.59 625.823C737.296 627.464 740.976 629.067 744.631 630.631L746.205 626.954C742.566 625.396 738.901 623.8 735.209 622.166L733.59 625.823ZM755.516 635.211C759.118 636.7 762.695 638.152 766.246 639.566L767.726 635.85C764.191 634.442 760.631 632.997 757.044 631.515L755.516 635.211ZM777.696 644.033C781.485 645.48 785.245 646.884 788.975 648.246L790.346 644.489C786.635 643.134 782.894 641.737 779.123 640.297L777.696 644.033ZM800.074 652.204C803.813 653.505 807.521 654.763 811.198 655.978L812.453 652.18C808.796 650.972 805.108 649.721 801.388 648.426L800.074 652.204ZM822.846 659.716C826.693 660.913 830.507 662.063 834.285 663.166L835.406 659.326C831.65 658.23 827.86 657.087 824.035 655.897L822.846 659.716ZM845.518 666.333C849.466 667.407 853.375 668.428 857.246 669.397L858.218 665.517C854.374 664.554 850.49 663.54 846.568 662.473L845.518 666.333ZM868.974 672.204C872.843 673.086 876.672 673.916 880.462 674.693L881.266 670.775C877.505 670.003 873.704 669.18 869.863 668.304L868.974 672.204ZM892.236 676.965C896.26 677.692 900.237 678.359 904.169 678.966L904.78 675.013C900.882 674.411 896.938 673.75 892.947 673.029L892.236 676.965ZM915.826 680.615C919.86 681.131 923.844 681.583 927.778 681.973L928.173 677.993C924.277 677.607 920.331 677.158 916.333 676.647L915.826 680.615ZM939.794 682.984C943.747 683.255 947.647 683.462 951.495 683.606L951.644 679.608C947.838 679.466 943.98 679.262 940.068 678.993L939.794 682.984ZM963.684 683.851C967.722 683.861 971.7 683.8 975.618 683.668L975.484 679.671C971.615 679.801 967.685 679.861 963.694 679.851L963.684 683.851ZM987.514 683.042C991.599 682.748 995.615 682.374 999.564 681.924L999.111 677.95C995.218 678.394 991.257 678.762 987.226 679.053L987.514 683.042ZM1011.23 680.343C1015.31 679.7 1019.31 678.972 1023.24 678.162L1022.43 674.245C1018.57 675.042 1014.63 675.759 1010.61 676.392L1011.23 680.343ZM1034.79 675.489C1038.76 674.467 1042.65 673.357 1046.46 672.163L1045.26 668.346C1041.52 669.519 1037.7 670.61 1033.79 671.615L1034.79 675.489ZM1057.73 668.295C1061.55 666.864 1065.29 665.344 1068.94 663.74L1067.32 660.079C1063.75 661.653 1060.08 663.144 1056.33 664.548L1057.73 668.295ZM1079.72 658.617C1083.35 656.76 1086.88 654.814 1090.32 652.783L1088.29 649.339C1084.92 651.328 1081.46 653.235 1077.9 655.055L1079.72 658.617ZM1100.41 646.4C1103.78 644.118 1107.05 641.75 1110.22 639.302L1107.77 636.137C1104.67 638.534 1101.47 640.852 1098.17 643.087L1100.41 646.4ZM1119.47 631.683C1122.51 629.011 1125.45 626.26 1128.28 623.436L1125.46 620.603C1122.68 623.368 1119.81 626.061 1116.83 628.677L1119.47 631.683ZM1136.52 614.692C1139.19 611.677 1141.76 608.591 1144.22 605.442L1141.06 602.979C1138.65 606.065 1136.14 609.087 1133.53 612.04L1136.52 614.692ZM1151.34 595.742C1153.61 592.436 1155.79 589.071 1157.86 585.653L1154.44 583.581C1152.4 586.933 1150.27 590.232 1148.04 593.473L1151.34 595.742ZM1163.8 575.184C1165.68 571.641 1167.45 568.05 1169.13 564.419L1165.5 562.742C1163.85 566.308 1162.11 569.832 1160.26 573.31L1163.8 575.184ZM1173.87 553.373C1175.36 549.648 1176.74 545.887 1178.03 542.099L1174.24 540.812C1172.98 544.536 1171.62 548.232 1170.16 551.892L1173.87 553.373ZM1181.61 530.636C1182.71 526.777 1183.71 522.897 1184.61 519L1180.72 518.093C1179.83 521.927 1178.84 525.745 1177.76 529.54L1181.61 530.636ZM1187.06 507.252C1187.78 503.304 1188.41 499.347 1188.95 495.386L1184.98 494.848C1184.45 498.748 1183.83 502.644 1183.12 506.53L1187.06 507.252ZM1190.29 483.454C1190.65 479.46 1190.91 475.468 1191.09 471.488L1187.09 471.312C1186.92 475.233 1186.66 479.164 1186.3 483.098L1190.29 483.454ZM1191.34 459.465C1191.34 455.453 1191.24 451.458 1191.06 447.487L1187.06 447.672C1187.24 451.583 1187.34 455.518 1187.34 459.47L1191.34 459.465ZM1190.23 435.49C1189.86 431.476 1189.39 427.494 1188.84 423.554L1184.88 424.108C1185.42 427.986 1185.88 431.906 1186.24 435.858L1190.23 435.49ZM1186.9 411.747C1186.15 407.76 1185.3 403.825 1184.36 399.949L1180.47 400.891C1181.4 404.7 1182.23 408.569 1182.97 412.491L1186.9 411.747ZM1181.23 388.351C1180.07 384.482 1178.82 380.687 1177.47 376.973L1173.71 378.335C1175.03 381.975 1176.26 385.699 1177.39 389.498L1181.23 388.351ZM1173.01 365.73C1171.39 361.994 1169.67 358.36 1167.85 354.841L1164.3 356.676C1166.07 360.113 1167.76 363.665 1169.34 367.321L1173.01 365.73ZM1161.96 344.382C1159.81 340.888 1157.55 337.535 1155.19 334.338L1151.98 336.714C1154.27 339.816 1156.46 343.074 1158.55 346.477L1161.96 344.382ZM1147.53 324.929C1146.19 323.434 1144.81 321.986 1143.41 320.586L1140.59 323.414C1141.93 324.763 1143.26 326.161 1144.56 327.605L1147.53 324.929Z" fill="#A69F9F"/>
</svg>
