<svg width="74" height="73" viewBox="0 0 74 73" fill="none" xmlns="http://www.w3.org/2000/svg">
<path d="M62.8842 8.24463H10.9925C9.74455 8.24463 8.73633 9.25285 8.73633 10.5008V62.3925C8.73633 63.6404 9.74455 64.6486 10.9925 64.6486H62.8842C64.1321 64.6486 65.1403 63.6404 65.1403 62.3925V10.5008C65.1403 9.25285 64.1321 8.24463 62.8842 8.24463ZM56.3695 24.7075H51.8642C48.3319 24.7075 47.648 26.3856 47.648 28.8532V34.2892H56.0804L54.9805 42.7991H47.648V64.6486H38.8561V42.8062H31.5024V34.2892H38.8561V28.0142C38.8561 20.7311 43.3049 16.7616 49.8055 16.7616C52.9218 16.7616 55.5939 16.9943 56.3765 17.1001V24.7075H56.3695Z" fill="#FDF6EF"/>
</svg>
