<svg width="42" height="21" viewBox="0 0 42 21" fill="none" xmlns="http://www.w3.org/2000/svg">
<path d="M16.8162 14.1716L5.40948 7.59256C5.03962 7.38021 4.63155 7.24278 4.20858 7.18813C3.78561 7.13347 3.356 7.16265 2.94431 7.27403C2.53262 7.3854 2.1469 7.57678 1.80917 7.83722C1.47144 8.09766 1.18831 8.42207 0.97595 8.79193C0.763593 9.16179 0.626165 9.56986 0.571513 9.99283C0.516861 10.4158 0.54606 10.8454 0.657433 11.2571C0.768806 11.6688 0.960174 12.0545 1.22062 12.3922C1.48106 12.73 1.80547 13.0131 2.17534 13.2255L13.5821 19.8045C14.3272 20.2347 15.2128 20.3512 16.044 20.1285C16.8751 19.9058 17.5837 19.362 18.0139 18.6168C18.4441 17.8716 18.5607 16.986 18.3379 16.1549C18.1152 15.3238 17.5715 14.6152 16.8263 14.185L16.8162 14.1716Z" fill="white"/>
<path d="M39.5357 7.59255L28.129 1.01689C27.3838 0.586685 26.4982 0.470132 25.6671 0.692858C24.836 0.915584 24.1273 1.45936 23.6971 2.20455C23.2669 2.94974 23.1504 3.8353 23.3731 4.66643C23.5958 5.49756 24.1396 6.20617 24.8848 6.63638L36.2915 13.212C37.0367 13.6422 37.9222 13.7588 38.7534 13.5361C39.5845 13.3134 40.2931 12.7696 40.7233 12.0244C41.1536 11.2792 41.2701 10.3936 41.0474 9.56249C40.8247 8.73136 40.2809 8.02275 39.5357 7.59255Z" fill="white"/>
<path d="M35.8419 13.9937L30.5244 10.924L24.8982 14.1715C24.5292 14.3846 24.2058 14.6682 23.9464 15.0062C23.6871 15.3442 23.4968 15.73 23.3865 16.1415C23.2762 16.553 23.2481 16.9822 23.3037 17.4047C23.3593 17.8271 23.4975 18.2344 23.7106 18.6034C23.9236 18.9724 24.2072 19.2958 24.5452 19.5552C24.8832 19.8145 25.269 20.0048 25.6805 20.1151C26.092 20.2254 26.5213 20.2535 26.9437 20.1979C27.3661 20.1423 27.7734 20.004 28.1424 19.791L37.3013 14.5037C36.7873 14.4263 36.2923 14.2533 35.8419 13.9937Z" fill="white"/>
<path d="M5.86583 6.81086L11.1901 9.87054L16.8163 6.62298C17.2169 6.42833 17.5732 6.15326 17.8629 5.81491C18.1526 5.47656 18.3695 5.08219 18.5001 4.65635C18.6307 4.23051 18.6723 3.78233 18.6221 3.33974C18.572 2.89714 18.4312 2.46963 18.2086 2.08381C17.9861 1.69799 17.6864 1.36212 17.3284 1.09716C16.9703 0.832195 16.5616 0.64381 16.1275 0.543721C15.6935 0.443632 15.2435 0.433991 14.8056 0.515401C14.3677 0.596812 13.9512 0.767521 13.5821 1.01691L4.42322 6.30426C4.93116 6.38293 5.42022 6.55467 5.86583 6.81086Z" fill="white"/>
</svg>
