<svg width="343" height="42" viewBox="0 0 343 42" fill="none" xmlns="http://www.w3.org/2000/svg">
<path d="M16.8162 14.1716L5.40948 7.59256C5.03962 7.38021 4.63155 7.24278 4.20858 7.18813C3.78561 7.13347 3.356 7.16265 2.94431 7.27403C2.53262 7.3854 2.1469 7.57678 1.80917 7.83722C1.47144 8.09766 1.18831 8.42207 0.97595 8.79193C0.763593 9.16179 0.626165 9.56986 0.571513 9.99283C0.516861 10.4158 0.54606 10.8454 0.657433 11.2571C0.768806 11.6688 0.960174 12.0545 1.22062 12.3922C1.48106 12.73 1.80547 13.0131 2.17534 13.2255L13.5821 19.8045C14.3272 20.2347 15.2128 20.3512 16.044 20.1285C16.8751 19.9058 17.5837 19.362 18.0139 18.6168C18.4441 17.8716 18.5607 16.986 18.3379 16.1549C18.1152 15.3238 17.5715 14.6152 16.8263 14.185L16.8162 14.1716Z" fill="white"/>
<path d="M39.5357 7.59255L28.129 1.01689C27.3838 0.586685 26.4982 0.470132 25.6671 0.692858C24.836 0.915584 24.1273 1.45936 23.6971 2.20455C23.2669 2.94974 23.1504 3.8353 23.3731 4.66643C23.5958 5.49756 24.1396 6.20617 24.8848 6.63638L36.2915 13.212C37.0367 13.6422 37.9222 13.7588 38.7534 13.5361C39.5845 13.3134 40.2931 12.7696 40.7233 12.0244C41.1536 11.2792 41.2701 10.3936 41.0474 9.56249C40.8247 8.73136 40.2809 8.02275 39.5357 7.59255Z" fill="white"/>
<path d="M35.8419 13.9937L30.5244 10.924L24.8982 14.1715C24.5292 14.3846 24.2058 14.6682 23.9464 15.0062C23.6871 15.3442 23.4968 15.73 23.3865 16.1415C23.2762 16.553 23.2481 16.9822 23.3037 17.4047C23.3593 17.8271 23.4975 18.2344 23.7106 18.6034C23.9236 18.9724 24.2072 19.2958 24.5452 19.5552C24.8832 19.8145 25.269 20.0048 25.6805 20.1151C26.092 20.2254 26.5213 20.2535 26.9437 20.1979C27.3661 20.1423 27.7734 20.004 28.1424 19.791L37.3013 14.5037C36.7873 14.4263 36.2923 14.2533 35.8419 13.9937Z" fill="white"/>
<path d="M5.86583 6.81086L11.1901 9.87054L16.8163 6.62298C17.2169 6.42833 17.5732 6.15326 17.8629 5.81491C18.1526 5.47656 18.3695 5.08219 18.5001 4.65635C18.6307 4.23051 18.6723 3.78233 18.6221 3.33974C18.572 2.89714 18.4312 2.46963 18.2086 2.08381C17.9861 1.69799 17.6864 1.36212 17.3284 1.09716C16.9703 0.832195 16.5616 0.64381 16.1275 0.543721C15.6935 0.443632 15.2435 0.433991 14.8056 0.515401C14.3677 0.596812 13.9512 0.767521 13.5821 1.01691L4.42322 6.30426C4.93116 6.38293 5.42022 6.55467 5.86583 6.81086Z" fill="white"/>
<path d="M53.9485 16.7951C52.788 16.1379 51.8278 15.1777 51.1706 14.0172C50.5019 12.8219 50.1507 11.4751 50.1507 10.1054C50.1507 8.73568 50.5019 7.38885 51.1706 6.19353C51.8278 5.03301 52.788 4.07287 53.9485 3.41567C55.1156 2.74484 56.4405 2.39741 57.7865 2.4092C58.834 2.40344 59.8728 2.59934 60.8462 2.98623C61.7466 3.33548 62.5514 3.8931 63.1947 4.61338L61.9399 5.86811C61.4619 5.27628 60.8422 4.8147 60.1383 4.52615C59.3943 4.21667 58.5958 4.05925 57.7899 4.06317C56.7772 4.05977 55.7809 4.31867 54.898 4.81467C54.0004 5.31459 53.2541 6.04701 52.7374 6.93498C52.2047 7.90314 51.9253 8.99025 51.9253 10.0953C51.9253 11.2004 52.2047 12.2875 52.7374 13.2557C53.2541 14.1436 54.0004 14.876 54.898 15.3759C56.0164 16.0414 57.3262 16.3109 58.6165 16.1411C59.9067 15.9713 61.1022 15.372 62.0104 14.4399C62.383 14.0299 62.6765 13.5545 62.8759 13.0376C63.0994 12.4657 63.2319 11.8623 63.2685 11.2494H57.8335V9.62227H64.9124C64.9793 9.97513 65.0141 10.3333 65.0164 10.6925C65.0176 11.5914 64.8714 12.4845 64.5836 13.3362C64.3024 14.1832 63.8307 14.9544 63.2047 15.5907C61.8203 17.0601 60.0153 17.7948 57.7899 17.7948C56.4435 17.8077 55.1178 17.4626 53.9485 16.7951Z" fill="white"/>
<path d="M68.8612 17.0937C68.0714 16.6268 67.4267 15.9497 66.9993 15.1378C66.5606 14.2811 66.3318 13.3324 66.3318 12.37C66.3318 11.4075 66.5606 10.4588 66.9993 9.60216C67.4267 8.79028 68.0714 8.11311 68.8612 7.64624C69.6856 7.17993 70.6165 6.93488 71.5636 6.93488C72.5107 6.93488 73.4417 7.17993 74.266 7.64624C75.0605 8.11158 75.7099 8.78882 76.1414 9.60216C76.5801 10.4588 76.8089 11.4075 76.8089 12.37C76.8089 13.3324 76.5801 14.2811 76.1414 15.1378C75.7099 15.9511 75.0605 16.6284 74.266 17.0937C73.4417 17.56 72.5107 17.8051 71.5636 17.8051C70.6165 17.8051 69.6856 17.56 68.8612 17.0937ZM73.2897 15.7517C73.8317 15.429 74.2758 14.9652 74.5747 14.4098C74.8922 13.7809 75.0577 13.0862 75.0577 12.3817C75.0577 11.6772 74.8922 10.9825 74.5747 10.3537C74.2752 9.79863 73.8313 9.33493 73.2897 9.01169C72.7672 8.69746 72.1684 8.53268 71.5586 8.5353C70.9565 8.53457 70.3657 8.69937 69.8509 9.01169C69.3079 9.33305 68.8635 9.79722 68.566 10.3537C68.2463 10.9819 68.0797 11.6768 68.0797 12.3817C68.0797 13.0866 68.2463 13.7815 68.566 14.4098C68.8629 14.9666 69.3075 15.4309 69.8509 15.7517C70.3666 16.0616 70.957 16.2251 71.5586 16.2248C72.1685 16.2252 72.767 16.0593 73.2897 15.745V15.7517Z" fill="white"/>
<path d="M80.5363 17.0937C79.7448 16.6278 79.0988 15.9505 78.671 15.1378C78.2323 14.2811 78.0035 13.3324 78.0035 12.3699C78.0035 11.4075 78.2323 10.4588 78.671 9.60214C79.0988 8.78939 79.7448 8.11204 80.5363 7.64622C81.3494 7.16884 82.2775 6.92289 83.2203 6.93497C84.1706 6.92149 85.1067 7.16739 85.9277 7.64622C86.7222 8.11156 87.3715 8.78879 87.8031 9.60214C88.2418 10.4588 88.4706 11.4075 88.4706 12.3699C88.4706 13.3324 88.2418 14.2811 87.8031 15.1378C87.3715 15.9511 86.7222 16.6283 85.9277 17.0937C85.1067 17.5725 84.1706 17.8184 83.2203 17.8049C82.2775 17.817 81.3494 17.5711 80.5363 17.0937ZM84.9615 15.7517C85.5034 15.429 85.9475 14.9652 86.2464 14.4097C86.564 13.7809 86.7294 13.0862 86.7294 12.3817C86.7294 11.6772 86.564 10.9825 86.2464 10.3536C85.947 9.7986 85.503 9.3349 84.9615 9.01167C84.4396 8.69508 83.8408 8.52796 83.2303 8.52856C82.6282 8.52783 82.0375 8.69263 81.5227 9.00495C80.9804 9.32726 80.5362 9.79119 80.2377 10.3469C79.9181 10.9752 79.7515 11.6701 79.7515 12.375C79.7515 13.0799 79.9181 13.7748 80.2377 14.403C80.5357 14.9592 80.98 15.4232 81.5227 15.745C82.0384 16.0549 82.6287 16.2184 83.2303 16.218C83.8396 16.2205 84.4381 16.0569 84.9615 15.745V15.7517Z" fill="white"/>
<path d="M91.7115 21.3645C90.989 20.8537 90.4371 20.137 90.128 19.3079L91.7551 18.6369C91.9541 19.2334 92.34 19.7498 92.8555 20.1098C93.4066 20.4942 94.0659 20.6928 94.7377 20.6767C95.8202 20.6767 96.6544 20.3614 97.2404 19.7306C97.8264 19.0999 98.1183 18.2209 98.1161 17.0937V16.0033H98.0255C97.6701 16.5485 97.1817 16.9942 96.6063 17.2983C95.9629 17.6498 95.2392 17.8278 94.5062 17.815C93.652 17.8181 92.8152 17.5734 92.0973 17.1105C91.3452 16.6313 90.7338 15.961 90.3259 15.1679C89.8935 14.3016 89.6685 13.3466 89.6685 12.3783C89.6685 11.4101 89.8935 10.4551 90.3259 9.58872C90.735 8.79653 91.3461 8.12644 92.0973 7.64623C92.8161 7.18572 93.6525 6.94228 94.5062 6.94506C95.2387 6.93275 95.9621 7.10953 96.6063 7.45835C97.1818 7.76379 97.6702 8.21057 98.0255 8.7567H98.1093V7.27384H99.7868V17.0735C99.8141 18.0694 99.5829 19.0553 99.1158 19.9353C98.7071 20.6877 98.0786 21.2975 97.3142 21.6832C96.5111 22.0778 95.6256 22.2756 94.7309 22.2602C93.6532 22.303 92.5916 21.988 91.7115 21.3645ZM96.4487 15.7517C96.9713 15.4241 97.3946 14.9601 97.6732 14.4098C97.9944 13.7752 98.1534 13.0709 98.1362 12.3599C98.1529 11.6457 97.9939 10.9383 97.6732 10.3C97.398 9.74734 96.9738 9.28256 96.4487 8.95801C95.9419 8.65504 95.3616 8.49719 94.7712 8.50173C94.1793 8.4965 93.598 8.65812 93.0937 8.96806C92.5704 9.2959 92.146 9.75974 91.8658 10.31C91.5611 10.9504 91.403 11.6507 91.403 12.3599C91.403 13.0691 91.5611 13.7694 91.8658 14.4098C92.1446 14.961 92.5693 15.4252 93.0937 15.7517C93.5964 16.0568 94.1731 16.2181 94.7611 16.2181C95.3491 16.2181 95.9258 16.0568 96.4285 15.7517H96.4487Z" fill="white"/>
<path d="M102.149 2.73462H103.9V17.4761H102.149V2.73462Z" fill="white"/>
<path d="M108.047 17.1037C107.272 16.6389 106.642 15.9689 106.225 15.1679C105.771 14.3058 105.541 13.344 105.554 12.3699C105.543 11.425 105.755 10.4908 106.171 9.6424C106.563 8.83341 107.171 8.14922 107.929 7.66634C108.715 7.17235 109.628 6.91819 110.556 6.93497C111.469 6.91601 112.369 7.14811 113.159 7.60596C113.906 8.05083 114.504 8.70695 114.877 9.49142C115.29 10.3653 115.495 11.3231 115.474 12.2894C115.48 12.4282 115.467 12.5671 115.434 12.7021H107.335C107.341 13.3892 107.533 14.0619 107.892 14.6479C108.208 15.1509 108.653 15.5599 109.181 15.8322C109.673 16.0879 110.219 16.2213 110.774 16.2214C112.067 16.2214 113.062 15.5907 113.76 14.3292L115.303 15.0707C114.877 15.8781 114.249 16.562 113.482 17.0568C112.659 17.5401 111.725 17.7992 110.771 17.808C109.817 17.8169 108.878 17.5752 108.047 17.1071V17.1037ZM113.636 11.236C113.607 10.8063 113.493 10.3867 113.3 10.0014C113.068 9.56538 112.72 9.202 112.294 8.95128C111.76 8.64337 111.149 8.49329 110.533 8.51849C109.792 8.50251 109.073 8.7674 108.52 9.25993C107.946 9.776 107.568 10.4739 107.449 11.236H113.636Z" fill="white"/>
<path d="M122.181 2.73463H126.65C128.025 2.7026 129.386 3.02494 130.602 3.67066C131.7 4.27025 132.601 5.17579 133.195 6.27742C133.791 7.46556 134.101 8.77631 134.101 10.1054C134.101 11.4345 133.791 12.7452 133.195 13.9333C132.601 15.035 131.7 15.9405 130.602 16.5401C129.386 17.1847 128.025 17.507 126.65 17.4761H122.181V2.73463ZM126.65 15.8188C128.392 15.8188 129.771 15.3178 130.786 14.3158C131.802 13.3138 132.309 11.9137 132.309 10.1154C132.309 8.32616 131.802 6.92605 130.786 5.9151C129.771 4.90415 128.392 4.40314 126.65 4.41209H123.932V15.8188H126.65Z" fill="white"/>
<path d="M138.06 17.1037C137.285 16.6389 136.655 15.9689 136.238 15.1679C135.784 14.3058 135.554 13.344 135.567 12.3699C135.556 11.425 135.768 10.4908 136.184 9.6424C136.577 8.8341 137.185 8.15016 137.942 7.66634C138.728 7.17235 139.641 6.91819 140.569 6.93497C141.482 6.91601 142.383 7.14811 143.173 7.60596C143.92 8.04924 144.518 8.70581 144.89 9.49142C145.303 10.3653 145.508 11.3231 145.487 12.2894C145.493 12.4282 145.48 12.5671 145.447 12.7021H137.348C137.352 13.3895 137.545 14.0625 137.905 14.6479C138.221 15.15 138.664 15.5588 139.19 15.8322C139.684 16.0875 140.231 16.2209 140.787 16.2214C142.075 16.2214 143.071 15.5907 143.773 14.3292L145.316 15.0707C144.89 15.8781 144.262 16.562 143.495 17.0568C142.672 17.5401 141.738 17.7992 140.784 17.808C139.83 17.8169 138.891 17.5752 138.06 17.1071V17.1037ZM143.652 11.236C143.623 10.8063 143.509 10.3867 143.317 10.0014C143.084 9.56538 142.736 9.202 142.31 8.95128C141.776 8.64337 141.165 8.49329 140.549 8.51849C139.808 8.50251 139.089 8.7674 138.536 9.25993C137.963 9.776 137.585 10.4739 137.466 11.236H143.652Z" fill="white"/>
<path d="M145.914 7.26376H147.806L150.936 15.4162H150.976L154.147 7.26376H156.002L151.822 17.4761H150.05L145.914 7.26376Z" fill="white"/>
<path d="M159.199 17.1037C158.426 16.637 157.796 15.9675 157.377 15.1679C156.925 14.3053 156.695 13.3438 156.706 12.37C156.696 11.425 156.907 10.4908 157.324 9.6424C157.717 8.83387 158.327 8.14997 159.085 7.66635C159.87 7.17281 160.782 6.91866 161.709 6.93498C162.622 6.91567 163.522 7.1478 164.312 7.60597C165.059 8.05064 165.658 8.70672 166.033 9.49143C166.445 10.3658 166.649 11.3233 166.63 12.2894C166.637 12.4284 166.622 12.5676 166.587 12.7021H158.491C158.494 13.3892 158.686 14.0623 159.045 14.6479C159.362 15.1497 159.806 15.5584 160.333 15.8322C160.826 16.0875 161.372 16.2209 161.927 16.2214C163.219 16.2214 164.215 15.5907 164.913 14.3292L166.459 15.0707C166.03 15.8772 165.402 16.5609 164.634 17.0568C163.812 17.5401 162.877 17.7992 161.923 17.808C160.97 17.8169 160.03 17.5752 159.199 17.1071V17.1037ZM164.788 11.236C164.759 10.8063 164.645 10.3867 164.453 10.0014C164.223 9.56392 163.874 9.20004 163.446 8.95129C162.913 8.64348 162.304 8.49338 161.688 8.51849C160.948 8.50185 160.228 8.76683 159.676 9.25994C159.102 9.776 158.724 10.4739 158.605 11.236H164.788Z" fill="white"/>
<path d="M168.412 2.73462H170.156V17.4761H168.412V2.73462Z" fill="white"/>
<path d="M174.363 17.0937C173.574 16.6269 172.931 15.9496 172.505 15.1378C172.066 14.2811 171.837 13.3324 171.837 12.3699C171.837 11.4075 172.066 10.4588 172.505 9.60214C172.932 8.78939 173.578 8.11204 174.37 7.64622C175.183 7.16884 176.111 6.92289 177.054 6.93497C178.004 6.92149 178.94 7.16739 179.761 7.64622C180.556 8.11156 181.205 8.78879 181.637 9.60214C182.075 10.4588 182.304 11.4075 182.304 12.3699C182.304 13.3324 182.075 14.2811 181.637 15.1378C181.205 15.9511 180.556 16.6283 179.761 17.0937C178.94 17.5725 178.004 17.8184 177.054 17.8049C176.109 17.8182 175.178 17.5722 174.363 17.0937ZM178.788 15.7517C179.33 15.429 179.774 14.9652 180.073 14.4097C180.391 13.7809 180.556 13.0862 180.556 12.3817C180.556 11.6772 180.391 10.9825 180.073 10.3536C179.774 9.7986 179.33 9.3349 178.788 9.01167C178.266 8.69743 177.667 8.53265 177.057 8.53528C176.455 8.53455 175.864 8.69934 175.35 9.01167C174.808 9.3349 174.364 9.7986 174.065 10.3536C173.745 10.9819 173.578 11.6768 173.578 12.3817C173.578 13.0866 173.745 13.7815 174.065 14.4097C174.364 14.9652 174.808 15.429 175.35 15.7517C175.865 16.0616 176.456 16.2251 177.057 16.2247C177.667 16.2252 178.266 16.0593 178.788 15.745V15.7517Z" fill="white"/>
<path d="M183.911 7.26374H185.589V8.76676H185.669C186.027 8.21993 186.514 7.77035 187.088 7.45833C187.745 7.09996 188.484 6.91954 189.232 6.93496C190.094 6.93109 190.938 7.17824 191.661 7.6462C192.411 8.12877 193.02 8.79978 193.429 9.59205C193.864 10.4536 194.09 11.405 194.09 12.3699C194.09 13.3348 193.864 14.2862 193.429 15.1478C193.02 15.9401 192.411 16.6111 191.661 17.0937C190.938 17.5616 190.094 17.8088 189.232 17.8049C188.481 17.82 187.738 17.6384 187.078 17.2782C186.496 16.9666 186.009 16.5028 185.669 15.9362H185.589L185.669 17.3587V21.908H183.911V7.26374ZM190.621 15.745C191.147 15.4178 191.573 14.954 191.856 14.403C192.16 13.7704 192.319 13.0772 192.319 12.375C192.319 11.6728 192.16 10.9796 191.856 10.3469C191.573 9.79635 191.146 9.33262 190.621 9.00494C190.119 8.68994 189.537 8.52469 188.944 8.52855C188.352 8.52441 187.771 8.68595 187.266 8.99489C186.737 9.31916 186.309 9.78369 186.028 10.3369C185.726 10.9755 185.569 11.6733 185.569 12.38C185.569 13.0867 185.726 13.7845 186.028 14.4231C186.308 14.9769 186.737 15.4417 187.266 15.7651C187.772 16.0716 188.352 16.2318 188.944 16.2281C189.537 16.2285 190.119 16.061 190.621 15.745Z" fill="white"/>
<path d="M198.146 17.1037C197.374 16.637 196.744 15.9675 196.325 15.1679C195.873 14.3053 195.642 13.3438 195.654 12.37C195.643 11.425 195.855 10.4908 196.271 9.6424C196.665 8.83387 197.274 8.14997 198.032 7.66635C198.817 7.17281 199.729 6.91866 200.656 6.93498C201.569 6.91567 202.469 7.1478 203.259 7.60597C204.007 8.05064 204.605 8.70672 204.98 9.49143C205.392 10.3658 205.596 11.3233 205.577 12.2894C205.584 12.4284 205.57 12.5676 205.534 12.7021H197.425C197.428 13.3892 197.619 14.0623 197.979 14.6479C198.296 15.1497 198.74 15.5584 199.267 15.8322C199.759 16.0871 200.306 16.2205 200.86 16.2214C202.153 16.2214 203.149 15.5907 203.846 14.3292L205.393 15.0707C204.964 15.8768 204.337 16.5604 203.571 17.0568C202.748 17.5401 201.813 17.7991 200.859 17.808C199.904 17.8168 198.965 17.5751 198.133 17.1071L198.146 17.1037ZM203.739 11.236C203.71 10.8063 203.596 10.3867 203.403 10.0014C203.173 9.56392 202.824 9.20004 202.397 8.95129C201.864 8.64348 201.254 8.49338 200.639 8.51849C199.904 8.5061 199.191 8.7708 198.643 9.25994C198.07 9.776 197.692 10.4739 197.573 11.236H203.739Z" fill="white"/>
<path d="M207.359 7.26375H209.036V8.94121H209.12C209.339 8.34517 209.757 7.84352 210.305 7.52208C210.828 7.16033 211.446 6.95974 212.083 6.94505C212.49 6.94109 212.894 7.01041 213.277 7.14969V9.02508C212.832 8.80078 212.336 8.69452 211.838 8.71643C211.358 8.71688 210.889 8.86441 210.496 9.13915C210.072 9.4238 209.726 9.81019 209.489 10.263C209.243 10.7339 209.116 11.2581 209.12 11.7895V17.4929H207.369L207.359 7.26375Z" fill="white"/>
<path d="M220.936 17.3419C220.236 17.0325 219.611 16.5746 219.104 16C218.561 15.3745 218.169 14.6315 217.96 13.8293L219.638 13.1584C219.846 13.9917 220.298 14.744 220.936 15.3189C221.536 15.8702 222.323 16.1725 223.137 16.1644C223.923 16.1896 224.693 15.9457 225.321 15.4733C225.609 15.2481 225.838 14.9564 225.988 14.6233C226.138 14.2902 226.205 13.9257 226.183 13.5609C226.191 13.24 226.128 12.9213 225.998 12.6278C225.868 12.3342 225.675 12.0731 225.432 11.8634C224.698 11.2958 223.864 10.8723 222.973 10.6153L222.043 10.2798C221.103 9.96854 220.235 9.47108 219.49 8.81709C219.155 8.49438 218.893 8.10313 218.723 7.67004C218.553 7.23695 218.478 6.77224 218.504 6.30762C218.501 5.61635 218.701 4.93947 219.081 4.36177C219.477 3.75328 220.027 3.26024 220.675 2.93257C221.385 2.56707 222.174 2.38266 222.973 2.39577C223.743 2.37858 224.507 2.54053 225.204 2.86882C225.787 3.1423 226.306 3.53554 226.727 4.02292C227.07 4.41495 227.332 4.87103 227.498 5.36488L225.875 6.06271C225.689 5.45821 225.306 4.93322 224.788 4.57145C224.269 4.20968 223.644 4.03194 223.013 4.06653C222.313 4.04824 221.629 4.27355 221.077 4.70395C220.826 4.88963 220.623 5.132 220.484 5.41128C220.344 5.69057 220.273 5.99886 220.275 6.31097C220.268 6.5821 220.325 6.85106 220.442 7.09593C220.559 7.3408 220.731 7.55466 220.946 7.72004C221.572 8.16772 222.268 8.50788 223.006 8.72652L223.952 9.06201C225.037 9.41846 226.035 9.99656 226.885 10.7596C227.245 11.122 227.525 11.5558 227.708 12.0331C227.89 12.5103 227.971 13.0204 227.945 13.5307C227.974 14.3853 227.717 15.2251 227.213 15.9161C226.742 16.5511 226.105 17.0435 225.371 17.3386C224.64 17.639 223.857 17.7928 223.067 17.7915C222.333 17.7929 221.607 17.6398 220.936 17.3419Z" fill="white"/>
<path d="M232.222 17.5869C231.889 17.4584 231.585 17.2658 231.326 17.0199C231.055 16.7595 230.847 16.4405 230.719 16.0872C230.581 15.6791 230.515 15.2499 230.525 14.819V8.86407H228.713V7.2772H230.525V4.23093H232.256V7.2772H234.765V8.86407H232.256V14.4232C232.214 14.8838 232.333 15.3447 232.591 15.7282C232.719 15.8863 232.883 16.011 233.069 16.0916C233.256 16.1722 233.459 16.2064 233.661 16.1912C234.051 16.2002 234.436 16.1002 234.772 15.9027V17.5801C234.569 17.6589 234.359 17.7174 234.144 17.7546C233.883 17.7956 233.618 17.8135 233.353 17.8083C232.965 17.8077 232.581 17.7325 232.222 17.5869Z" fill="white"/>
<path d="M237.486 16.7146C236.835 15.9866 236.506 14.9767 236.506 13.6952V7.26376H238.261V13.3999C238.261 15.2787 239.105 16.218 240.794 16.218C241.336 16.2242 241.865 16.0586 242.307 15.745C242.752 15.4301 243.107 15.0045 243.337 14.5104C243.575 14.0081 243.697 13.4591 243.696 12.9034V7.26376H245.424V17.4761H243.776V15.9497H243.696C243.364 16.5023 242.892 16.9572 242.327 17.2681C241.733 17.6224 241.053 17.8079 240.361 17.8049C239.096 17.8049 238.137 17.4392 237.486 16.7146Z" fill="white"/>
<path d="M249.537 17.1037C248.786 16.6233 248.175 15.9517 247.769 15.1579C247.334 14.2922 247.108 13.3369 247.108 12.3683C247.108 11.3996 247.334 10.4443 247.769 9.57866C248.176 8.78606 248.786 8.11574 249.537 7.63617C250.264 7.17412 251.108 6.93072 251.969 6.93498C252.716 6.92336 253.453 7.10356 254.11 7.45835C254.689 7.76283 255.178 8.214 255.529 8.76678H255.613L255.529 7.36776V2.73462H257.26V17.4761H255.613V15.9496H255.529C255.187 16.5181 254.696 16.9822 254.11 17.2916C253.454 17.6491 252.716 17.8306 251.969 17.8183C251.107 17.8186 250.262 17.5705 249.537 17.1037ZM253.898 15.7618C254.428 15.4383 254.856 14.9736 255.136 14.4198C255.441 13.7818 255.599 13.0837 255.599 12.3767C255.599 11.6696 255.441 10.9715 255.136 10.3335C254.856 9.78035 254.427 9.31583 253.898 8.99155C253.394 8.68261 252.813 8.52107 252.221 8.52521C251.628 8.52191 251.046 8.68711 250.543 9.0016C250.018 9.32929 249.592 9.79301 249.309 10.3436C249.004 10.9762 248.846 11.6694 248.846 12.3716C248.846 13.0738 249.004 13.767 249.309 14.3997C249.591 14.9506 250.018 15.4145 250.543 15.7416C251.047 16.0536 251.628 16.2175 252.221 16.2147C252.816 16.2219 253.402 16.0627 253.912 15.7551L253.898 15.7618Z" fill="white"/>
<path d="M261.427 17.1037C260.653 16.6389 260.022 15.9689 259.605 15.1679C259.152 14.3058 258.921 13.344 258.934 12.3699C258.924 11.425 259.135 10.4908 259.551 9.6424C259.944 8.8341 260.552 8.15016 261.309 7.66634C262.095 7.17235 263.008 6.91819 263.936 6.93497C264.849 6.91601 265.75 7.14811 266.54 7.60596C267.286 8.05083 267.884 8.70695 268.257 9.49142C268.67 10.3653 268.875 11.3231 268.855 12.2894C268.861 12.4282 268.847 12.5671 268.814 12.7021H260.702C260.708 13.3892 260.9 14.0619 261.259 14.6479C261.575 15.1509 262.02 15.5599 262.547 15.8322C263.04 16.0879 263.586 16.2213 264.141 16.2214C265.431 16.2214 266.427 15.5907 267.127 14.3292L268.67 15.0707C268.243 15.8781 267.616 16.562 266.848 17.0568C266.026 17.5401 265.091 17.7992 264.138 17.808C263.184 17.8169 262.244 17.5752 261.413 17.1071L261.427 17.1037ZM267.016 11.236C266.987 10.8063 266.873 10.3867 266.681 10.0014C266.448 9.56538 266.1 9.202 265.674 8.95128C265.14 8.64337 264.529 8.49329 263.913 8.51849C263.172 8.50251 262.453 8.7674 261.9 9.25993C261.327 9.776 260.949 10.4739 260.83 11.236H267.016Z" fill="white"/>
<path d="M270.639 7.26375H272.317V8.7869H272.397C272.716 8.23427 273.18 7.77945 273.739 7.47176C274.338 7.11873 275.02 6.93332 275.715 6.93498C276.967 6.93498 277.916 7.30066 278.567 8.02533C279.218 8.74999 279.547 9.74976 279.547 11.0112V17.4761H277.816V11.2796C277.816 9.44111 276.958 8.52073 275.242 8.51849C274.711 8.51243 274.191 8.67967 273.763 8.9949C273.326 9.31209 272.979 9.73758 272.756 10.2295C272.517 10.73 272.393 11.2782 272.394 11.8331V17.4761H270.646L270.639 7.26375Z" fill="white"/>
<path d="M284.113 17.5869C283.779 17.46 283.474 17.2672 283.217 17.0199C282.946 16.7595 282.738 16.4405 282.61 16.0872C282.47 15.6793 282.403 15.2501 282.412 14.819V8.86407H280.6V7.2772H282.412V4.23093H284.143V7.2772H286.652V8.86407H284.143V14.4232C284.103 14.8837 284.222 15.3439 284.478 15.7282C284.606 15.886 284.77 16.0106 284.957 16.0912C285.143 16.1718 285.346 16.2061 285.549 16.1912C285.939 16.1997 286.325 16.0998 286.662 15.9027V17.5801C286.459 17.659 286.247 17.7174 286.032 17.7546C285.77 17.7956 285.505 17.8135 285.24 17.8083C284.854 17.8073 284.471 17.7321 284.113 17.5869Z" fill="white"/>
<path d="M296.019 16.7951C294.867 16.1376 293.917 15.1769 293.272 14.0172C292.616 12.8177 292.272 11.4726 292.272 10.1054C292.272 8.73825 292.616 7.39304 293.272 6.19356C293.917 5.03391 294.867 4.07317 296.019 3.4157C297.197 2.74029 298.534 2.39275 299.891 2.40922C300.931 2.39748 301.961 2.61153 302.91 3.03659C303.814 3.45176 304.616 4.05983 305.259 4.81805L304.024 6.03253C303.532 5.40386 302.902 4.89656 302.182 4.54966C301.455 4.22424 300.664 4.06273 299.867 4.0766C298.853 4.07691 297.856 4.33925 296.972 4.83818C296.083 5.3384 295.346 6.07139 294.842 6.95849C294.323 7.93097 294.051 9.0164 294.051 10.1188C294.051 11.2212 294.323 12.3067 294.842 13.2791C295.346 14.1662 296.083 14.8992 296.972 15.3995C297.865 15.8999 298.874 16.1589 299.898 16.151C300.777 16.1547 301.645 15.9582 302.437 15.5763C303.229 15.1943 303.923 14.6371 304.467 13.9468L305.722 15.1814C305.038 16.0023 304.179 16.6602 303.209 17.1071C302.072 17.6221 300.829 17.8634 299.582 17.8115C298.335 17.7597 297.117 17.4162 296.026 16.8085L296.019 16.7951Z" fill="white"/>
<path d="M307.423 2.73462H309.174V17.4761H307.423V2.73462Z" fill="white"/>
<path d="M312.405 16.7146C311.754 15.9877 311.428 14.9812 311.428 13.6952V7.26376H313.18V13.3999C313.18 15.2787 314.023 16.218 315.709 16.218C316.251 16.2247 316.781 16.059 317.222 15.745C317.667 15.4301 318.022 15.0045 318.252 14.5104C318.491 14.0086 318.614 13.4592 318.611 12.9034V7.26376H320.342V17.4761H318.695V15.9497H318.611C318.279 16.5023 317.807 16.9572 317.242 17.2681C316.648 17.6224 315.968 17.8079 315.276 17.8049C314.025 17.8049 313.076 17.4392 312.405 16.7146Z" fill="white"/>
<path d="M325.878 17.2782C325.296 16.9666 324.809 16.5028 324.469 15.9362H324.385V17.4627H322.708V2.73462H324.482V7.36776L324.399 8.76678H324.482C324.84 8.21995 325.328 7.77037 325.901 7.45835C326.557 7.09997 327.295 6.91952 328.042 6.93498C328.904 6.93053 329.748 7.17772 330.471 7.64622C331.221 8.12871 331.832 8.79966 332.242 9.59207C332.677 10.4536 332.903 11.4051 332.903 12.37C332.903 13.3348 332.677 14.2863 332.242 15.1478C331.832 15.9402 331.221 16.6112 330.471 17.0937C329.748 17.5622 328.904 17.8094 328.042 17.8049C327.287 17.8224 326.541 17.6407 325.878 17.2782ZM329.441 15.745C329.967 15.4178 330.393 14.954 330.676 14.403C330.98 13.7704 331.139 13.0772 331.139 12.375C331.139 11.6728 330.98 10.9796 330.676 10.3469C330.393 9.79637 329.966 9.33264 329.441 9.00496C328.938 8.69047 328.356 8.52527 327.763 8.52857C327.172 8.52549 326.591 8.68695 326.086 8.99491C325.558 9.31966 325.131 9.78415 324.851 10.3369C324.547 10.9749 324.389 11.673 324.389 12.38C324.389 13.0871 324.547 13.7852 324.851 14.4232C325.131 14.9759 325.558 15.4404 326.086 15.7651C326.592 16.0706 327.172 16.2308 327.763 16.2281C328.357 16.2279 328.938 16.0605 329.441 15.745Z" fill="white"/>
<path d="M335.399 16.9796C334.678 16.476 334.126 15.7661 333.816 14.9432L335.359 14.2722C335.594 14.8687 335.997 15.3839 336.52 15.755C336.999 16.0927 337.571 16.2733 338.157 16.2717C338.734 16.2945 339.304 16.1437 339.794 15.8389C339.984 15.7347 340.143 15.5833 340.256 15.3992C340.37 15.2152 340.434 15.0049 340.442 14.7888C340.447 14.5947 340.406 14.4022 340.322 14.2272C340.238 14.0521 340.114 13.8996 339.959 13.7824C339.457 13.4488 338.894 13.2205 338.301 13.1114L336.902 12.7759C336.178 12.6194 335.503 12.2877 334.936 11.8097C334.67 11.5824 334.459 11.2976 334.318 10.9769C334.177 10.6561 334.111 10.3077 334.125 9.95776C334.11 9.36859 334.303 8.79299 334.668 8.33061C335.052 7.86452 335.554 7.50906 336.121 7.30067C336.753 7.06813 337.423 6.95439 338.097 6.96518C338.936 6.95452 339.763 7.16388 340.496 7.57242C341.19 7.95005 341.732 8.55721 342.029 9.29013L340.485 9.96112C340.287 9.49087 339.931 9.10423 339.479 8.86741C339.016 8.63614 338.504 8.52099 337.986 8.53192C337.489 8.51114 336.997 8.62595 336.56 8.86405C336.37 8.95613 336.209 9.09869 336.094 9.27617C335.979 9.45365 335.915 9.65925 335.909 9.87053C335.903 10.0356 335.939 10.1995 336.013 10.3472C336.087 10.4949 336.196 10.6217 336.332 10.716C336.744 10.9777 337.198 11.1661 337.674 11.2729L339.197 11.6419C340.048 11.8148 340.834 12.2174 341.472 12.8061C341.714 13.0471 341.906 13.3343 342.035 13.6507C342.164 13.9671 342.228 14.3062 342.223 14.6479C342.228 15.2246 342.048 15.7875 341.71 16.2549C341.339 16.7545 340.841 17.145 340.267 17.3856C339.604 17.6697 338.889 17.8104 338.167 17.7982C337.18 17.8325 336.209 17.5452 335.399 16.9796Z" fill="white"/>
<path d="M54.6529 35.8101L57.6755 27.1087H59.148L55.3504 37.3672H54.3006L54.6529 35.8101ZM51.8276 27.1087L54.822 35.8101L55.1954 37.3672H54.1456L50.355 27.1087H51.8276ZM63.1852 37.5081C62.6544 37.5081 62.1729 37.4188 61.7408 37.2403C61.3134 37.0571 60.9446 36.8012 60.6346 36.4724C60.3293 36.1436 60.0945 35.7537 59.9301 35.3028C59.7657 34.8519 59.6835 34.3587 59.6835 33.8232V33.5273C59.6835 32.9073 59.7751 32.3553 59.9582 31.8715C60.1414 31.383 60.3904 30.9697 60.7051 30.6315C61.0198 30.2933 61.3768 30.0373 61.776 29.8635C62.1753 29.6897 62.5886 29.6028 63.0161 29.6028C63.5609 29.6028 64.0306 29.6968 64.4252 29.8847C64.8244 30.0726 65.1509 30.3356 65.4045 30.6738C65.6582 31.0073 65.8461 31.4018 65.9682 31.8575C66.0903 32.3084 66.1514 32.8016 66.1514 33.337V33.9218H60.4585V32.8579H64.8479V32.7593C64.8291 32.4211 64.7587 32.0923 64.6366 31.7729C64.5191 31.4535 64.3313 31.1905 64.0729 30.9838C63.8146 30.7771 63.4623 30.6738 63.0161 30.6738C62.7201 30.6738 62.4477 30.7372 62.1988 30.864C61.9498 30.9861 61.7361 31.1693 61.5576 31.4136C61.3791 31.6578 61.2406 31.9561 61.1419 32.3084C61.0433 32.6607 60.994 33.067 60.994 33.5273V33.8232C60.994 34.1849 61.0433 34.5254 61.1419 34.8448C61.2453 35.1595 61.3932 35.4366 61.5858 35.6762C61.7831 35.9158 62.0203 36.1036 62.2974 36.2399C62.5792 36.3761 62.8986 36.4442 63.2556 36.4442C63.7159 36.4442 64.1058 36.3502 64.4252 36.1623C64.7446 35.9745 65.0241 35.7232 65.2636 35.4085L66.0527 36.0355C65.8883 36.2845 65.6793 36.5217 65.4257 36.7471C65.172 36.9726 64.8597 37.1558 64.4886 37.2967C64.1222 37.4376 63.6877 37.5081 63.1852 37.5081ZM69.0894 26.545V37.3672H67.7789V26.545H69.0894ZM72.5982 26.545V37.3672H71.2877V26.545H72.5982ZM74.3455 33.64V33.478C74.3455 32.9284 74.4253 32.4188 74.585 31.949C74.7447 31.4746 74.9749 31.0636 75.2755 30.7161C75.5761 30.3638 75.9401 30.0913 76.3676 29.8988C76.795 29.7015 77.2741 29.6028 77.8049 29.6028C78.3404 29.6028 78.8218 29.7015 79.2493 29.8988C79.6814 30.0913 80.0478 30.3638 80.3484 30.7161C80.6537 31.0636 80.8862 31.4746 81.0459 31.949C81.2056 32.4188 81.2854 32.9284 81.2854 33.478V33.64C81.2854 34.1896 81.2056 34.6992 81.0459 35.1689C80.8862 35.6386 80.6537 36.0496 80.3484 36.4019C80.0478 36.7495 79.6837 37.0219 79.2563 37.2192C78.8336 37.4118 78.3545 37.5081 77.819 37.5081C77.2835 37.5081 76.8021 37.4118 76.3746 37.2192C75.9472 37.0219 75.5808 36.7495 75.2755 36.4019C74.9749 36.0496 74.7447 35.6386 74.585 35.1689C74.4253 34.6992 74.3455 34.1896 74.3455 33.64ZM75.6489 33.478V33.64C75.6489 34.0205 75.6935 34.3798 75.7828 34.718C75.872 35.0515 76.0059 35.3474 76.1844 35.6057C76.3676 35.8641 76.5954 36.0684 76.8678 36.2187C77.1403 36.3643 77.4573 36.4371 77.819 36.4371C78.176 36.4371 78.4883 36.3643 78.7561 36.2187C79.0285 36.0684 79.254 35.8641 79.4324 35.6057C79.6109 35.3474 79.7448 35.0515 79.834 34.718C79.928 34.3798 79.975 34.0205 79.975 33.64V33.478C79.975 33.1022 79.928 32.7476 79.834 32.4141C79.7448 32.0759 79.6086 31.7776 79.4254 31.5193C79.2469 31.2562 79.0214 31.0496 78.749 30.8992C78.4813 30.7489 78.1666 30.6738 77.8049 30.6738C77.4479 30.6738 77.1332 30.7489 76.8608 30.8992C76.593 31.0496 76.3676 31.2562 76.1844 31.5193C76.0059 31.7776 75.872 32.0759 75.7828 32.4141C75.6935 32.7476 75.6489 33.1022 75.6489 33.478ZM84.2235 30.9415V37.3672H82.92V29.7438H84.1883L84.2235 30.9415ZM86.6049 29.7015L86.5979 30.9133C86.4898 30.8899 86.3865 30.8758 86.2879 30.8711C86.1939 30.8617 86.0859 30.857 85.9638 30.857C85.6631 30.857 85.3978 30.9039 85.1676 30.9979C84.9374 31.0918 84.7425 31.2233 84.5828 31.3924C84.4231 31.5615 84.2963 31.7635 84.2023 31.9984C84.1131 32.2285 84.0544 32.4822 84.0262 32.7593L83.6598 32.9707C83.6598 32.5104 83.7045 32.0782 83.7937 31.6743C83.8876 31.2703 84.0309 30.9133 84.2235 30.6033C84.4161 30.2886 84.6603 30.0444 84.9562 29.8706C85.2568 29.6921 85.6138 29.6028 86.0272 29.6028C86.1211 29.6028 86.2291 29.6146 86.3513 29.6381C86.4734 29.6569 86.5579 29.678 86.6049 29.7015ZM90.8323 37.5081C90.3015 37.5081 89.8201 37.4188 89.388 37.2403C88.9605 37.0571 88.5918 36.8012 88.2818 36.4724C87.9765 36.1436 87.7416 35.7537 87.5772 35.3028C87.4128 34.8519 87.3306 34.3587 87.3306 33.8232V33.5273C87.3306 32.9073 87.4222 32.3553 87.6054 31.8715C87.7886 31.383 88.0375 30.9697 88.3522 30.6315C88.6669 30.2933 89.0239 30.0373 89.4232 29.8635C89.8224 29.6897 90.2358 29.6028 90.6632 29.6028C91.2081 29.6028 91.6778 29.6968 92.0723 29.8847C92.4716 30.0726 92.798 30.3356 93.0517 30.6738C93.3053 31.0073 93.4932 31.4018 93.6153 31.8575C93.7375 32.3084 93.7985 32.8016 93.7985 33.337V33.9218H88.1056V32.8579H92.4951V32.7593C92.4763 32.4211 92.4058 32.0923 92.2837 31.7729C92.1663 31.4535 91.9784 31.1905 91.7201 30.9838C91.4617 30.7771 91.1094 30.6738 90.6632 30.6738C90.3673 30.6738 90.0949 30.7372 89.8459 30.864C89.597 30.9861 89.3833 31.1693 89.2048 31.4136C89.0263 31.6578 88.8877 31.9561 88.7891 32.3084C88.6904 32.6607 88.6411 33.067 88.6411 33.5273V33.8232C88.6411 34.1849 88.6904 34.5254 88.7891 34.8448C88.8924 35.1595 89.0404 35.4366 89.2329 35.6762C89.4302 35.9158 89.6674 36.1036 89.9446 36.2399C90.2264 36.3761 90.5458 36.4442 90.9028 36.4442C91.3631 36.4442 91.7529 36.3502 92.0723 36.1623C92.3917 35.9745 92.6712 35.7232 92.9108 35.4085L93.6999 36.0355C93.5355 36.2845 93.3265 36.5217 93.0728 36.7471C92.8192 36.9726 92.5068 37.1558 92.1358 37.2967C91.7694 37.4376 91.3349 37.5081 90.8323 37.5081ZM100.555 27.1087V37.3672H99.1955V27.1087H100.555ZM104.135 31.3713V37.3672H102.831V29.7438H104.064L104.135 31.3713ZM103.824 33.2666L103.282 33.2454C103.287 32.7241 103.364 32.2426 103.514 31.8011C103.665 31.3549 103.876 30.9674 104.149 30.6386C104.421 30.3098 104.745 30.0561 105.121 29.8776C105.501 29.6944 105.922 29.6028 106.382 29.6028C106.758 29.6028 107.096 29.6545 107.397 29.7578C107.697 29.8565 107.953 30.0162 108.165 30.237C108.381 30.4577 108.545 30.7442 108.658 31.0965C108.771 31.4441 108.827 31.8692 108.827 32.3718V37.3672H107.516V32.3577C107.516 31.9584 107.458 31.639 107.34 31.3995C107.223 31.1552 107.051 30.9791 106.826 30.8711C106.6 30.7583 106.323 30.702 105.995 30.702C105.67 30.702 105.375 30.7701 105.107 30.9063C104.844 31.0425 104.616 31.2304 104.423 31.4699C104.235 31.7095 104.088 31.9843 103.98 32.2943C103.876 32.5996 103.824 32.9237 103.824 33.2666ZM115.246 35.3451C115.246 35.1572 115.203 34.9834 115.119 34.8237C115.039 34.6593 114.872 34.5113 114.618 34.3798C114.369 34.2436 113.994 34.1262 113.491 34.0275C113.068 33.9383 112.686 33.8326 112.343 33.7105C112.005 33.5883 111.716 33.4404 111.476 33.2666C111.241 33.0928 111.06 32.8885 110.934 32.6536C110.807 32.4188 110.743 32.144 110.743 31.8293C110.743 31.5287 110.809 31.2445 110.941 30.9767C111.077 30.709 111.267 30.4718 111.511 30.2651C111.76 30.0585 112.059 29.8964 112.406 29.779C112.754 29.6616 113.141 29.6028 113.569 29.6028C114.179 29.6028 114.701 29.7109 115.133 29.9269C115.565 30.143 115.896 30.4319 116.126 30.7936C116.356 31.1505 116.471 31.5474 116.471 31.9843H115.168C115.168 31.7729 115.105 31.5686 114.978 31.3713C114.856 31.1693 114.675 31.0026 114.435 30.8711C114.2 30.7395 113.912 30.6738 113.569 30.6738C113.207 30.6738 112.913 30.7301 112.688 30.8429C112.467 30.9509 112.305 31.0895 112.202 31.2586C112.103 31.4277 112.054 31.6062 112.054 31.794C112.054 31.935 112.077 32.0618 112.124 32.1745C112.176 32.2825 112.265 32.3835 112.392 32.4775C112.519 32.5667 112.697 32.6513 112.927 32.7311C113.158 32.811 113.451 32.8908 113.808 32.9707C114.433 33.1116 114.947 33.2807 115.351 33.478C115.755 33.6752 116.056 33.9171 116.253 34.2037C116.45 34.4902 116.549 34.8378 116.549 35.2464C116.549 35.5799 116.478 35.8852 116.338 36.1623C116.201 36.4395 116.002 36.679 115.739 36.881C115.48 37.0783 115.17 37.2333 114.809 37.346C114.452 37.4541 114.05 37.5081 113.604 37.5081C112.932 37.5081 112.364 37.3883 111.899 37.1487C111.434 36.9092 111.082 36.5992 110.842 36.2187C110.602 35.8382 110.483 35.4366 110.483 35.0139H111.793C111.812 35.3709 111.915 35.6551 112.103 35.8664C112.291 36.0731 112.521 36.2211 112.794 36.3103C113.066 36.3949 113.336 36.4371 113.604 36.4371C113.961 36.4371 114.259 36.3902 114.499 36.2962C114.743 36.2023 114.928 36.0731 115.055 35.9087C115.182 35.7443 115.246 35.5564 115.246 35.3451ZM121.453 29.7438V30.7442H117.331V29.7438H121.453ZM118.726 27.8908H120.03V35.4789C120.03 35.7373 120.069 35.9322 120.149 36.0637C120.229 36.1952 120.332 36.2821 120.459 36.3244C120.586 36.3667 120.722 36.3878 120.868 36.3878C120.976 36.3878 121.089 36.3784 121.206 36.3596C121.328 36.3361 121.42 36.3174 121.481 36.3033L121.488 37.3672C121.385 37.4 121.248 37.4306 121.079 37.4588C120.915 37.4916 120.715 37.5081 120.48 37.5081C120.161 37.5081 119.867 37.4447 119.6 37.3178C119.332 37.191 119.118 36.9796 118.959 36.6837C118.804 36.3831 118.726 35.9792 118.726 35.4719V27.8908ZM124.398 29.7438V37.3672H123.087V29.7438H124.398ZM122.989 27.7217C122.989 27.5103 123.052 27.3318 123.179 27.1862C123.31 27.0406 123.503 26.9678 123.757 26.9678C124.006 26.9678 124.196 27.0406 124.327 27.1862C124.464 27.3318 124.532 27.5103 124.532 27.7217C124.532 27.9236 124.464 28.0974 124.327 28.243C124.196 28.3839 124.006 28.4544 123.757 28.4544C123.503 28.4544 123.31 28.3839 123.179 28.243C123.052 28.0974 122.989 27.9236 122.989 27.7217ZM129.682 29.7438V30.7442H125.56V29.7438H129.682ZM126.955 27.8908H128.259V35.4789C128.259 35.7373 128.299 35.9322 128.379 36.0637C128.458 36.1952 128.562 36.2821 128.689 36.3244C128.815 36.3667 128.952 36.3878 129.097 36.3878C129.205 36.3878 129.318 36.3784 129.435 36.3596C129.558 36.3361 129.649 36.3174 129.71 36.3033L129.717 37.3672C129.614 37.4 129.478 37.4306 129.309 37.4588C129.144 37.4916 128.945 37.5081 128.71 37.5081C128.39 37.5081 128.097 37.4447 127.829 37.3178C127.561 37.191 127.348 36.9796 127.188 36.6837C127.033 36.3831 126.955 35.9792 126.955 35.4719V27.8908ZM135.875 35.6057V29.7438H137.186V37.3672H135.939L135.875 35.6057ZM136.122 33.9993L136.664 33.9852C136.664 34.4925 136.61 34.9622 136.502 35.3944C136.399 35.8218 136.23 36.1929 135.995 36.5076C135.76 36.8223 135.452 37.0689 135.072 37.2474C134.692 37.4212 134.229 37.5081 133.684 37.5081C133.313 37.5081 132.972 37.4541 132.662 37.346C132.357 37.238 132.094 37.0712 131.873 36.8458C131.652 36.6203 131.481 36.3267 131.359 35.9651C131.241 35.6034 131.183 35.1689 131.183 34.6616V29.7438H132.486V34.6757C132.486 35.0186 132.524 35.3028 132.599 35.5282C132.679 35.749 132.784 35.9251 132.916 36.0567C133.052 36.1835 133.203 36.2727 133.367 36.3244C133.536 36.3761 133.71 36.4019 133.888 36.4019C134.443 36.4019 134.882 36.2962 135.206 36.0848C135.53 35.8688 135.762 35.5799 135.903 35.2182C136.049 34.8519 136.122 34.4456 136.122 33.9993ZM142.364 29.7438V30.7442H138.243V29.7438H142.364ZM139.638 27.8908H140.941V35.4789C140.941 35.7373 140.981 35.9322 141.061 36.0637C141.141 36.1952 141.244 36.2821 141.371 36.3244C141.498 36.3667 141.634 36.3878 141.779 36.3878C141.887 36.3878 142 36.3784 142.118 36.3596C142.24 36.3361 142.331 36.3174 142.392 36.3033L142.399 37.3672C142.296 37.4 142.16 37.4306 141.991 37.4588C141.826 37.4916 141.627 37.5081 141.392 37.5081C141.073 37.5081 140.779 37.4447 140.511 37.3178C140.243 37.191 140.03 36.9796 139.87 36.6837C139.715 36.3831 139.638 35.9792 139.638 35.4719V27.8908ZM147.057 37.5081C146.526 37.5081 146.044 37.4188 145.612 37.2403C145.185 37.0571 144.816 36.8012 144.506 36.4724C144.201 36.1436 143.966 35.7537 143.802 35.3028C143.637 34.8519 143.555 34.3587 143.555 33.8232V33.5273C143.555 32.9073 143.647 32.3553 143.83 31.8715C144.013 31.383 144.262 30.9697 144.577 30.6315C144.891 30.2933 145.248 30.0373 145.648 29.8635C146.047 29.6897 146.46 29.6028 146.888 29.6028C147.432 29.6028 147.902 29.6968 148.297 29.8847C148.696 30.0726 149.022 30.3356 149.276 30.6738C149.53 31.0073 149.718 31.4018 149.84 31.8575C149.962 32.3084 150.023 32.8016 150.023 33.337V33.9218H144.33V32.8579H148.719V32.7593C148.701 32.4211 148.63 32.0923 148.508 31.7729C148.391 31.4535 148.203 31.1905 147.944 30.9838C147.686 30.7771 147.334 30.6738 146.888 30.6738C146.592 30.6738 146.319 30.7372 146.07 30.864C145.821 30.9861 145.608 31.1693 145.429 31.4136C145.251 31.6578 145.112 31.9561 145.013 32.3084C144.915 32.6607 144.865 33.067 144.865 33.5273V33.8232C144.865 34.1849 144.915 34.5254 145.013 34.8448C145.117 35.1595 145.265 35.4366 145.457 35.6762C145.655 35.9158 145.892 36.1036 146.169 36.2399C146.451 36.3761 146.77 36.4442 147.127 36.4442C147.587 36.4442 147.977 36.3502 148.297 36.1623C148.616 35.9745 148.896 35.7232 149.135 35.4085L149.924 36.0355C149.76 36.2845 149.551 36.5217 149.297 36.7471C149.044 36.9726 148.731 37.1558 148.36 37.2967C147.994 37.4376 147.559 37.5081 147.057 37.5081ZM154.779 33.64V33.478C154.779 32.9284 154.859 32.4188 155.018 31.949C155.178 31.4746 155.408 31.0636 155.709 30.7161C156.009 30.3638 156.373 30.0913 156.801 29.8988C157.228 29.7015 157.707 29.6028 158.238 29.6028C158.774 29.6028 159.255 29.7015 159.682 29.8988C160.115 30.0913 160.481 30.3638 160.782 30.7161C161.087 31.0636 161.319 31.4746 161.479 31.949C161.639 32.4188 161.719 32.9284 161.719 33.478V33.64C161.719 34.1896 161.639 34.6992 161.479 35.1689C161.319 35.6386 161.087 36.0496 160.782 36.4019C160.481 36.7495 160.117 37.0219 159.69 37.2192C159.267 37.4118 158.788 37.5081 158.252 37.5081C157.717 37.5081 157.235 37.4118 156.808 37.2192C156.38 37.0219 156.014 36.7495 155.709 36.4019C155.408 36.0496 155.178 35.6386 155.018 35.1689C154.859 34.6992 154.779 34.1896 154.779 33.64ZM156.082 33.478V33.64C156.082 34.0205 156.127 34.3798 156.216 34.718C156.305 35.0515 156.439 35.3474 156.618 35.6057C156.801 35.8641 157.029 36.0684 157.301 36.2187C157.573 36.3643 157.891 36.4371 158.252 36.4371C158.609 36.4371 158.922 36.3643 159.189 36.2187C159.462 36.0684 159.687 35.8641 159.866 35.6057C160.044 35.3474 160.178 35.0515 160.267 34.718C160.361 34.3798 160.408 34.0205 160.408 33.64V33.478C160.408 33.1022 160.361 32.7476 160.267 32.4141C160.178 32.0759 160.042 31.7776 159.859 31.5193C159.68 31.2562 159.455 31.0496 159.182 30.8992C158.914 30.7489 158.6 30.6738 158.238 30.6738C157.881 30.6738 157.566 30.7489 157.294 30.8992C157.026 31.0496 156.801 31.2562 156.618 31.5193C156.439 31.7776 156.305 32.0759 156.216 32.4141C156.127 32.7476 156.082 33.1022 156.082 33.478ZM165.298 37.3672H163.994V28.9406C163.994 28.391 164.093 27.9283 164.29 27.5526C164.492 27.1721 164.781 26.8856 165.157 26.693C165.533 26.4957 165.979 26.3971 166.496 26.3971C166.646 26.3971 166.796 26.4065 166.947 26.4253C167.102 26.444 167.252 26.4722 167.397 26.5098L167.327 27.5737C167.228 27.5502 167.116 27.5338 166.989 27.5244C166.867 27.515 166.745 27.5103 166.622 27.5103C166.345 27.5103 166.106 27.5667 165.904 27.6794C165.706 27.7874 165.556 27.9471 165.453 28.1585C165.35 28.3699 165.298 28.6305 165.298 28.9406V37.3672ZM166.918 29.7438V30.7442H162.79V29.7438H166.918ZM175.655 27.1087V37.3672H174.316V27.1087H175.655ZM178.952 27.1087V28.2219H171.026V27.1087H178.952ZM182.736 37.5081C182.205 37.5081 181.724 37.4188 181.291 37.2403C180.864 37.0571 180.495 36.8012 180.185 36.4724C179.88 36.1436 179.645 35.7537 179.481 35.3028C179.316 34.8519 179.234 34.3587 179.234 33.8232V33.5273C179.234 32.9073 179.326 32.3553 179.509 31.8715C179.692 31.383 179.941 30.9697 180.256 30.6315C180.57 30.2933 180.927 30.0373 181.327 29.8635C181.726 29.6897 182.139 29.6028 182.567 29.6028C183.112 29.6028 183.581 29.6968 183.976 29.8847C184.375 30.0726 184.702 30.3356 184.955 30.6738C185.209 31.0073 185.397 31.4018 185.519 31.8575C185.641 32.3084 185.702 32.8016 185.702 33.337V33.9218H180.009V32.8579H184.399V32.7593C184.38 32.4211 184.309 32.0923 184.187 31.7729C184.07 31.4535 183.882 31.1905 183.624 30.9838C183.365 30.7771 183.013 30.6738 182.567 30.6738C182.271 30.6738 181.998 30.7372 181.749 30.864C181.501 30.9861 181.287 31.1693 181.108 31.4136C180.93 31.6578 180.791 31.9561 180.693 32.3084C180.594 32.6607 180.545 33.067 180.545 33.5273V33.8232C180.545 34.1849 180.594 34.5254 180.693 34.8448C180.796 35.1595 180.944 35.4366 181.136 35.6762C181.334 35.9158 181.571 36.1036 181.848 36.2399C182.13 36.3761 182.449 36.4442 182.806 36.4442C183.267 36.4442 183.656 36.3502 183.976 36.1623C184.295 35.9745 184.575 35.7232 184.814 35.4085L185.603 36.0355C185.439 36.2845 185.23 36.5217 184.976 36.7471C184.723 36.9726 184.41 37.1558 184.039 37.2967C183.673 37.4376 183.238 37.5081 182.736 37.5081ZM190.275 36.4371C190.585 36.4371 190.871 36.3737 191.134 36.2469C191.397 36.1201 191.613 35.9463 191.782 35.7255C191.952 35.5001 192.048 35.2441 192.071 34.9575H193.311C193.288 35.4085 193.135 35.8289 192.853 36.2187C192.576 36.6039 192.212 36.9162 191.761 37.1558C191.31 37.3906 190.815 37.5081 190.275 37.5081C189.702 37.5081 189.201 37.4071 188.774 37.2051C188.351 37.0031 187.999 36.726 187.717 36.3737C187.44 36.0214 187.231 35.6175 187.09 35.1619C186.954 34.7016 186.886 34.2154 186.886 33.7034V33.4075C186.886 32.8955 186.954 32.4117 187.09 31.9561C187.231 31.4958 187.44 31.0895 187.717 30.7372C187.999 30.3849 188.351 30.1078 188.774 29.9058C189.201 29.7038 189.702 29.6028 190.275 29.6028C190.871 29.6028 191.393 29.725 191.839 29.9692C192.285 30.2088 192.635 30.5376 192.889 30.9556C193.147 31.369 193.288 31.8387 193.311 32.3647H192.071C192.048 32.05 191.959 31.7659 191.804 31.5122C191.653 31.2586 191.447 31.0566 191.184 30.9063C190.925 30.7513 190.622 30.6738 190.275 30.6738C189.875 30.6738 189.54 30.7536 189.267 30.9133C188.999 31.0683 188.786 31.2797 188.626 31.5474C188.471 31.8105 188.358 32.1041 188.288 32.4282C188.222 32.7476 188.189 33.074 188.189 33.4075V33.7034C188.189 34.0369 188.222 34.3657 188.288 34.6898C188.354 35.0139 188.464 35.3075 188.619 35.5705C188.779 35.8336 188.992 36.0449 189.26 36.2046C189.533 36.3596 189.871 36.4371 190.275 36.4371ZM196.08 26.545V37.3672H194.777V26.545H196.08ZM195.77 33.2666L195.228 33.2454C195.232 32.7241 195.31 32.2426 195.46 31.8011C195.611 31.3549 195.822 30.9674 196.094 30.6386C196.367 30.3098 196.691 30.0561 197.067 29.8776C197.447 29.6944 197.868 29.6028 198.328 29.6028C198.704 29.6028 199.042 29.6545 199.342 29.7578C199.643 29.8565 199.899 30.0162 200.11 30.237C200.326 30.4577 200.491 30.7442 200.604 31.0965C200.716 31.4441 200.773 31.8692 200.773 32.3718V37.3672H199.462V32.3577C199.462 31.9584 199.404 31.639 199.286 31.3995C199.169 31.1552 198.997 30.9791 198.772 30.8711C198.546 30.7583 198.269 30.702 197.94 30.702C197.616 30.702 197.32 30.7701 197.053 30.9063C196.79 31.0425 196.562 31.2304 196.369 31.4699C196.181 31.7095 196.033 31.9843 195.925 32.2943C195.822 32.5996 195.77 32.9237 195.77 33.2666ZM204.028 31.3713V37.3672H202.724V29.7438H203.957L204.028 31.3713ZM203.718 33.2666L203.175 33.2454C203.18 32.7241 203.257 32.2426 203.408 31.8011C203.558 31.3549 203.769 30.9674 204.042 30.6386C204.314 30.3098 204.638 30.0561 205.014 29.8776C205.395 29.6944 205.815 29.6028 206.275 29.6028C206.651 29.6028 206.989 29.6545 207.29 29.7578C207.591 29.8565 207.847 30.0162 208.058 30.237C208.274 30.4577 208.438 30.7442 208.551 31.0965C208.664 31.4441 208.72 31.8692 208.72 32.3718V37.3672H207.41V32.3577C207.41 31.9584 207.351 31.639 207.234 31.3995C207.116 31.1552 206.945 30.9791 206.719 30.8711C206.494 30.7583 206.217 30.702 205.888 30.702C205.564 30.702 205.268 30.7701 205 30.9063C204.737 31.0425 204.509 31.2304 204.317 31.4699C204.129 31.7095 203.981 31.9843 203.873 32.2943C203.769 32.5996 203.718 32.9237 203.718 33.2666ZM210.355 33.64V33.478C210.355 32.9284 210.435 32.4188 210.594 31.949C210.754 31.4746 210.984 31.0636 211.285 30.7161C211.585 30.3638 211.949 30.0913 212.377 29.8988C212.804 29.7015 213.283 29.6028 213.814 29.6028C214.35 29.6028 214.831 29.7015 215.259 29.8988C215.691 30.0913 216.057 30.3638 216.358 30.7161C216.663 31.0636 216.896 31.4746 217.055 31.949C217.215 32.4188 217.295 32.9284 217.295 33.478V33.64C217.295 34.1896 217.215 34.6992 217.055 35.1689C216.896 35.6386 216.663 36.0496 216.358 36.4019C216.057 36.7495 215.693 37.0219 215.266 37.2192C214.843 37.4118 214.364 37.5081 213.828 37.5081C213.293 37.5081 212.811 37.4118 212.384 37.2192C211.957 37.0219 211.59 36.7495 211.285 36.4019C210.984 36.0496 210.754 35.6386 210.594 35.1689C210.435 34.6992 210.355 34.1896 210.355 33.64ZM211.658 33.478V33.64C211.658 34.0205 211.703 34.3798 211.792 34.718C211.881 35.0515 212.015 35.3474 212.194 35.6057C212.377 35.8641 212.605 36.0684 212.877 36.2187C213.15 36.3643 213.467 36.4371 213.828 36.4371C214.185 36.4371 214.498 36.3643 214.765 36.2187C215.038 36.0684 215.263 35.8641 215.442 35.6057C215.62 35.3474 215.754 35.0515 215.843 34.718C215.937 34.3798 215.984 34.0205 215.984 33.64V33.478C215.984 33.1022 215.937 32.7476 215.843 32.4141C215.754 32.0759 215.618 31.7776 215.435 31.5193C215.256 31.2562 215.031 31.0496 214.758 30.8992C214.491 30.7489 214.176 30.6738 213.814 30.6738C213.457 30.6738 213.143 30.7489 212.87 30.8992C212.602 31.0496 212.377 31.2562 212.194 31.5193C212.015 31.7776 211.881 32.0759 211.792 32.4141C211.703 32.7476 211.658 33.1022 211.658 33.478ZM220.346 26.545V37.3672H219.035V26.545H220.346ZM222.093 33.64V33.478C222.093 32.9284 222.173 32.4188 222.332 31.949C222.492 31.4746 222.722 31.0636 223.023 30.7161C223.324 30.3638 223.688 30.0913 224.115 29.8988C224.542 29.7015 225.022 29.6028 225.552 29.6028C226.088 29.6028 226.569 29.7015 226.997 29.8988C227.429 30.0913 227.795 30.3638 228.096 30.7161C228.401 31.0636 228.634 31.4746 228.793 31.949C228.953 32.4188 229.033 32.9284 229.033 33.478V33.64C229.033 34.1896 228.953 34.6992 228.793 35.1689C228.634 35.6386 228.401 36.0496 228.096 36.4019C227.795 36.7495 227.431 37.0219 227.004 37.2192C226.581 37.4118 226.102 37.5081 225.566 37.5081C225.031 37.5081 224.549 37.4118 224.122 37.2192C223.695 37.0219 223.328 36.7495 223.023 36.4019C222.722 36.0496 222.492 35.6386 222.332 35.1689C222.173 34.6992 222.093 34.1896 222.093 33.64ZM223.396 33.478V33.64C223.396 34.0205 223.441 34.3798 223.53 34.718C223.619 35.0515 223.753 35.3474 223.932 35.6057C224.115 35.8641 224.343 36.0684 224.615 36.2187C224.888 36.3643 225.205 36.4371 225.566 36.4371C225.923 36.4371 226.236 36.3643 226.503 36.2187C226.776 36.0684 227.001 35.8641 227.18 35.6057C227.358 35.3474 227.492 35.0515 227.581 34.718C227.675 34.3798 227.722 34.0205 227.722 33.64V33.478C227.722 33.1022 227.675 32.7476 227.581 32.4141C227.492 32.0759 227.356 31.7776 227.173 31.5193C226.994 31.2562 226.769 31.0496 226.496 30.8992C226.229 30.7489 225.914 30.6738 225.552 30.6738C225.195 30.6738 224.881 30.7489 224.608 30.8992C224.34 31.0496 224.115 31.2562 223.932 31.5193C223.753 31.7776 223.619 32.0759 223.53 32.4141C223.441 32.7476 223.396 33.1022 223.396 33.478ZM235.606 29.7438H236.79V37.2051C236.79 37.8768 236.654 38.4498 236.381 38.9242C236.109 39.3987 235.729 39.758 235.24 40.0022C234.756 40.2512 234.197 40.3757 233.563 40.3757C233.3 40.3757 232.99 40.3334 232.633 40.2488C232.281 40.169 231.933 40.0304 231.59 39.8331C231.252 39.6406 230.968 39.3799 230.738 39.0511L231.421 38.276C231.741 38.6612 232.074 38.9289 232.422 39.0793C232.774 39.2296 233.122 39.3047 233.465 39.3047C233.878 39.3047 234.235 39.2272 234.535 39.0722C234.836 38.9172 235.069 38.687 235.233 38.3817C235.402 38.0811 235.487 37.71 235.487 37.2685V31.4206L235.606 29.7438ZM230.357 33.64V33.492C230.357 32.9096 230.426 32.3812 230.562 31.9068C230.703 31.4277 230.902 31.0167 231.161 30.6738C231.424 30.3309 231.741 30.0679 232.112 29.8847C232.483 29.6968 232.901 29.6028 233.366 29.6028C233.845 29.6028 234.263 29.6874 234.62 29.8565C234.982 30.0209 235.287 30.2628 235.536 30.5822C235.79 30.8969 235.989 31.2774 236.135 31.7236C236.28 32.1698 236.381 32.6748 236.438 33.2384V33.8866C236.386 34.4456 236.285 34.9481 236.135 35.3944C235.989 35.8406 235.79 36.2211 235.536 36.5358C235.287 36.8505 234.982 37.0924 234.62 37.2615C234.258 37.4259 233.836 37.5081 233.352 37.5081C232.896 37.5081 232.483 37.4118 232.112 37.2192C231.745 37.0266 231.431 36.7565 231.168 36.4089C230.905 36.0614 230.703 35.6527 230.562 35.183C230.426 34.7086 230.357 34.1943 230.357 33.64ZM231.661 33.492V33.64C231.661 34.0205 231.698 34.3775 231.774 34.7109C231.853 35.0444 231.973 35.338 232.133 35.5917C232.297 35.8453 232.506 36.0449 232.76 36.1905C233.014 36.3314 233.317 36.4019 233.669 36.4019C234.101 36.4019 234.458 36.3103 234.74 36.1271C235.022 35.9439 235.245 35.702 235.409 35.4014C235.578 35.1008 235.71 34.7744 235.804 34.4221V32.7241C235.752 32.4657 235.672 32.2168 235.564 31.9772C235.461 31.733 235.325 31.5169 235.156 31.329C234.991 31.1364 234.787 30.9838 234.543 30.8711C234.298 30.7583 234.012 30.702 233.683 30.702C233.326 30.702 233.018 30.7771 232.76 30.9274C232.506 31.073 232.297 31.275 232.133 31.5334C231.973 31.787 231.853 32.0829 231.774 32.4211C231.698 32.7546 231.661 33.1116 231.661 33.492ZM240.912 36.578L243.033 29.7438H244.428L241.37 38.5438C241.299 38.7317 241.205 38.9336 241.088 39.1497C240.975 39.3705 240.83 39.5795 240.651 39.7768C240.473 39.974 240.257 40.1338 240.003 40.2559C239.754 40.3827 239.456 40.4461 239.108 40.4461C239.005 40.4461 238.873 40.432 238.714 40.4038C238.554 40.3757 238.441 40.3522 238.375 40.3334L238.368 39.2765C238.406 39.2812 238.465 39.2859 238.544 39.2906C238.629 39.3 238.688 39.3047 238.721 39.3047C239.017 39.3047 239.268 39.2648 239.475 39.1849C239.681 39.1098 239.855 38.9806 239.996 38.7974C240.141 38.6189 240.266 38.3723 240.369 38.0576L240.912 36.578ZM239.355 29.7438L241.335 35.6621L241.673 37.036L240.736 37.5151L237.932 29.7438H239.355Z" fill="white"/>
</svg>
