<svg width="441" height="692" viewBox="0 0 441 692" fill="none" xmlns="http://www.w3.org/2000/svg">
<path d="M323.284 129.049C323.284 129.049 323.917 129.363 324.859 130.304C332.43 136.922 367.756 169.683 350.41 206.861C330.856 248.442 387.623 275.852 374.38 302.628C361.131 329.403 353.245 364.059 386.362 385.797C419.479 407.221 411.907 431.475 411.907 431.475C411.907 431.475 340.63 391.782 335.9 388.946C331.483 386.111 284.803 336.336 274.082 311.135C263.361 285.933 249.798 226.391 252.634 222.927C255.475 219.458 322.97 127.474 322.97 127.474L323.284 129.049Z" fill="#5935A4"/>
<path d="M181.676 308.299C181.676 308.299 185.772 329.09 189.555 351.141C191.45 361.857 195.866 371.618 194.605 381.7C190.503 412.259 214.473 421.707 216.054 421.707C217.628 421.707 301.522 374.454 302.469 373.827C303.416 373.193 281.334 241.51 287.331 210.637C293.322 179.451 203.752 251.905 201.857 256.949C199.963 261.987 181.676 308.299 181.676 308.299Z" fill="#FFB3C7"/>
<path d="M179.781 320.903C179.781 320.903 179.781 334.134 190.502 353.036C201.23 371.933 225.194 355.552 241.285 359.021C257.37 362.484 260.519 342.635 272.507 339.485C284.489 336.336 288.906 324.052 297.105 323.419C304.991 322.791 310.035 318.381 316.345 319.955C322.656 321.216 322.023 344.843 322.023 344.843C322.023 344.843 380.057 396.82 412.541 417.297C445.024 437.774 447.232 551.816 427.051 605.688C406.55 659.559 412.854 684.447 385.735 682.238C358.609 680.036 353.559 699.252 309.721 687.596C265.883 675.94 261.153 664.911 223.619 672.157C185.772 679.403 162.116 680.977 133.735 681.611C105.348 682.238 98.4097 668.694 69.0757 671.529C39.7477 674.365 12.3082 675.626 10.1 674.992C7.89177 674.365 -1.88825 619.546 9.46646 529.137C20.8212 438.721 29.9677 393.357 72.2311 377.604C114.495 361.857 155.177 351.455 155.177 351.455C155.177 351.455 146.664 338.858 156.444 336.022C166.218 332.873 162.435 321.216 165.271 320.269C167.479 318.694 179.781 320.903 179.781 320.903Z" fill="#FFC5AE"/>
<path d="M144.456 268.92C144.456 268.92 151.708 280.576 134.996 315.231C118.277 349.881 130.893 380.126 101.245 418.872C71.6036 457.624 34.6978 446.915 12.3082 483.458C-10.0875 520.316 0.0062094 567.255 35.9588 591.509C35.9588 591.509 18.9327 565.994 19.8739 543.943C19.8739 543.943 21.7684 564.106 36.5923 571.666C36.5923 571.666 4.10887 530.398 68.1284 500.466C131.84 470.541 165.271 445.654 167.479 393.357C169.687 341.06 188.928 325.627 188.928 325.627C188.928 325.627 193.658 240.255 144.456 268.92Z" fill="#5935A4"/>
<path d="M134.682 254.114C134.682 254.114 141.934 261.673 120.799 278.374C99.6708 295.068 100.618 313.337 116.389 325.313C132.154 337.283 77.2751 334.761 79.1696 357.127C81.064 379.498 66.5539 388.633 75.7004 400.289C75.7004 400.289 70.3368 386.424 84.2194 376.976C98.0961 367.522 74.4394 353.664 111.339 343.896C148.239 334.134 136.571 327.201 122.38 315.545C108.504 303.889 113.861 291.285 134.996 285.933C156.125 280.576 147.925 263.248 147.925 263.248L134.682 254.114Z" fill="#5935A4"/>
<path d="M109.131 114.243C109.131 114.243 107.87 76.4382 128.371 67.2977C148.872 58.1633 141.301 21.3057 171.896 20.3585C202.491 19.4173 177.259 -3.89546 240.018 1.14237C302.783 6.18623 299.313 60.6852 314.137 67.9312C328.961 75.1773 334.952 130.937 324.545 148.579C314.137 166.22 270.613 192.682 270.613 192.682C270.613 192.682 206.907 174.094 196.813 169.056C187.033 164.012 96.5153 205.286 109.131 114.243Z" fill="#5935A4"/>
<path d="M280.707 184.809C280.707 184.809 290.8 152.362 319.815 160.549C348.829 168.742 323.917 233.95 285.75 231.434C247.276 228.913 280.707 184.809 280.707 184.809Z" fill="#FFB3C7"/>
<path d="M148.559 91.8715C148.559 91.8715 123.327 109.513 116.703 140.385C110.078 171.258 123.327 185.436 123.327 213.159C123.327 240.883 126.797 250.964 147.925 280.262C169.06 309.56 163.383 322.791 200.91 320.583C238.443 318.381 289.539 249.076 293.95 209.696C298.366 170.317 262.414 122.744 262.414 122.744L227.402 99.4313L201.23 92.505L179.148 91.8715L171.582 95.9682L148.239 90.9304L148.559 91.8715Z" fill="#FFB3C7"/>
<path d="M171.582 95.9683C171.582 95.9683 144.77 90.9305 129.005 103.214C112.92 115.184 116.703 141.333 101.879 164.012C87.0549 186.697 97.7761 205.914 110.712 218.831C123.955 231.748 126.163 238.047 111.653 248.756C97.1487 259.471 79.8029 290.03 85.794 309.246C91.785 328.462 124.902 340.433 126.477 354.291C126.477 354.291 117.964 340.433 92.7323 329.404C67.5009 318.381 72.231 272.383 93.6795 246.24C115.122 220.092 61.8236 221.353 87.3687 173.153C112.92 124.952 98.7234 91.8717 134.048 79.9016C169.374 67.9315 168.74 89.6695 171.582 95.9683Z" fill="#5935A4"/>
<path d="M171.582 95.9682C171.582 95.9682 192.397 84.3118 214.787 111.407C237.182 138.497 247.59 154.564 258.944 165.593C269.985 176.929 269.666 185.75 254.842 207.174C240.018 228.599 237.496 229.226 263.047 239.622C288.592 250.017 269.352 258.838 279.446 281.203C289.853 303.575 304.677 304.836 293.95 327.829C293.95 327.829 312.876 318.381 293.009 290.971C273.135 263.562 301.522 254.427 276.29 237.733C251.059 221.033 278.812 207.174 273.768 174.413C268.405 141.646 262.1 138.497 226.141 106.677C190.189 74.8636 176.312 85.5728 171.582 95.9682Z" fill="#5935A4"/>
<path d="M182.303 88.7221C182.303 88.7221 199.021 88.7221 233.079 97.2291C267.144 105.736 285.437 145.116 301.521 192.996C317.606 240.883 308.146 247.495 297.105 265.143C286.07 282.784 327.7 291.605 315.084 320.269C302.469 348.939 324.858 358.074 309.721 385.797C309.721 385.797 314.771 370.358 305.304 349.881C295.844 329.403 326.439 318.067 302.155 296.015C277.865 273.963 284.489 259.151 295.844 244.032C307.199 228.912 296.791 190.16 278.812 171.892C260.839 153.617 272.507 140.072 248.537 122.117C224.566 104.161 221.725 97.5429 210.056 96.5956C197.76 95.6544 182.303 88.7221 182.303 88.7221Z" fill="#5935A4"/>
<path d="M162.981 191.266C165.366 209.352 154.399 225.374 138.928 227.413C123.458 229.453 108.713 216.821 106.329 198.735C103.944 180.648 114.911 164.626 130.382 162.587C145.852 160.547 160.597 173.179 162.981 191.266Z" stroke="#5935A4" stroke-width="3"/>
<path d="M231.547 183.404C233.931 201.491 222.964 217.513 207.494 219.552C192.023 221.592 177.279 208.96 174.894 190.873C172.51 172.787 183.477 156.765 198.947 154.725C214.418 152.686 229.162 165.318 231.547 183.404Z" stroke="#5935A4" stroke-width="3"/>
<path d="M149.127 167.398C153.128 165.264 165.128 161.637 181.129 164.198" stroke="#5935A4" stroke-width="2"/>
<path d="M231.132 176.198L297.135 160.597" stroke="#5935A4" stroke-width="4"/>
</svg>
