<svg width="73" height="73" viewBox="0 0 73 73" fill="none" xmlns="http://www.w3.org/2000/svg">
<path d="M36.8014 27.0483C31.6263 27.0483 27.4031 31.2715 27.4031 36.4466C27.4031 41.6217 31.6263 45.8449 36.8014 45.8449C41.9764 45.8449 46.1997 41.6217 46.1997 36.4466C46.1997 31.2715 41.9764 27.0483 36.8014 27.0483ZM64.9893 36.4466C64.9893 32.5547 65.0245 28.6981 64.806 24.8133C64.5874 20.301 63.558 16.2963 60.2584 12.9967C56.9517 9.68997 52.9541 8.66765 48.4417 8.44908C44.5499 8.23052 40.6932 8.26577 36.8084 8.26577C32.9165 8.26577 29.0599 8.23052 25.1751 8.44908C20.6628 8.66765 16.6581 9.69702 13.3585 12.9967C10.0518 16.3033 9.02946 20.301 8.8109 24.8133C8.59233 28.7052 8.62759 32.5618 8.62759 36.4466C8.62759 40.3314 8.59233 44.1951 8.8109 48.0799C9.02946 52.5923 10.0588 56.5969 13.3585 59.8966C16.6652 63.2033 20.6628 64.2256 25.1751 64.4441C29.067 64.6627 32.9236 64.6275 36.8084 64.6275C40.7003 64.6275 44.5569 64.6627 48.4417 64.4441C52.9541 64.2256 56.9588 63.1962 60.2584 59.8966C63.5651 56.5899 64.5874 52.5923 64.806 48.0799C65.0316 44.1951 64.9893 40.3385 64.9893 36.4466ZM36.8014 50.9072C28.7991 50.9072 22.3408 44.4489 22.3408 36.4466C22.3408 28.4443 28.7991 21.986 36.8014 21.986C44.8037 21.986 51.262 28.4443 51.262 36.4466C51.262 44.4489 44.8037 50.9072 36.8014 50.9072ZM51.8542 24.771C49.9858 24.771 48.477 23.2622 48.477 21.3938C48.477 19.5254 49.9858 18.0166 51.8542 18.0166C53.7226 18.0166 55.2314 19.5254 55.2314 21.3938C55.2319 21.8375 55.145 22.2769 54.9754 22.6868C54.8059 23.0968 54.5572 23.4694 54.2435 23.7831C53.9298 24.0968 53.5572 24.3455 53.1472 24.515C52.7373 24.6846 52.2978 24.7715 51.8542 24.771Z" fill="#FDF6EF"/>
</svg>
