<svg width="60" height="60" viewBox="0 0 60 60" fill="none" xmlns="http://www.w3.org/2000/svg">
<path fill-rule="evenodd" clip-rule="evenodd" d="M2.97949 7.2832C2.97949 6.07743 3.45848 4.92104 4.3111 4.06843C5.16371 3.21581 6.3201 2.73682 7.52587 2.73682H52.8462C53.4437 2.73585 54.0356 2.85274 54.5879 3.08081C55.1402 3.30888 55.6421 3.64365 56.0649 4.06595C56.4876 4.48825 56.823 4.98979 57.0516 5.54185C57.2803 6.09391 57.3978 6.68565 57.3975 7.2832V52.6035C57.3982 53.2012 57.281 53.7931 57.0526 54.3454C56.8243 54.8978 56.4893 55.3996 56.0668 55.8224C55.6443 56.2451 55.1426 56.5804 54.5904 56.809C54.0382 57.0376 53.4463 57.1552 52.8487 57.1548H7.52587C6.92862 57.1548 6.33723 57.0372 5.78548 56.8085C5.23372 56.5799 4.73242 56.2448 4.31022 55.8224C3.88802 55.3999 3.55319 54.8984 3.32486 54.3466C3.09652 53.7947 2.97917 53.2032 2.97949 52.606V7.2832ZM24.5191 23.4849H31.8878V27.1854C32.9515 25.0581 35.6724 23.1436 39.7611 23.1436C47.5998 23.1436 49.4574 27.3808 49.4574 35.1551V49.5561H41.5248V36.9262C41.5248 32.4985 40.4611 30.0003 37.76 30.0003C34.0126 30.0003 32.4543 32.6939 32.4543 36.9262V49.5561H24.5191V23.4849ZM10.9146 49.2172H18.8498V23.1436H10.9146V49.2148V49.2172ZM19.9851 14.6395C20.0001 15.3189 19.8792 15.9945 19.6295 16.6266C19.3799 17.2586 19.0065 17.8344 18.5313 18.3202C18.056 18.806 17.4886 19.192 16.8622 19.4555C16.2358 19.7191 15.563 19.8548 14.8834 19.8548C14.2039 19.8548 13.5311 19.7191 12.9047 19.4555C12.2783 19.192 11.7108 18.806 11.2356 18.3202C10.7604 17.8344 10.387 17.2586 10.1373 16.6266C9.88768 15.9945 9.76678 15.3189 9.78174 14.6395C9.81111 13.3059 10.3615 12.0368 11.3151 11.1041C12.2686 10.1713 13.5495 9.64894 14.8834 9.64894C16.2174 9.64894 17.4983 10.1713 18.4518 11.1041C19.4054 12.0368 19.9558 13.3059 19.9851 14.6395Z" fill="#FDF6EF"/>
</svg>
