<svg width="60" height="49" viewBox="0 0 60 49" fill="none" xmlns="http://www.w3.org/2000/svg">
<path d="M59.5368 6.27779C57.3794 7.20846 55.0316 7.87826 52.6132 8.13912C55.124 6.64749 57.0042 4.29096 57.9011 1.51165C55.5451 2.91322 52.964 3.89602 50.2725 4.41646C49.1475 3.21383 47.787 2.25576 46.2756 1.60195C44.7642 0.948143 43.1343 0.612603 41.4875 0.61624C34.8248 0.61624 29.4665 6.01692 29.4665 12.6444C29.4665 13.5751 29.5793 14.5057 29.7626 15.4011C19.7861 14.8794 10.8884 10.1133 4.97302 2.816C3.89518 4.65699 3.33035 6.75318 3.3373 8.88647C3.3373 13.0604 5.4595 16.7407 8.69568 18.9052C6.78855 18.8301 4.92608 18.3059 3.25975 17.3753V17.5233C3.25975 23.3682 7.39134 28.2119 12.8978 29.3259C11.8639 29.5944 10.8003 29.7318 9.73211 29.7348C8.9495 29.7348 8.2092 29.6572 7.46184 29.5515C8.98475 34.3176 13.4195 37.7794 18.7003 37.8922C14.5687 41.1284 9.39368 43.032 3.77443 43.032C2.76621 43.032 1.83555 42.9968 0.869629 42.884C6.19981 46.3035 12.5241 48.2776 19.3349 48.2776C41.4452 48.2776 53.5439 29.9604 53.5439 14.0615C53.5439 13.5398 53.5439 13.0181 53.5086 12.4963C55.8494 10.7831 57.9011 8.66086 59.5368 6.27779Z" fill="#FDF6EF"/>
</svg>
